<?xml version="1.0" encoding="UTF-8" standalone="no"?>
<svg
   xmlns:dc="http://purl.org/dc/elements/1.1/"
   xmlns:cc="http://creativecommons.org/ns#"
   xmlns:rdf="http://www.w3.org/1999/02/22-rdf-syntax-ns#"
   xmlns:svg="http://www.w3.org/2000/svg"
   xmlns="http://www.w3.org/2000/svg"
   xmlns:sodipodi="http://sodipodi.sourceforge.net/DTD/sodipodi-0.dtd"
   xmlns:inkscape="http://www.inkscape.org/namespaces/inkscape"
   version="1.1"
   width="6.5999999cm"
   height="1.65cm"
   viewBox="0 0 65999997 16500000"
   id="svg2443"
   sodipodi:docname="Scart.svg"
   inkscape:version="1.0.2-2 (e86c870879, 2021-01-15)">
  <metadata
     id="metadata2449">
    <rdf:RDF>
      <cc:Work
         rdf:about="">
        <dc:format>image/svg+xml</dc:format>
        <dc:type
           rdf:resource="http://purl.org/dc/dcmitype/StillImage" />
        <dc:title>SVG Picture created as ultra-AV-F_Fab.svg date 2022/07/24 18:03:56 </dc:title>
      </cc:Work>
    </rdf:RDF>
  </metadata>
  <defs
     id="defs2447" />
  <sodipodi:namedview
     pagecolor="#ffffff"
     bordercolor="#666666"
     borderopacity="1"
     objecttolerance="10"
     gridtolerance="10"
     guidetolerance="10"
     inkscape:pageopacity="0"
     inkscape:pageshadow="2"
     inkscape:window-width="1920"
     inkscape:window-height="1017"
     id="namedview2445"
     showgrid="false"
     inkscape:zoom="3.7039502"
     inkscape:cx="116.70939"
     inkscape:cy="29.651253"
     inkscape:window-x="-8"
     inkscape:window-y="-8"
     inkscape:window-maximized="1"
     inkscape:current-layer="layer3"
     fit-margin-top="0"
     fit-margin-left="0"
     fit-margin-right="0"
     fit-margin-bottom="0" />
  <title
     id="title1649">SVG Picture created as ultra-AV-F_Fab.svg date 2022/07/24 18:03:56 </title>
  <desc
     id="desc1651">Picture generated by PCBNEW </desc>
  <g
     inkscape:groupmode="layer"
     id="layer1"
     inkscape:label="base-plate"
     style="display:inline">
    <path
       id="path2413"
       d="M 1547546.9,49811.148 A 1497736.8,1490943.3 0 0 0 49811.148,1540753.4 m 65900375.852,0 A 1497735.8,1490942.3 0 0 0 64452451,49811.148 m 0,16400364.852 a 1497735.8,1490942.3 0 0 0 1497736,-1490942 m -65900375.852,0 A 1497736.8,1490943.3 0 0 0 1547546.9,16450176 M 11108094,49811.148 H 56614300 M 49811.148,1540753.4 V 14959234 M 65950187,1540753.4 V 14959234 M 1547546.9,49811.148 H 11108094 M 13429585,16450176 h 51022866 m -62904904.1,0 H 13429585 M 56614300,49811.148 h 7838151"
       style="display:inline;fill:#000000;fill-opacity:0;stroke:#000000;stroke-width:99622.3;stroke-linecap:round;stroke-linejoin:round;stroke-opacity:1" />
  </g>
  <g
     style="display:inline;fill:#000000;fill-opacity:0;stroke:#000000;stroke-width:100000;stroke-linecap:round;stroke-linejoin:round;stroke-opacity:1"
     id="g2431"
     inkscape:groupmode="layer"
     inkscape:label="pin-markings"
     transform="translate(-68470000,-37960000)">
    <path
       id="path2093"
       d="m 106502470,43874492 c 482490,0 964990,0 1447480,0 m 0,-397584 c -482490,0 -964990,0 -1447480,0 m 0,397584 c 0,-132527 0,-265056 0,-397584 m 1447480,0 c 0,132528 0,265057 0,397584"
       style="stroke-width:99622.3" />
    <path
       id="path2097"
       d="m 113177050,48585870 c -482490,0 -964990,0 -1447480,0 m 0,397585 c 482490,0 964990,0 1447480,0 m -1447480,0 c 0,-132528 0,-265057 0,-397585 m 1447480,0 c 0,132528 0,265057 0,397585"
       style="stroke-width:99622.3" />
    <path
       id="path2105"
       d="m 88904072,48983455 c 482493,0 964986,0 1447479,0 m -1447479,0 c 0,-132528 0,-265057 0,-397585 m 1447479,0 c -482493,0 -964986,0 -1447479,0 m 1447479,0 c 0,132528 0,265057 0,397585"
       style="stroke-width:99622.3" />
    <path
       id="path2163"
       d="m 115533820,48983455 c 0,-132528 0,-265057 0,-397585 m 1447480,0 c 0,132528 0,265057 0,397585 m 0,-397585 c -482490,0 -964990,0 -1447480,0 m 0,397585 c 482490,0 964990,0 1447480,0"
       style="stroke-width:99622.3" />
    <path
       id="path2189"
       d="m 109372800,48585870 c -482490,0 -964990,0 -1447480,0 m 0,397585 c 482490,0 964990,0 1447480,0 m -1447480,0 c 0,-132528 0,-265057 0,-397585 m 1447480,0 c 0,132528 0,265057 0,397585"
       style="stroke-width:99622.3" />
    <path
       id="path2195"
       d="m 96512570,48983455 c 482493,0 964986,0 1447479,0 m -1447479,0 c 0,-132528 0,-265057 0,-397585 m 1447479,0 c -482493,0 -964986,0 -1447479,0 m 1447479,0 c 0,132528 0,265057 0,397585"
       style="stroke-width:99622.3" />
    <path
       id="path2263"
       d="m 91285472,43874492 c 0,-132527 0,-265056 0,-397584 m 0,397584 c 482493,0 964986,0 1447479,0 m 0,-397584 c 0,132528 0,265057 0,397584 m 0,-397584 c -482493,0 -964986,0 -1447479,0"
       style="stroke-width:99622.3" />
    <path
       id="path2265"
       d="m 82743053,48585870 c 0,132528 0,265057 0,397585 m -1447479,0 c 0,-132528 0,-265057 0,-397585 m 1447479,0 c -482493,0 -964986,0 -1447479,0 m 0,397585 c 482493,0 964986,0 1447479,0"
       style="stroke-width:99622.3" />
    <path
       id="path2291"
       d="m 88928702,43476908 c 0,132528 0,265057 0,397584 m -1447479,0 c 482493,0 964986,0 1447479,0 m -1447479,0 c 0,-132527 0,-265056 0,-397584 m 1447479,0 c -482493,0 -964986,0 -1447479,0"
       style="stroke-width:99622.3" />
    <path
       id="path2323"
       d="m 85099823,48983455 c 482493,0 964986,0 1447479,0 m -1447479,0 c 0,-132528 0,-265057 0,-397585 m 1447479,0 c -482493,0 -964986,0 -1447479,0 m 1447479,0 c 0,132528 0,265057 0,397585"
       style="stroke-width:99622.3" />
    <path
       id="path2333"
       d="m 105568550,48585870 c 0,132528 0,265057 0,397585 m 0,-397585 c -482490,0 -964990,0 -1447480,0 m 0,397585 c 0,-132528 0,-265057 0,-397585 m 0,397585 c 482490,0 964990,0 1447480,0"
       style="stroke-width:99622.3" />
    <path
       id="path2341"
       d="m 111754200,43476908 c -482490,0 -964990,0 -1447480,0 m 0,397584 c 0,-132527 0,-265056 0,-397584 m 0,397584 c 482490,0 964990,0 1447480,0 m 0,-397584 c 0,132528 0,265057 0,397584"
       style="stroke-width:99622.3" />
    <path
       id="path2343"
       d="m 98893970,43874492 c 0,-132527 0,-265056 0,-397584 m 0,397584 c 482493,0 964988,0 1447480,0 m 0,-397584 c 0,132528 0,265057 0,397584 m 0,-397584 c -482492,0 -964987,0 -1447480,0"
       style="stroke-width:99622.3" />
    <path
       id="path2349"
       d="m 96537200,43476908 c 0,132528 0,265057 0,397584 m -1447479,0 c 0,-132527 0,-265056 0,-397584 m 0,397584 c 482493,0 964986,0 1447479,0 m 0,-397584 c -482493,0 -964986,0 -1447479,0"
       style="stroke-width:99622.3" />
    <path
       id="path2317"
       d="m 83676974,43874492 c 0,-132527 0,-265056 0,-397584 m 0,397584 c 482493,0 964986,0 1447479,0 m 0,-397584 c 0,132528 0,265057 0,397584 m 0,-397584 c -482493,0 -964986,0 -1447479,0"
       style="stroke-width:99622.3" />
    <path
       id="path2353"
       d="m 119338060,48983455 c 482490,0 965000,0 1447490,0 m 0,-397585 c -482490,0 -965000,0 -1447490,0 m 0,397585 c 0,-132528 0,-265057 0,-397585 m 1447490,0 c 0,132528 0,265057 0,397585"
       style="stroke-width:99622.3" />
    <path
       id="path2363"
       d="m 100316820,48983455 c 0,-132528 0,-265057 0,-397585 m 0,397585 c 482490,0 964990,0 1447480,0 m 0,-397585 c 0,132528 0,265057 0,397585 m 0,-397585 c -482490,0 -964990,0 -1447480,0"
       style="stroke-width:99622.3" />
    <path
       id="path2369"
       d="m 94155800,48585870 c 0,132528 0,265057 0,397585 m -1447479,0 c 0,-132528 0,-265057 0,-397585 m 1447479,0 c -482493,0 -964986,0 -1447479,0 m 0,397585 c 482493,0 964986,0 1447479,0"
       style="stroke-width:99622.3" />
    <path
       id="path2371"
       d="m 119362700,43476908 c 0,132528 0,265057 0,397584 m 0,-397584 c -482490,0 -964990,0 -1447480,0 m 0,397584 c 482490,0 964990,0 1447480,0 m -1447480,0 c 0,-132527 0,-265056 0,-397584"
       style="stroke-width:99622.3" />
    <path
       id="path2375"
       d="m 115558450,43476908 c -482490,0 -964990,0 -1447480,0 m 0,397584 c 0,-132527 0,-265056 0,-397584 m 0,397584 c 482490,0 964990,0 1447480,0 m 0,-397584 c 0,132528 0,265057 0,397584"
       style="stroke-width:99622.3" />
    <path
       id="path2377"
       d="m 102698220,43874492 c 0,-132527 0,-265056 0,-397584 m 0,397584 c 482490,0 964990,0 1447480,0 m 0,-397584 c -482490,0 -964990,0 -1447480,0 m 1447480,0 c 0,132528 0,265057 0,397584"
       style="stroke-width:99622.3" />
    <g
       id="g2423"
       style="display:none" />
    <g
       id="g2425"
       style="display:none" />
    <g
       id="g2427"
       style="display:none" />
    <g
       id="g2429"
       style="display:none" />
  </g>
  <g
     inkscape:groupmode="layer"
     id="layer4"
     inkscape:label="inner-block"
     style="display:inline">
    <path
       id="path2385"
       style="display:inline;fill:#000000;fill-opacity:0;stroke:#000000;stroke-width:99622.3;stroke-linecap:round;stroke-linejoin:round;stroke-opacity:1"
       d="m 51167611,10420904 c 0,-505264.7 0,-1010528.5 0,-1515792.2 m 848717,3777054.2 c 0,-505263 0,-1010528 0,-1515791 m 1173226,0 c 0,-248491 0,-496981 0,-745471 M 51167611,8905111.8 c 282905,0 565811,0 848717,0 m 0,1515792.2 c 391076,0 782150,0 1173226,0 m -2021943,2261262 c 0,-505263 0,-1010528 0,-1515791 m 0,1515791 c 282905,0 565811,0 848717,0 m 0,-2261262 c 0,-505264.7 0,-1010528.5 0,-1515792.2 M 49994384,11166375 c 391076,0 782151,0 1173227,0 m 848717,0 c 391076,0 782150,0 1173226,0 m -3195170,-745471 c 391076,0 782151,0 1173227,0 m -1173227,745471 c 0,-248491 0,-496981 0,-745471 m -13195052,745471 c 391076,0 782151,0 1173226,0 m -1173226,-745471 c 391076,0 782151,0 1173226,0 m -2021943,2261262 c 0,-505263 0,-1010528 0,-1515791 m 0,1515791 c 282905,0 565812,0 848717,0 m 0,0 c 0,-505263 0,-1010528 0,-1515791 m 0,-745471 c 0,-505264.7 0,-1010528.5 0,-1515792.2 M 34777389,11166375 c 0,-248491 0,-496981 0,-745471 m 0,745471 c 391075,0 782150,0 1173226,0 m 0,-745471 c 0,-505264.7 0,-1010528.5 0,-1515792.2 m 0,0 c 282905,0 565812,0 848717,0 M 34777389,10420904 c 391075,0 782150,0 1173226,0 m 2021943,745471 c 0,-248491 0,-496981 0,-745471 m -16390222,0 c 391076,0 782151,0 1173227,0 m -2021944,0 c 0,-505264.7 0,-1010528.5 0,-1515792.2 m 0,3777054.2 c 0,-505263 0,-1010528 0,-1515791 m 848717,0 c 391076,0 782151,0 1173227,0 M 20733619,8905111.8 c 282906,0 565812,0 848717,0 m 0,1515792.2 c 0,-505264.7 0,-1010528.5 0,-1515792.2 m -848717,3777054.2 c 282906,0 565812,0 848717,0 m -2021943,-1515791 c 0,-248491 0,-496981 0,-745471 m 3195170,745471 c 0,-248491 0,-496981 0,-745471 m -3195170,745471 c 391076,0 782150,0 1173226,0 m 848717,1515791 c 0,-505263 0,-1010528 0,-1515791 m -2021943,-745471 c 391076,0 782150,0 1173226,0 m 3804249,2261262 c 282906,0 565812,0 848717,0 m 1173227,-1515791 c 0,-248491 0,-496981 0,-745471 m -2021944,0 c 0,-505264.7 0,-1010528.5 0,-1515792.2 M 23364642,11166375 c 391076,0 782150,0 1173226,0 m 0,1515791 c 0,-505263 0,-1010528 0,-1515791 m 848717,1515791 c 0,-505263 0,-1010528 0,-1515791 m 0,-745471 c 0,-505264.7 0,-1010528.5 0,-1515792.2 m 0,2261263.2 c 391076,0 782151,0 1173227,0 M 24537868,8905111.8 c 282906,0 565812,0 848717,0 M 23364642,11166375 c 0,-248491 0,-496981 0,-745471 m 2021943,0 c 391076,0 782151,0 1173227,0 m -3195170,0 c 391076,0 782150,0 1173226,0 m -6759781,0 c 0,-505264.7 0,-1010528.5 0,-1515792.2 m 1173227,2261263.2 c 0,-248491 0,-496981 0,-745471 m -2021944,2261262 c 0,-505263 0,-1010528 0,-1515791 m 0,-2261263.2 c 282906,0 565812,0 848717,0 m -848717,1515792.2 c 0,-505264.7 0,-1010528.5 0,-1515792.2 M 15756144,11166375 c 0,-248491 0,-496981 0,-745471 m 0,0 c 391076,0 782151,0 1173226,0 m 848717,0 c 391076,0 782151,0 1173227,0 m -1173227,2261262 c 0,-505263 0,-1010528 0,-1515791 m 0,0 c 391076,0 782151,0 1173227,0 m -2021944,1515791 c 282906,0 565812,0 848717,0 m -2021943,-1515791 c 391076,0 782151,0 1173226,0 m 25456517,-745471 c 391075,0 782150,0 1173226,0 m 848717,745471 c 391076,0 782150,0 1173226,0 m -2021943,1515791 c 282905,0 565812,0 848717,0 m 0,-2261262 c 0,-505264.7 0,-1010528.5 0,-1515792.2 M 42385887,11166375 c 391075,0 782150,0 1173226,0 m 2021943,0 c 0,-248491 0,-496981 0,-745471 m -3195169,745471 c 0,-248491 0,-496981 0,-745471 m 2021943,0 c 391076,0 782150,0 1173226,0 m -2021943,0 c 0,-505264.7 0,-1010528.5 0,-1515792.2 m 848717,3777054.2 c 0,-505263 0,-1010528 0,-1515791 m -848717,1515791 c 0,-505263 0,-1010528 0,-1515791 m 0,-2261263.2 c 282905,0 565812,0 848717,0 M 28342117,12682166 c 0,-505263 0,-1010528 0,-1515791 m -1173226,0 c 0,-248491 0,-496981 0,-745471 m 2021943,745471 c 391076,0 782151,0 1173226,0 m -3195169,-745471 c 391076,0 782150,0 1173226,0 m 0,-1515792.2 c 282905,0 565812,0 848717,0 m -848717,1515792.2 c 0,-505264.7 0,-1010528.5 0,-1515792.2 M 27168891,11166375 c 391076,0 782150,0 1173226,0 m 2021943,0 c 0,-248491 0,-496981 0,-745471 m -2021943,2261262 c 282905,0 565812,0 848717,0 m 0,-2261262 c 391076,0 782151,0 1173226,0 m -1173226,0 c 0,-505264.7 0,-1010528.5 0,-1515792.2 m 0,3777054.2 c 0,-505263 0,-1010528 0,-1515791 m 12585973,0 c 0,-248491 0,-496981 0,-745471 m -1173226,0 c 0,-505264.7 0,-1010528.5 0,-1515792.2 M 38581638,10420904 c 391075,0 782150,0 1173226,0 m 848717,2261262 c 0,-505263 0,-1010528 0,-1515791 m -848717,1515791 c 0,-505263 0,-1010528 0,-1515791 m 0,-745471 c 0,-505264.7 0,-1010528.5 0,-1515792.2 M 38581638,11166375 c 391075,0 782150,0 1173226,0 m 0,-2261263.2 c 282905,0 565812,0 848717,0 m 0,1515792.2 c 391076,0 782150,0 1173226,0 m -1173226,745471 c 391076,0 782150,0 1173226,0 m -2021943,1515791 c 282905,0 565812,0 848717,0 m -2021943,-1515791 c 0,-248491 0,-496981 0,-745471 m 7608497,745471 c 0,-248491 0,-496981 0,-745471 m 2021944,0 c 0,-505264.7 0,-1010528.5 0,-1515792.2 m -848717,3777054.2 c 0,-505263 0,-1010528 0,-1515791 m 848717,0 c 391076,0 782150,0 1173226,0 m -2021943,-745471 c 0,-505264.7 0,-1010528.5 0,-1515792.2 m 0,0 c 282905,0 565811,0 848717,0 M 46190135,10420904 c 391076,0 782151,0 1173227,0 m 848717,0 c 391076,0 782150,0 1173226,0 m -2021943,2261262 c 282905,0 565811,0 848717,0 m 0,0 c 0,-505263 0,-1010528 0,-1515791 m 1173226,0 c 0,-248491 0,-496981 0,-745471 m -3195170,745471 c 391076,0 782151,0 1173227,0 m -15216996,1515791 c 0,-505263 0,-1010528 0,-1515791 m 2021943,0 c 0,-248491 0,-496981 0,-745471 m -2021943,0 c 0,-505264.7 0,-1010528.5 0,-1515792.2 M 30973140,11166375 c 391075,0 782150,0 1173226,0 m -1173226,-745471 c 391075,0 782150,0 1173226,0 m 848717,2261262 c 0,-505263 0,-1010528 0,-1515791 m 0,0 c 391076,0 782151,0 1173226,0 m -3195169,0 c 0,-248491 0,-496981 0,-745471 m 1173226,2261262 c 282905,0 565812,0 848717,0 m 0,-2261262 c 391076,0 782151,0 1173226,0 m -1173226,0 c 0,-505264.7 0,-1010528.5 0,-1515792.2 m -848717,0 c 282905,0 565812,0 848717,0 M 49744762,7573203.3 c 0,-505263.7 0,-1010527.5 0,-1515791.2 m 0,1515791.2 c 282905,0 565811,0 848717,0 m 1173226,-1515791.2 c 0,-248490.4 0,-496980.8 0,-745471.2 m -1173226,745471.2 c 391075,0 782150,0 1173226,0 m -3195170,-745471.2 c 391076,0 782151,0 1173227,0 m -1173227,745471.2 c 391076,0 782151,0 1173227,0 m 848717,1515791.2 c 0,-505263.7 0,-1010527.5 0,-1515791.2 m 0,-745471.2 c 391075,0 782150,0 1173226,0 m -3195170,745471.2 c 0,-248490.4 0,-496980.8 0,-745471.2 m 1173227,0 c 0,-505263.7 0,-1010527.5 0,-1515791.3 m 0,0 c 282905,0 565811,0 848717,0 m 0,1515791.3 c 0,-505263.7 0,-1010527.5 0,-1515791.3 M 17528465,6057412.1 c 0,-248490.4 0,-496980.8 0,-745471.2 M 15506521,3796149.6 c 282906,0 565812,0 848717,0 m -2021943,2261262.5 c 391076,0 782151,0 1173226,0 m 0,1515791.2 c 0,-505263.7 0,-1010527.5 0,-1515791.2 m -1173226,0 c 0,-248490.4 0,-496980.8 0,-745471.2 m 1173226,2261262.4 c 282906,0 565812,0 848717,0 m -848717,-2261262.4 c 0,-505263.7 0,-1010527.5 0,-1515791.3 m 848717,2261262.5 c 391076,0 782151,0 1173227,0 m -1173227,-745471.2 c 391076,0 782151,0 1173227,0 m -1173227,2261262.4 c 0,-505263.7 0,-1010527.5 0,-1515791.2 m -2021943,-745471.2 c 391076,0 782151,0 1173226,0 m 848717,0 c 0,-505263.7 0,-1010527.5 0,-1515791.3 m 7608498,2261262.5 c 391076,0 782151,0 1173227,0 m -1173227,-745471.2 c 391076,0 782151,0 1173227,0 m -3195170,0 c 391076,0 782150,0 1173226,0 m 0,-1515791.3 c 282905,0 565812,0 848717,0 m -2021943,2261262.5 c 391076,0 782150,0 1173226,0 m 0,1515791.2 c 282905,0 565812,0 848717,0 M 21941793,6057412.1 c 0,-248490.4 0,-496980.8 0,-745471.2 m 2021943,0 c 0,-505263.7 0,-1010527.5 0,-1515791.3 m -848717,1515791.3 c 0,-505263.7 0,-1010527.5 0,-1515791.3 m 0,3777053.7 c 0,-505263.7 0,-1010527.5 0,-1515791.2 m 2021944,0 c 0,-248490.4 0,-496980.8 0,-745471.2 m -1173227,2261262.4 c 0,-505263.7 0,-1010527.5 0,-1515791.2 m 22825494,1515791.2 c 0,-505263.7 0,-1010527.5 0,-1515791.2 m -2021944,0 c 0,-248490.4 0,-496980.8 0,-745471.2 m 1173227,0 c 0,-505263.7 0,-1010527.5 0,-1515791.3 m 2021943,2261262.5 c 0,-248490.4 0,-496980.8 0,-745471.2 m -3195170,0 c 391076,0 782151,0 1173227,0 m 0,2261262.4 c 0,-505263.7 0,-1010527.5 0,-1515791.2 m 0,1515791.2 c 282905,0 565811,0 848717,0 M 44767286,6057412.1 c 391076,0 782151,0 1173227,0 m 848717,-745471.2 c 391076,0 782150,0 1173226,0 M 45940513,3796149.6 c 282905,0 565811,0 848717,0 m 0,1515791.3 c 0,-505263.7 0,-1010527.5 0,-1515791.3 m 0,2261262.5 c 391076,0 782150,0 1173226,0 m -5826192,-745471.2 c 0,-505263.7 0,-1010527.5 0,-1515791.3 m 848717,1515791.3 c 0,-505263.7 0,-1010527.5 0,-1515791.3 m -2021944,2261262.5 c 391076,0 782151,0 1173227,0 m -1173227,-745471.2 c 391076,0 782151,0 1173227,0 m 848717,745471.2 c 391076,0 782150,0 1173226,0 m -1173226,-745471.2 c 391076,0 782150,0 1173226,0 m -2021943,2261262.4 c 282905,0 565812,0 848717,0 m -848717,-3777053.7 c 282905,0 565812,0 848717,0 m -848717,3777053.7 c 0,-505263.7 0,-1010527.5 0,-1515791.2 m 848717,1515791.2 c 0,-505263.7 0,-1010527.5 0,-1515791.2 m -2021944,0 c 0,-248490.4 0,-496980.8 0,-745471.2 m 3195170,745471.2 c 0,-248490.4 0,-496980.8 0,-745471.2 M 19310770,7573203.3 c 282906,0 565812,0 848717,0 m 0,0 c 0,-505263.7 0,-1010527.5 0,-1515791.2 m 0,-745471.2 c 391076,0 782151,0 1173227,0 m -1173227,745471.2 c 391076,0 782151,0 1173227,0 m -2021944,-745471.2 c 0,-505263.7 0,-1010527.5 0,-1515791.3 m -1173226,2261262.5 c 391076,0 782150,0 1173226,0 m 2021944,0 c 0,-248490.4 0,-496980.8 0,-745471.2 m -3195170,0 c 391076,0 782150,0 1173226,0 m 0,2261262.4 c 0,-505263.7 0,-1010527.5 0,-1515791.2 m 848717,-745471.2 c 0,-505263.7 0,-1010527.5 0,-1515791.3 m -2021943,2261262.5 c 0,-248490.4 0,-496980.8 0,-745471.2 m 1173226,-1515791.3 c 282906,0 565812,0 848717,0 m 19021245,1515791.3 c 391076,0 782150,0 1173226,0 M 38332015,3796149.6 c 282905,0 565812,0 848717,0 m -848717,1515791.3 c 0,-505263.7 0,-1010527.5 0,-1515791.3 m 2021943,2261262.5 c 0,-248490.4 0,-496980.8 0,-745471.2 m -2021943,2261262.4 c 0,-505263.7 0,-1010527.5 0,-1515791.2 m 848717,1515791.2 c 0,-505263.7 0,-1010527.5 0,-1515791.2 m 0,0 c 391076,0 782150,0 1173226,0 m -3195169,0 c 391075,0 782150,0 1173226,0 m -1173226,-745471.2 c 391075,0 782150,0 1173226,0 m -1173226,745471.2 c 0,-248490.4 0,-496980.8 0,-745471.2 m 1173226,2261262.4 c 282905,0 565812,0 848717,0 m 0,-2261262.4 c 0,-505263.7 0,-1010527.5 0,-1515791.3 m -3804249,3777053.7 c 0,-505263.7 0,-1010527.5 0,-1515791.2 m 0,0 c 391076,0 782151,0 1173226,0 m 0,0 c 0,-248490.4 0,-496980.8 0,-745471.2 M 34527766,3796149.6 c 282905,0 565812,0 848717,0 m 0,1515791.3 c 391076,0 782151,0 1173226,0 m -3195169,0 c 391075,0 782150,0 1173226,0 m 0,2261262.4 c 0,-505263.7 0,-1010527.5 0,-1515791.2 m -1173226,0 c 0,-248490.4 0,-496980.8 0,-745471.2 m 1173226,2261262.4 c 282905,0 565812,0 848717,0 M 33354540,6057412.1 c 391075,0 782150,0 1173226,0 m 848717,-745471.2 c 0,-505263.7 0,-1010527.5 0,-1515791.3 m -848717,1515791.3 c 0,-505263.7 0,-1010527.5 0,-1515791.3 m -8781724,1515791.3 c 391076,0 782150,0 1173226,0 m 0,2261262.4 c 282905,0 565812,0 848717,0 M 25746042,6057412.1 c 0,-248490.4 0,-496980.8 0,-745471.2 m 2021943,745471.2 c 391076,0 782151,0 1173226,0 m -3195169,0 c 391076,0 782150,0 1173226,0 m 848717,-745471.2 c 0,-505263.7 0,-1010527.5 0,-1515791.3 m -848717,3777053.7 c 0,-505263.7 0,-1010527.5 0,-1515791.2 m 848717,1515791.2 c 0,-505263.7 0,-1010527.5 0,-1515791.2 m 0,-745471.2 c 391076,0 782151,0 1173226,0 m 0,745471.2 c 0,-248490.4 0,-496980.8 0,-745471.2 M 26919268,3796149.6 c 282905,0 565812,0 848717,0 m -848717,1515791.3 c 0,-505263.7 0,-1010527.5 0,-1515791.3 m 3804249,3777053.7 c 282905,0 565812,0 848717,0 m -848717,0 c 0,-505263.7 0,-1010527.5 0,-1515791.2 m 848717,-745471.2 c 391076,0 782151,0 1173226,0 m -3195169,745471.2 c 0,-248490.4 0,-496980.8 0,-745471.2 m 2021943,0 c 0,-505263.7 0,-1010527.5 0,-1515791.3 m 1173226,2261262.5 c 0,-248490.4 0,-496980.8 0,-745471.2 m -3195169,745471.2 c 391075,0 782150,0 1173226,0 m 848717,0 c 391076,0 782151,0 1173226,0 m -3195169,-745471.2 c 391075,0 782150,0 1173226,0 m 0,0 c 0,-505263.7 0,-1010527.5 0,-1515791.3 m 0,0 c 282905,0 565812,0 848717,0 m 0,3777053.7 c 0,-505263.7 0,-1010527.5 0,-1515791.2 M 53818603,14133350 c 273617,493 499465,-221724 499245,-496981 m -39939621,0 c -495,272376 222734,497199 499245,496981 M 54317848,2901584.3 c 496,-272376 -222734,-497199.4 -499245,-496980.8 m -40950593,0 c -273617,-492.7 -499464,221724.2 -499245,496980.8 m 2009462,-496980.8 c 13146792,0 26293584,0 39440376,0 M 14378227,8905111.8 c -134796,0 -269592,0 -404389,0 m 404389,-636135.4 C 13708407,6479845.7 13038585,4690715 12368765,2901584.3 m 1605073,7519319.7 c 391076,0 782151,0 1173227,0 m -768838,-1515792.2 c 0,-212045.1 0,-424090.3 0,-636135.4 M 54317848,2901584.3 c 0,3578261.4 0,7156523.7 0,10734784.7 m -39939621,0 c 0,-318068 0,-636135 0,-954203 m 0,-10277562.5 c -503406,0 -1006811,0 -1510217,0 M 14378227,12682166 c -134796,0 -269592,0 -404389,0 m 903634,1451184 c 12980377,0 25960754,0 38941131,0 M 13973838,11166375 c 391076,0 782151,0 1173227,0 m 0,0 c 0,-248491 0,-496981 0,-745471 m -1173227,2261262 c 0,-505263 0,-1010528 0,-1515791 m 0,-745471 c 0,-505264.7 0,-1010528.5 0,-1515792.2" />
  </g>
  <g
     inkscape:groupmode="layer"
     id="layer3"
     inkscape:label="outer-sleeve"
     style="display:inline">
    <path
       id="path2417"
       style="display:inline;fill:#000000;fill-opacity:0;stroke:#000000;stroke-width:99634.3;stroke-linecap:round;stroke-linejoin:round;stroke-miterlimit:4;stroke-dasharray:none;stroke-opacity:1"
       d="m 12013053,1192872.9 c -589844,-12742.5 -1111091,505992.6 -1098340,1093357.7 M 54417697,15307127 c 589845,12741 1111092,-505990 1098340,-1093358 m -42785319,0 c -12801,587168 508298,1106050 1098339,1093358 M 55516037,2286230.6 c 12801,-587172.8 -508295,-1106047.7 -1098340,-1093357.7 M 12730718,8886135 h 394403 M 55516037,2286230.6 V 14213769 M 11951895,10401927 h 1173226 m -1173226,745471 h 1173226 m 0,1515791 h -394403 m 0,1550580 v -1550580 m 394403,0 v -1515791 m -394403,-2897398.4 -1816005,-5963769 m 1037182,8861167.4 v -745471 m 778823,-1515792 V 8249999.6 M 13829057,15307127 H 54417697 M 12013053,1192872.9 H 54417697 M 13125121,10401927 V 8886135 M 56664301,1665004.6 C 56664301,-232515.33 54372449,70154.971 51851920,67660.921 45165809,56815.941 38479688,53440.521 31793569,49817.148 m 0,0 C 24809571,58146.681 17825471,49694.627 10841552,80852.601 10099127,214849.82 9522743,913961.89 9535547.9,1665004.6 M 11931925,15158032 c 141777,736749 787923,1280934 1547661,1292150 m 41562168,0 c 889961,511 1622014,-718342 1622547,-1615187 M 13479586,16450182 H 55041754 M 9535547.9,3777172.8 C 10320658,7519362.4 11105769,11261552 11890879,15003742 M 9535547.9,1665004.6 V 3777172.8 M 56664301,1665004.6 V 14834995 m -44732376,323037 -25627,-96330 -15419,-57960"
       sodipodi:nodetypes="ccccccccccccccccccccccccccccccccccccccccccccccccccccccc" />
  </g>
  <g
     inkscape:groupmode="layer"
     id="layer2"
     inkscape:label="big-holes"
     style="display:inline">
    <ellipse
       cx="62255848"
       cy="8300000"
       id="circle2419"
       style="display:inline;fill:#000000;fill-opacity:0;stroke:#000000;stroke-width:99622.3;stroke-linecap:round;stroke-linejoin:round;stroke-opacity:1"
       rx="2995471.5"
       ry="2981884.5" />
    <ellipse
       cx="3844151.8"
       cy="8300000"
       id="circle2421"
       style="display:inline;fill:#000000;fill-opacity:0;stroke:#000000;stroke-width:99622.3;stroke-linecap:round;stroke-linejoin:round;stroke-opacity:1"
       rx="2995471.5"
       ry="2981884.5" />
  </g>
</svg>
