999
DXF file: c-5530841-5-b-2d.dxf
999
Pro/ENGINEER 2018190 by Parametric Technology Corporation
  0
SECTION
  2
HEADER
  9
$ACADVER
  1
AC1014
  9
$DWGCODEPAGE
  3
ANSI_1252
  9
$EXTMAX
 10
420.0
 20
297.0
 30
0.0
  9
$EXTMIN
 10
0.0
 20
0.0
 30
0.0
  9
$LIMMIN
 10
0.0
 20
0.0
  9
$LIMMAX
 10
420.0
 20
297.0
  9
$VIEWCTR
 10
210.0
 20
148.5
  9
$VIEWSIZE
 40
297.0
  9
$CLAYER
  8
0
  9
$LTSCALE
 40
23.1
  9
$CELTYPE
  6
BYLAYER
  9
$DIMSCALE
 40
1.0
  9
$DIMASZ
 40
4.5
  9
$DIMEXO
 40
1.5
  9
$DIMDLI
 40
15.96
  9
$DIMEXE
 40
3.0
  9
$DIMCEN
 40
3.78
  9
$DIMLFAC
 40
1.0
  9
$DIMBLK
  1
_CLOSED
  9
$DIMALT
 70
0
  9
$DIMALTF
 40
0.0393700787
  9
$DIMTXT
 40
3.0
  9
$DIMTOL
 70
1
  9
$DIMLIM
 70
0
  9
$DIMTFAC
 40
1.0
  9
$DIMTP
 40
0.01
  9
$DIMTM
 40
0.01
  9
$DIMGAP
 40
0.625
  9
$AUNITS
 70
0
  9
$PDMODE
 70
3
  9
$PDSIZE
 40
0.3125
  9
$HANDSEED
  5
4F0
  9
$TILEMODE
 70
1
  9
$MEASUREMENT
 70
1
  0
ENDSEC
  0
SECTION
  2
CLASSES
  0
ENDSEC
  0
SECTION
  2
TABLES
  0
TABLE
  2
VPORT
  5
8
100
AcDbSymbolTable
 70
2
  0
VPORT
  5
1F4
100
AcDbSymbolTableRecord
100
AcDbViewportTableRecord
  2
*ACTIVE
 70
0
 10
0.0
 20
0.0
 11
1.0
 21
1.0
 12
210.0
 22
148.5
 13
0.0
 23
0.0
 14
1.0
 24
1.0
 15
0.0
 25
0.0
 16
0.0
 26
0.0
 36
1.0
 17
0.0
 27
0.0
 37
0.0
 40
297.0
 41
1.4141414141
 42
50.0
 43
0.0
 44
0.0
 50
0.0
 51
0.0
 71
0
 72
100
 73
1
 74
1
 75
0
 76
0
 77
0
 78
0
  0
ENDTAB
  0
TABLE
  2
LTYPE
  5
5
100
AcDbSymbolTable
 70
6
  0
LTYPE
  5
14
100
AcDbSymbolTableRecord
100
AcDbLinetypeTableRecord
  2
BYBLOCK
 70
0
  3

 72
65
 73
0
 40
0.0
  0
LTYPE
  5
15
100
AcDbSymbolTableRecord
100
AcDbLinetypeTableRecord
  2
BYLAYER
 70
0
  3

 72
65
 73
0
 40
0.0
  0
LTYPE
  5
16
100
AcDbSymbolTableRecord
100
AcDbLinetypeTableRecord
  2
CONTINUOUS
 70
64
  3
Solid line
 72
65
 73
0
 40
0.0
  0
LTYPE
  5
1F5
100
AcDbSymbolTableRecord
100
AcDbLinetypeTableRecord
  2
CENTER
 70
64
  3
____ _ ____ _ ____ _ ____ _ ____ _ ____ _ ____
 72
65
 73
4
 40
0.6
 49
0.375
 74
0
 49
-0.075
 74
0
 49
0.075
 74
0
 49
-0.075
 74
0
  0
LTYPE
  5
1F6
100
AcDbSymbolTableRecord
100
AcDbLinetypeTableRecord
  2
HIDDEN
 70
64
  3
- - - - - - - - - - - - - - - - - - - -
 72
65
 73
2
 40
0.2
 49
0.1
 74
0
 49
-0.1
 74
0
  0
LTYPE
  5
1F7
100
AcDbSymbolTableRecord
100
AcDbLinetypeTableRecord
  2
PHANTOM
 70
64
  3
_____ _ _ _____ _ _ _____ _ _ _____
 72
65
 73
6
 40
0.8
 49
0.45
 74
0
 49
-0.05
 74
0
 49
0.1
 74
0
 49
-0.05
 74
0
 49
0.1
 74
0
 49
-0.05
 74
0
  0
LTYPE
  5
1F8
100
AcDbSymbolTableRecord
100
AcDbLinetypeTableRecord
  2
DOT
 70
64
  3
. . . . . . . . . . . . . . . . . . . .
 72
65
 73
2
 40
0.2
 49
0.1
 74
0
 49
-0.1
 74
0
  0
LTYPE
  5
1F9
100
AcDbSymbolTableRecord
100
AcDbLinetypeTableRecord
  2
DASHED
 70
64
  3
- - - - - - - - - - - - - - - - - - - -
 72
65
 73
2
 40
0.2
 49
0.1
 74
0
 49
-0.1
 74
0
  0
ENDTAB
  0
TABLE
  2
LAYER
  5
2
100
AcDbSymbolTable
 70
36
  0
LAYER
  5
10
100
AcDbSymbolTableRecord
100
AcDbLayerTableRecord
  2
0
 70
0
 62
7
  6
CONTINUOUS
  0
LAYER
  5
1FA
100
AcDbSymbolTableRecord
100
AcDbLayerTableRecord
  2
DEFAULT_1
 70
0
 62
7
  6
CENTER
  0
LAYER
  5
1FB
100
AcDbSymbolTableRecord
100
AcDbLayerTableRecord
  2
DEFAULT_2
 70
0
 62
8
  6
HIDDEN
  0
LAYER
  5
1FC
100
AcDbSymbolTableRecord
100
AcDbLayerTableRecord
  2
DEFAULT_3
 70
0
 62
7
  6
PHANTOM
  0
LAYER
  5
1FD
100
AcDbSymbolTableRecord
100
AcDbLayerTableRecord
  2
DRAFT_ENTITY
 70
0
 62
7
  6
CONTINUOUS
  0
LAYER
  5
1FE
100
AcDbSymbolTableRecord
100
AcDbLayerTableRecord
  2
DRAFT_GEOM
 70
0
 62
7
  6
CONTINUOUS
  0
LAYER
  5
1FF
100
AcDbSymbolTableRecord
100
AcDbLayerTableRecord
  2
DRAFT_GRP
 70
0
 62
7
  6
CONTINUOUS
  0
LAYER
  5
200
100
AcDbSymbolTableRecord
100
AcDbLayerTableRecord
  2
DRAFT_OTHER
 70
0
 62
7
  6
CONTINUOUS
  0
LAYER
  5
201
100
AcDbSymbolTableRecord
100
AcDbLayerTableRecord
  2
DTM_ALL
 70
0
 62
7
  6
CONTINUOUS
  0
LAYER
  5
202
100
AcDbSymbolTableRecord
100
AcDbLayerTableRecord
  2
DTM_AXIS
 70
0
 62
7
  6
CONTINUOUS
  0
LAYER
  5
203
100
AcDbSymbolTableRecord
100
AcDbLayerTableRecord
  2
DTM_MAJOR
 70
0
 62
7
  6
CONTINUOUS
  0
LAYER
  5
204
100
AcDbSymbolTableRecord
100
AcDbLayerTableRecord
  2
NOTE
 70
0
 62
7
  6
CONTINUOUS
  0
ENDTAB
  0
TABLE
  2
STYLE
  5
3
100
AcDbSymbolTable
 70
1
  0
STYLE
  5
11
100
AcDbSymbolTableRecord
100
AcDbTextStyleTableRecord
  2
STANDARD
 70
0
 40
0.0
 41
0.95
 50
0.0
 71
0
 42
0.2
  3
txt
  4

  0
STYLE
  5
205
100
AcDbSymbolTableRecord
100
AcDbTextStyleTableRecord
  2
TEXTSTYLE_1
 70
0
 40
0.0
 41
0.8
 50
0.0
 71
0
 42
0.2
  3
gdt
  4

  0
STYLE
  5
206
100
AcDbSymbolTableRecord
100
AcDbTextStyleTableRecord
  2
TEXTSTYLE_2
 70
0
 40
0.0
 41
0.8
 50
0.0
 71
0
 42
0.2
  3
txt
  4

  0
ENDTAB
  0
TABLE
  2
VIEW
  5
6
100
AcDbSymbolTable
 70
0
  0
ENDTAB
  0
TABLE
  2
UCS
  5
7
100
AcDbSymbolTable
 70
0
  0
ENDTAB
  0
TABLE
  2
APPID
  5
9
100
AcDbSymbolTable
 70
1
  0
APPID
  5
207
100
AcDbSymbolTableRecord
100
AcDbRegAppTableRecord
  2
ACAD
 70
0
  0
ENDTAB
  0
TABLE
  2
BLOCK_RECORD
  5
1
100
AcDbSymbolTable
 70
0
  0
BLOCK_RECORD
  5
1F
100
AcDbSymbolTableRecord
100
AcDbBlockTableRecord
  2
*MODEL_SPACE
  0
BLOCK_RECORD
  5
1B
100
AcDbSymbolTableRecord
100
AcDbBlockTableRecord
  2
*PAPER_SPACE
  0
BLOCK_RECORD
  5
208
100
AcDbSymbolTableRecord
100
AcDbBlockTableRecord
  2
_CLOSED
  0
BLOCK_RECORD
  5
209
100
AcDbSymbolTableRecord
100
AcDbBlockTableRecord
  2
TE_CONNECTIVITY_BL0
  0
ENDTAB
  0
TABLE
  2
DIMSTYLE
  5
A
100
AcDbSymbolTable
 70
1
  0
DIMSTYLE
105
20A
100
AcDbSymbolTableRecord
100
AcDbDimStyleTableRecord
  2
STANDARD
 70
0
  3

  4

  5
_CLOSED
  6
_CLOSED
  7
_CLOSED
 40
1.0
 41
4.5
 42
1.5
 43
0.38
 44
3.0
 45
0.0
 46
0.0
 47
0.01
 48
0.01
140
3.0
141
0.09
142
0.0
143
25.4
144
1.0
145
0.0
146
1.0
147
0.625
 71
1.0
 72
0.0
 73
1
 74
1
 75
0
 76
0
 77
0
 78
8
 79
2
170
0
171
1
172
0
173
0
174
0
175
0
176
0
177
0
178
0
270
2
271
2
272
2
273
2
274
2
275
0
280
0
281
0
282
0
283
1
284
8
285
0
286
0
287
3
288
0
340
11
  0
ENDTAB
  0
ENDSEC
  0
SECTION
  2
BLOCKS
  0
BLOCK
  5
20
100
AcDbEntity
  8
0
100
AcDbBlockBegin
  2
*MODEL_SPACE
 70
0
 10
0.0
 20
0.0
 30
0.0
  3
*MODEL_SPACE
  1

  0
ENDBLK
  5
21
100
AcDbEntity
  8
0
100
AcDbBlockEnd
  0
BLOCK
  5
1C
100
AcDbEntity
  8
0
100
AcDbBlockBegin
  2
*PAPER_SPACE
 70
0
 10
0.0
 20
0.0
 30
0.0
  3
*PAPER_SPACE
  1

  0
ENDBLK
  5
1D
100
AcDbEntity
  8
0
100
AcDbBlockEnd
  0
BLOCK
  5
20B
100
AcDbEntity
  8
0
100
AcDbBlockBegin
 62
2
  6
CONTINUOUS
  2
TE_CONNECTIVITY_BL0
 70
64
 10
315.0
 20
36.0
  3
TE_CONNECTIVITY_BL0
  1

  0
LINE
  5
20C
100
AcDbEntity
  8
0
100
AcDbLine
 62
2
  6
CONTINUOUS
 10
303.4442621268
 20
31.975
 11
311.2931594095
 21
31.975
  0
LINE
  5
20D
100
AcDbEntity
  8
0
100
AcDbLine
 62
2
  6
CONTINUOUS
 10
316.3319775183
 20
31.975
 11
318.4139164045
 21
31.975
  0
LINE
  5
20E
100
AcDbEntity
  8
0
100
AcDbLine
 62
2
  6
CONTINUOUS
 10
321.4865647769
 20
31.975
 11
327.8504615515
 21
31.975
  0
LINE
  5
20F
100
AcDbEntity
  8
0
100
AcDbLine
 62
2
  6
CONTINUOUS
 10
328.3338139487
 20
33.7788957044
 11
324.0176749741
 21
33.7788957044
  0
LINE
  5
210
100
AcDbEntity
  8
0
100
AcDbLine
 62
2
  6
CONTINUOUS
 10
311.2931594095
 20
34.2561326711
 11
303.4442621268
 21
34.2561326711
  0
LINE
  5
211
100
AcDbEntity
  8
0
100
AcDbLine
 62
2
  6
CONTINUOUS
 10
301.1331145522
 20
34.8594322328
 11
308.9820118349
 21
34.8594322328
  0
LINE
  5
212
100
AcDbEntity
  8
0
100
AcDbLine
 62
2
  6
CONTINUOUS
 10
316.0776474878
 20
40.0249971366
 11
315.5942950906
 21
38.2211014322
  0
LINE
  5
213
100
AcDbEntity
  8
0
100
AcDbLine
 62
2
  6
CONTINUOUS
 10
324.4045177413
 20
35.2226125659
 11
328.2576583666
 21
35.2226125659
  0
LINE
  5
214
100
AcDbEntity
  8
0
100
AcDbLine
 62
2
  6
CONTINUOUS
 10
328.6887347141
 20
36.8314113971
 11
324.8355940889
 21
36.8314113971
  0
LINE
  5
215
100
AcDbEntity
  8
0
100
AcDbLine
 62
2
  6
CONTINUOUS
 10
308.9820118349
 20
37.1405649038
 11
301.1331145522
 21
37.1405649038
  0
LINE
  5
216
100
AcDbEntity
  8
0
100
AcDbLine
 62
2
  6
CONTINUOUS
 10
304.9810251894
 20
37.7438644655
 11
312.8299224721
 21
37.7438644655
  0
LINE
  5
217
100
AcDbEntity
  8
0
100
AcDbLine
 62
2
  6
CONTINUOUS
 10
318.0056153529
 20
38.2211014322
 11
316.3319775183
 21
31.975
  0
LINE
  5
218
100
AcDbEntity
  8
0
100
AcDbLine
 62
2
  6
CONTINUOUS
 10
315.5942950906
 20
38.2211014322
 11
318.0056153529
 21
38.2211014322
  0
LINE
  5
219
100
AcDbEntity
  8
0
100
AcDbLine
 62
2
  6
CONTINUOUS
 10
320.0875542391
 20
38.2211014322
 11
322.4988745014
 21
38.2211014322
  0
LINE
  5
21A
100
AcDbEntity
  8
0
100
AcDbLine
 62
2
  6
CONTINUOUS
 10
325.2079604115
 20
38.2211014322
 11
329.5240993861
 21
38.2211014322
  0
LINE
  5
21B
100
AcDbEntity
  8
0
100
AcDbLine
 62
2
  6
CONTINUOUS
 10
330.0074517833
 20
40.0249971366
 11
323.6435550087
 21
40.0249971366
  0
LINE
  5
21C
100
AcDbEntity
  8
0
100
AcDbLine
 62
2
  6
CONTINUOUS
 10
322.9822268986
 20
40.0249971366
 11
316.0776474878
 21
40.0249971366
  0
LINE
  5
21D
100
AcDbEntity
  8
0
100
AcDbLine
 62
2
  6
CONTINUOUS
 10
312.8299224721
 20
40.0249971366
 11
304.9810251894
 21
40.0249971366
  0
LINE
  5
21E
100
AcDbEntity
  8
0
100
AcDbLine
 62
2
  6
CONTINUOUS
 10
318.4139164045
 20
31.975
 11
320.0875542391
 21
38.2211014322
  0
LINE
  5
21F
100
AcDbEntity
  8
0
100
AcDbLine
 62
2
  6
CONTINUOUS
 10
322.4988745014
 20
38.2211014322
 11
322.9822268986
 21
40.0249971366
  0
LINE
  5
220
100
AcDbEntity
  8
0
100
AcDbLine
 62
2
  6
CONTINUOUS
 10
323.6435550087
 20
40.0249971366
 11
321.4865647769
 21
31.975
  0
LINE
  5
221
100
AcDbEntity
  8
0
100
AcDbLine
 62
2
  6
CONTINUOUS
 10
324.0176749741
 20
33.7788957044
 11
324.4045177413
 21
35.2226125659
  0
LINE
  5
222
100
AcDbEntity
  8
0
100
AcDbLine
 62
2
  6
CONTINUOUS
 10
324.8355940889
 20
36.8314113971
 11
325.2079604115
 21
38.2211014322
  0
LINE
  5
223
100
AcDbEntity
  8
0
100
AcDbLine
 62
2
  6
CONTINUOUS
 10
328.2576583666
 20
35.2226125659
 11
328.6887347141
 21
36.8314113971
  0
LINE
  5
224
100
AcDbEntity
  8
0
100
AcDbLine
 62
2
  6
CONTINUOUS
 10
327.8504615515
 20
31.975
 11
328.3338139487
 21
33.7788957044
  0
LINE
  5
225
100
AcDbEntity
  8
0
100
AcDbLine
 62
2
  6
CONTINUOUS
 10
329.5240993861
 20
38.2211014322
 11
330.0074517833
 21
40.0249971366
  0
ARC
  5
226
100
AcDbEntity
  8
0
100
AcDbCircle
 62
2
  6
CONTINUOUS
 10
304.9810251894
 20
38.884430801
 40
1.1405663355
100
AcDbArc
 50
90.0
 51
270.0
  0
ARC
  5
227
100
AcDbEntity
  8
0
100
AcDbCircle
 62
2
  6
CONTINUOUS
 10
312.8299224721
 20
38.884430801
 40
1.1405663355
100
AcDbArc
 50
270.0
 51
90.0
  0
ARC
  5
228
100
AcDbEntity
  8
0
100
AcDbCircle
 62
2
  6
CONTINUOUS
 10
311.2931594095
 20
33.1155663355
 40
1.1405663355
100
AcDbArc
 50
270.0
 51
90.0
  0
ARC
  5
229
100
AcDbEntity
  8
0
100
AcDbCircle
 62
2
  6
CONTINUOUS
 10
303.4442621268
 20
33.1155663355
 40
1.1405663355
100
AcDbArc
 50
90.0
 51
270.0
  0
ARC
  5
22A
100
AcDbEntity
  8
0
100
AcDbCircle
 62
2
  6
CONTINUOUS
 10
308.9820118349
 20
35.9999985683
 40
1.1405663355
100
AcDbArc
 50
270.0
 51
90.0
  0
ARC
  5
22B
100
AcDbEntity
  8
0
100
AcDbCircle
 62
2
  6
CONTINUOUS
 10
301.1331145522
 20
35.9999985683
 40
1.1405663355
100
AcDbArc
 50
90.0
 51
270.0
  0
LWPOLYLINE
  5
22C
100
AcDbEntity
  8
0
100
AcDbPolyline
 62
2
  6
CONTINUOUS
 90
50
 70
0
 10
304.8321514087
 20
40.0152434035
 10
304.9810251894
 20
40.025
 10
312.8299224721
 20
40.025
 10
312.9787962529
 20
40.0152434035
 10
313.125122762
 20
39.9861346138
 10
313.2663983123
 20
39.9381727309
 10
313.4002056399
 20
39.8721869044
 10
313.5242552644
 20
39.7893041338
 10
313.6364246624
 20
39.6909331688
 10
313.7347945842
 20
39.5787645087
 10
313.8176818934
 20
39.4547140529
 10
313.883668365
 20
39.3209070004
 10
313.9316249522
 20
39.1796295507
 10
313.9607311046
 20
39.0333047528
 10
313.9704888077
 20
38.8844281057
 10
313.9607311046
 20
38.7355595087
 10
313.9316249522
 20
38.5892266607
 10
313.883668365
 20
38.447957261
 10
313.8176818934
 20
38.3141502086
 10
313.7347945842
 20
38.1900997527
 10
313.6364246624
 20
38.0779310926
 10
313.5242552644
 20
37.9795601276
 10
313.4002056399
 20
37.8966693071
 10
313.2663983123
 20
37.8306834805
 10
313.125122762
 20
37.7827296476
 10
312.9787962529
 20
37.7536208579
 10
304.9810251894
 20
37.7438642614
 10
304.8321514087
 20
37.7536208579
 10
304.6858248996
 20
37.7827296476
 10
304.5445493493
 20
37.8306834805
 10
304.4107420217
 20
37.8966693071
 10
304.2866923972
 20
37.9795601276
 10
304.1745229992
 20
38.0779310926
 10
304.0761530773
 20
38.1900997527
 10
303.9932657682
 20
38.3141502086
 10
303.9272792966
 20
38.447957261
 10
303.8793227094
 20
38.5892266607
 10
303.850216557
 20
38.7355595087
 10
303.8404588539
 20
38.8844281057
 10
303.850216557
 20
39.0333047528
 10
303.8793227094
 20
39.1796295507
 10
303.9272792966
 20
39.3209070004
 10
303.9932657682
 20
39.4547140529
 10
304.0761530773
 20
39.5787645087
 10
304.1745229992
 20
39.6909331688
 10
304.2866923972
 20
39.7893041338
 10
304.4107420217
 20
39.8721869044
 10
304.5445493493
 20
39.9381727309
 10
304.6858248996
 20
39.9861346138
 10
304.8321514087
 20
40.0152434035
  0
HATCH
  5
22D
100
AcDbEntity
  8
0
100
AcDbHatch
 62
2
  6
CONTINUOUS
 10
0.0
 20
0.0
 30
0.0
210
0.0
220
0.0
230
1.0
  2
SOLID
 70
1
 71
1
 91
1
 92
1
 93
49
 72
1
 10
304.8321514087
 20
40.0152434035
 11
304.9810251894
 21
40.025
 72
1
 10
304.9810251894
 20
40.025
 11
312.8299224721
 21
40.025
 72
1
 10
312.8299224721
 20
40.025
 11
312.9787962529
 21
40.0152434035
 72
1
 10
312.9787962529
 20
40.0152434035
 11
313.125122762
 21
39.9861346138
 72
1
 10
313.125122762
 20
39.9861346138
 11
313.2663983123
 21
39.9381727309
 72
1
 10
313.2663983123
 20
39.9381727309
 11
313.4002056399
 21
39.8721869044
 72
1
 10
313.4002056399
 20
39.8721869044
 11
313.5242552644
 21
39.7893041338
 72
1
 10
313.5242552644
 20
39.7893041338
 11
313.6364246624
 21
39.6909331688
 72
1
 10
313.6364246624
 20
39.6909331688
 11
313.7347945842
 21
39.5787645087
 72
1
 10
313.7347945842
 20
39.5787645087
 11
313.8176818934
 21
39.4547140529
 72
1
 10
313.8176818934
 20
39.4547140529
 11
313.883668365
 21
39.3209070004
 72
1
 10
313.883668365
 20
39.3209070004
 11
313.9316249522
 21
39.1796295507
 72
1
 10
313.9316249522
 20
39.1796295507
 11
313.9607311046
 21
39.0333047528
 72
1
 10
313.9607311046
 20
39.0333047528
 11
313.9704888077
 21
38.8844281057
 72
1
 10
313.9704888077
 20
38.8844281057
 11
313.9607311046
 21
38.7355595087
 72
1
 10
313.9607311046
 20
38.7355595087
 11
313.9316249522
 21
38.5892266607
 72
1
 10
313.9316249522
 20
38.5892266607
 11
313.883668365
 21
38.447957261
 72
1
 10
313.883668365
 20
38.447957261
 11
313.8176818934
 21
38.3141502086
 72
1
 10
313.8176818934
 20
38.3141502086
 11
313.7347945842
 21
38.1900997527
 72
1
 10
313.7347945842
 20
38.1900997527
 11
313.6364246624
 21
38.0779310926
 72
1
 10
313.6364246624
 20
38.0779310926
 11
313.5242552644
 21
37.9795601276
 72
1
 10
313.5242552644
 20
37.9795601276
 11
313.4002056399
 21
37.8966693071
 72
1
 10
313.4002056399
 20
37.8966693071
 11
313.2663983123
 21
37.8306834805
 72
1
 10
313.2663983123
 20
37.8306834805
 11
313.125122762
 21
37.7827296476
 72
1
 10
313.125122762
 20
37.7827296476
 11
312.9787962529
 21
37.7536208579
 72
1
 10
312.9787962529
 20
37.7536208579
 11
304.9810251894
 21
37.7438642614
 72
1
 10
304.9810251894
 20
37.7438642614
 11
304.8321514087
 21
37.7536208579
 72
1
 10
304.8321514087
 20
37.7536208579
 11
304.6858248996
 21
37.7827296476
 72
1
 10
304.6858248996
 20
37.7827296476
 11
304.5445493493
 21
37.8306834805
 72
1
 10
304.5445493493
 20
37.8306834805
 11
304.4107420217
 21
37.8966693071
 72
1
 10
304.4107420217
 20
37.8966693071
 11
304.2866923972
 21
37.9795601276
 72
1
 10
304.2866923972
 20
37.9795601276
 11
304.1745229992
 21
38.0779310926
 72
1
 10
304.1745229992
 20
38.0779310926
 11
304.0761530773
 21
38.1900997527
 72
1
 10
304.0761530773
 20
38.1900997527
 11
303.9932657682
 21
38.3141502086
 72
1
 10
303.9932657682
 20
38.3141502086
 11
303.9272792966
 21
38.447957261
 72
1
 10
303.9272792966
 20
38.447957261
 11
303.8793227094
 21
38.5892266607
 72
1
 10
303.8793227094
 20
38.5892266607
 11
303.850216557
 21
38.7355595087
 72
1
 10
303.850216557
 20
38.7355595087
 11
303.8404588539
 21
38.8844281057
 72
1
 10
303.8404588539
 20
38.8844281057
 11
303.850216557
 21
39.0333047528
 72
1
 10
303.850216557
 20
39.0333047528
 11
303.8793227094
 21
39.1796295507
 72
1
 10
303.8793227094
 20
39.1796295507
 11
303.9272792966
 21
39.3209070004
 72
1
 10
303.9272792966
 20
39.3209070004
 11
303.9932657682
 21
39.4547140529
 72
1
 10
303.9932657682
 20
39.4547140529
 11
304.0761530773
 21
39.5787645087
 72
1
 10
304.0761530773
 20
39.5787645087
 11
304.1745229992
 21
39.6909331688
 72
1
 10
304.1745229992
 20
39.6909331688
 11
304.2866923972
 21
39.7893041338
 72
1
 10
304.2866923972
 20
39.7893041338
 11
304.4107420217
 21
39.8721869044
 72
1
 10
304.4107420217
 20
39.8721869044
 11
304.5445493493
 21
39.9381727309
 72
1
 10
304.5445493493
 20
39.9381727309
 11
304.6858248996
 21
39.9861346138
 72
1
 10
304.6858248996
 20
39.9861346138
 11
304.8321514087
 21
40.0152434035
 97
1
330
22C
 75
0
 76
1
 98
1
 10
0.0
 20
0.0
  0
LWPOLYLINE
  5
22E
100
AcDbEntity
  8
0
100
AcDbPolyline
 62
2
  6
CONTINUOUS
 90
9
 70
0
 10
315.5942950906
 20
38.2211002917
 10
316.0776474878
 20
40.025
 10
322.9822268986
 20
40.025
 10
322.4988745014
 20
38.2211002917
 10
320.0875542391
 20
38.2211002917
 10
318.4139164045
 20
31.9750028634
 10
316.3319775183
 20
31.9750028634
 10
318.0056153529
 20
38.2211002917
 10
315.5942950906
 20
38.2211002917
  0
HATCH
  5
22F
100
AcDbEntity
  8
0
100
AcDbHatch
 62
2
  6
CONTINUOUS
 10
0.0
 20
0.0
 30
0.0
210
0.0
220
0.0
230
1.0
  2
SOLID
 70
1
 71
1
 91
1
 92
1
 93
8
 72
1
 10
315.5942950906
 20
38.2211002917
 11
316.0776474878
 21
40.025
 72
1
 10
316.0776474878
 20
40.025
 11
322.9822268986
 21
40.025
 72
1
 10
322.9822268986
 20
40.025
 11
322.4988745014
 21
38.2211002917
 72
1
 10
322.4988745014
 20
38.2211002917
 11
320.0875542391
 21
38.2211002917
 72
1
 10
320.0875542391
 20
38.2211002917
 11
318.4139164045
 21
31.9750028634
 72
1
 10
318.4139164045
 20
31.9750028634
 11
316.3319775183
 21
31.9750028634
 72
1
 10
316.3319775183
 20
31.9750028634
 11
318.0056153529
 21
38.2211002917
 72
1
 10
318.0056153529
 20
38.2211002917
 11
315.5942950906
 21
38.2211002917
 97
1
330
22E
 75
0
 76
1
 98
1
 10
0.0
 20
0.0
  0
LWPOLYLINE
  5
230
100
AcDbEntity
  8
0
100
AcDbPolyline
 62
2
  6
CONTINUOUS
 90
6
 70
0
 10
330.0074517833
 20
40.025
 10
329.5240993861
 20
38.2211002917
 10
325.2079604115
 20
38.2211002917
 10
321.4865647769
 20
31.9750028634
 10
323.6435550087
 20
40.025
 10
330.0074517833
 20
40.025
  0
HATCH
  5
231
100
AcDbEntity
  8
0
100
AcDbHatch
 62
2
  6
CONTINUOUS
 10
0.0
 20
0.0
 30
0.0
210
0.0
220
0.0
230
1.0
  2
SOLID
 70
1
 71
1
 91
1
 92
1
 93
5
 72
1
 10
330.0074517833
 20
40.025
 11
329.5240993861
 21
38.2211002917
 72
1
 10
329.5240993861
 20
38.2211002917
 11
325.2079604115
 21
38.2211002917
 72
1
 10
325.2079604115
 20
38.2211002917
 11
321.4865647769
 21
31.9750028634
 72
1
 10
321.4865647769
 20
31.9750028634
 11
323.6435550087
 21
40.025
 72
1
 10
323.6435550087
 20
40.025
 11
330.0074517833
 21
40.025
 97
1
330
230
 75
0
 76
1
 98
1
 10
0.0
 20
0.0
  0
SOLID
  5
232
100
AcDbEntity
  8
0
100
AcDbTrace
 62
2
  6
CONTINUOUS
 10
312.9787962529
 20
37.7536208579
 11
312.8299224721
 21
37.7438642614
 12
304.9810251894
 22
37.7438642614
 13
304.9810251894
 23
37.7438642614
  0
LWPOLYLINE
  5
233
100
AcDbEntity
  8
0
100
AcDbPolyline
 62
2
  6
CONTINUOUS
 90
50
 70
0
 10
300.9842407715
 20
37.1308086795
 10
301.1331145522
 20
37.140565276
 10
308.9820118349
 20
37.140565276
 10
309.1308856156
 20
37.1308086795
 10
309.2772121247
 20
37.1016998898
 10
309.418487675
 20
37.0537460569
 10
309.5522950027
 20
36.9877602304
 10
309.6763446272
 20
36.9048694098
 10
309.7885140251
 20
36.8064984448
 10
309.886883947
 20
36.6943297847
 10
309.9697712562
 20
36.5702793289
 10
310.0357577278
 20
36.4364722765
 10
310.083714315
 20
36.2952028767
 10
310.1128204673
 20
36.1488700288
 10
310.1225781704
 20
36.0000014317
 10
310.1128204673
 20
35.8511247847
 10
310.083714315
 20
35.7047999867
 10
310.0357577278
 20
35.563522537
 10
309.9697712562
 20
35.4297154846
 10
309.886883947
 20
35.3056650287
 10
309.7885140251
 20
35.1934963686
 10
309.6763446272
 20
35.0951254036
 10
309.5522950027
 20
35.0122426331
 10
309.418487675
 20
34.9462487565
 10
309.2772121247
 20
34.8982949236
 10
309.1308856156
 20
34.8691861339
 10
301.1331145522
 20
34.8594295374
 10
300.9842407715
 20
34.8691861339
 10
300.8379142624
 20
34.8982949236
 10
300.6966387121
 20
34.9462487565
 10
300.5628313844
 20
35.0122426331
 10
300.4387817599
 20
35.0951254036
 10
300.326612362
 20
35.1934963686
 10
300.2282424401
 20
35.3056650287
 10
300.1453551309
 20
35.4297154846
 10
300.0793686593
 20
35.563522537
 10
300.0314120721
 20
35.7047999867
 10
300.0023059198
 20
35.8511247847
 10
299.9925482167
 20
36.0000014317
 10
300.0023059198
 20
36.1488700288
 10
300.0314120721
 20
36.2952028767
 10
300.0793686593
 20
36.4364722765
 10
300.1453551309
 20
36.5702793289
 10
300.2282424401
 20
36.6943297847
 10
300.326612362
 20
36.8064984448
 10
300.4387817599
 20
36.9048694098
 10
300.5628313844
 20
36.9877602304
 10
300.6966387121
 20
37.0537460569
 10
300.8379142624
 20
37.1016998898
 10
300.9842407715
 20
37.1308086795
  0
HATCH
  5
234
100
AcDbEntity
  8
0
100
AcDbHatch
 62
2
  6
CONTINUOUS
 10
0.0
 20
0.0
 30
0.0
210
0.0
220
0.0
230
1.0
  2
SOLID
 70
1
 71
1
 91
1
 92
1
 93
49
 72
1
 10
300.9842407715
 20
37.1308086795
 11
301.1331145522
 21
37.140565276
 72
1
 10
301.1331145522
 20
37.140565276
 11
308.9820118349
 21
37.140565276
 72
1
 10
308.9820118349
 20
37.140565276
 11
309.1308856156
 21
37.1308086795
 72
1
 10
309.1308856156
 20
37.1308086795
 11
309.2772121247
 21
37.1016998898
 72
1
 10
309.2772121247
 20
37.1016998898
 11
309.418487675
 21
37.0537460569
 72
1
 10
309.418487675
 20
37.0537460569
 11
309.5522950027
 21
36.9877602304
 72
1
 10
309.5522950027
 20
36.9877602304
 11
309.6763446272
 21
36.9048694098
 72
1
 10
309.6763446272
 20
36.9048694098
 11
309.7885140251
 21
36.8064984448
 72
1
 10
309.7885140251
 20
36.8064984448
 11
309.886883947
 21
36.6943297847
 72
1
 10
309.886883947
 20
36.6943297847
 11
309.9697712562
 21
36.5702793289
 72
1
 10
309.9697712562
 20
36.5702793289
 11
310.0357577278
 21
36.4364722765
 72
1
 10
310.0357577278
 20
36.4364722765
 11
310.083714315
 21
36.2952028767
 72
1
 10
310.083714315
 20
36.2952028767
 11
310.1128204673
 21
36.1488700288
 72
1
 10
310.1128204673
 20
36.1488700288
 11
310.1225781704
 21
36.0000014317
 72
1
 10
310.1225781704
 20
36.0000014317
 11
310.1128204673
 21
35.8511247847
 72
1
 10
310.1128204673
 20
35.8511247847
 11
310.083714315
 21
35.7047999867
 72
1
 10
310.083714315
 20
35.7047999867
 11
310.0357577278
 21
35.563522537
 72
1
 10
310.0357577278
 20
35.563522537
 11
309.9697712562
 21
35.4297154846
 72
1
 10
309.9697712562
 20
35.4297154846
 11
309.886883947
 21
35.3056650287
 72
1
 10
309.886883947
 20
35.3056650287
 11
309.7885140251
 21
35.1934963686
 72
1
 10
309.7885140251
 20
35.1934963686
 11
309.6763446272
 21
35.0951254036
 72
1
 10
309.6763446272
 20
35.0951254036
 11
309.5522950027
 21
35.0122426331
 72
1
 10
309.5522950027
 20
35.0122426331
 11
309.418487675
 21
34.9462487565
 72
1
 10
309.418487675
 20
34.9462487565
 11
309.2772121247
 21
34.8982949236
 72
1
 10
309.2772121247
 20
34.8982949236
 11
309.1308856156
 21
34.8691861339
 72
1
 10
309.1308856156
 20
34.8691861339
 11
301.1331145522
 21
34.8594295374
 72
1
 10
301.1331145522
 20
34.8594295374
 11
300.9842407715
 21
34.8691861339
 72
1
 10
300.9842407715
 20
34.8691861339
 11
300.8379142624
 21
34.8982949236
 72
1
 10
300.8379142624
 20
34.8982949236
 11
300.6966387121
 21
34.9462487565
 72
1
 10
300.6966387121
 20
34.9462487565
 11
300.5628313844
 21
35.0122426331
 72
1
 10
300.5628313844
 20
35.0122426331
 11
300.4387817599
 21
35.0951254036
 72
1
 10
300.4387817599
 20
35.0951254036
 11
300.326612362
 21
35.1934963686
 72
1
 10
300.326612362
 20
35.1934963686
 11
300.2282424401
 21
35.3056650287
 72
1
 10
300.2282424401
 20
35.3056650287
 11
300.1453551309
 21
35.4297154846
 72
1
 10
300.1453551309
 20
35.4297154846
 11
300.0793686593
 21
35.563522537
 72
1
 10
300.0793686593
 20
35.563522537
 11
300.0314120721
 21
35.7047999867
 72
1
 10
300.0314120721
 20
35.7047999867
 11
300.0023059198
 21
35.8511247847
 72
1
 10
300.0023059198
 20
35.8511247847
 11
299.9925482167
 21
36.0000014317
 72
1
 10
299.9925482167
 20
36.0000014317
 11
300.0023059198
 21
36.1488700288
 72
1
 10
300.0023059198
 20
36.1488700288
 11
300.0314120721
 21
36.2952028767
 72
1
 10
300.0314120721
 20
36.2952028767
 11
300.0793686593
 21
36.4364722765
 72
1
 10
300.0793686593
 20
36.4364722765
 11
300.1453551309
 21
36.5702793289
 72
1
 10
300.1453551309
 20
36.5702793289
 11
300.2282424401
 21
36.6943297847
 72
1
 10
300.2282424401
 20
36.6943297847
 11
300.326612362
 21
36.8064984448
 72
1
 10
300.326612362
 20
36.8064984448
 11
300.4387817599
 21
36.9048694098
 72
1
 10
300.4387817599
 20
36.9048694098
 11
300.5628313844
 21
36.9877602304
 72
1
 10
300.5628313844
 20
36.9877602304
 11
300.6966387121
 21
37.0537460569
 72
1
 10
300.6966387121
 20
37.0537460569
 11
300.8379142624
 21
37.1016998898
 72
1
 10
300.8379142624
 20
37.1016998898
 11
300.9842407715
 21
37.1308086795
 97
1
330
233
 75
0
 76
1
 98
1
 10
0.0
 20
0.0
  0
LWPOLYLINE
  5
235
100
AcDbEntity
  8
0
100
AcDbPolyline
 62
2
  6
CONTINUOUS
 90
7
 70
0
 10
328.6887347141
 20
36.831413186
 10
328.2576583666
 20
35.2226132082
 10
324.4045177413
 20
35.2226132082
 10
321.4865647769
 20
31.9750028634
 10
325.2079604115
 20
38.2211002917
 10
324.8355940889
 20
36.831413186
 10
328.6887347141
 20
36.831413186
  0
HATCH
  5
236
100
AcDbEntity
  8
0
100
AcDbHatch
 62
2
  6
CONTINUOUS
 10
0.0
 20
0.0
 30
0.0
210
0.0
220
0.0
230
1.0
  2
SOLID
 70
1
 71
1
 91
1
 92
1
 93
6
 72
1
 10
328.6887347141
 20
36.831413186
 11
328.2576583666
 21
35.2226132082
 72
1
 10
328.2576583666
 20
35.2226132082
 11
324.4045177413
 21
35.2226132082
 72
1
 10
324.4045177413
 20
35.2226132082
 11
321.4865647769
 21
31.9750028634
 72
1
 10
321.4865647769
 20
31.9750028634
 11
325.2079604115
 21
38.2211002917
 72
1
 10
325.2079604115
 20
38.2211002917
 11
324.8355940889
 21
36.831413186
 72
1
 10
324.8355940889
 20
36.831413186
 11
328.6887347141
 21
36.831413186
 97
1
330
235
 75
0
 76
1
 98
1
 10
0.0
 20
0.0
  0
SOLID
  5
237
100
AcDbEntity
  8
0
100
AcDbTrace
 62
2
  6
CONTINUOUS
 10
309.1308856156
 20
34.8691861339
 11
308.9820118349
 21
34.8594295374
 12
301.1331145522
 22
34.8594295374
 13
301.1331145522
 23
34.8594295374
  0
LWPOLYLINE
  5
238
100
AcDbEntity
  8
0
100
AcDbPolyline
 62
2
  6
CONTINUOUS
 90
50
 70
0
 10
303.2953883461
 20
34.2463739555
 10
303.4442621268
 20
34.256130552
 10
311.2931594095
 20
34.256130552
 10
311.4420331903
 20
34.2463739555
 10
311.5883596994
 20
34.2172651658
 10
311.7296352496
 20
34.1693113329
 10
311.8634425773
 20
34.1033255064
 10
311.9874922018
 20
34.0204346859
 10
312.0996615998
 20
33.9220717708
 10
312.1980315216
 20
33.8099031107
 10
312.2809188308
 20
33.6858526549
 10
312.3469053024
 20
33.5520456025
 10
312.3948618896
 20
33.4107681527
 10
312.4239680419
 20
33.2644433548
 10
312.4337257451
 20
33.1155667077
 10
312.4239680419
 20
32.9666900607
 10
312.3948618896
 20
32.8203652627
 10
312.3469053024
 20
32.679087813
 10
312.2809188308
 20
32.5452807606
 10
312.1980315216
 20
32.4212303047
 10
312.0996615998
 20
32.3090616446
 10
311.9874922018
 20
32.2106906796
 10
311.8634425773
 20
32.1278079091
 10
311.7296352496
 20
32.0618220825
 10
311.5883596994
 20
32.0138601996
 10
311.4420331903
 20
31.98475946
 10
303.4442621268
 20
31.9750028634
 10
303.2953883461
 20
31.98475946
 10
303.149061837
 20
32.0138601996
 10
303.0077862867
 20
32.0618220825
 10
302.8739789591
 20
32.1278079091
 10
302.7499293345
 20
32.2106906796
 10
302.6377599366
 20
32.3090616446
 10
302.5393900147
 20
32.4212303047
 10
302.4565027056
 20
32.5452807606
 10
302.390516234
 20
32.679087813
 10
302.3425596467
 20
32.8203652627
 10
302.3134534944
 20
32.9666900607
 10
302.3036957913
 20
33.1155667077
 10
302.3134534944
 20
33.2644433548
 10
302.3425596467
 20
33.4107681527
 10
302.390516234
 20
33.5520456025
 10
302.4565027056
 20
33.6858526549
 10
302.5393900147
 20
33.8099031107
 10
302.6377599366
 20
33.9220717708
 10
302.7499293345
 20
34.0204346859
 10
302.8739789591
 20
34.1033255064
 10
303.0077862867
 20
34.1693113329
 10
303.149061837
 20
34.2172651658
 10
303.2953883461
 20
34.2463739555
  0
HATCH
  5
239
100
AcDbEntity
  8
0
100
AcDbHatch
 62
2
  6
CONTINUOUS
 10
0.0
 20
0.0
 30
0.0
210
0.0
220
0.0
230
1.0
  2
SOLID
 70
1
 71
1
 91
1
 92
1
 93
49
 72
1
 10
303.2953883461
 20
34.2463739555
 11
303.4442621268
 21
34.256130552
 72
1
 10
303.4442621268
 20
34.256130552
 11
311.2931594095
 21
34.256130552
 72
1
 10
311.2931594095
 20
34.256130552
 11
311.4420331903
 21
34.2463739555
 72
1
 10
311.4420331903
 20
34.2463739555
 11
311.5883596994
 21
34.2172651658
 72
1
 10
311.5883596994
 20
34.2172651658
 11
311.7296352496
 21
34.1693113329
 72
1
 10
311.7296352496
 20
34.1693113329
 11
311.8634425773
 21
34.1033255064
 72
1
 10
311.8634425773
 20
34.1033255064
 11
311.9874922018
 21
34.0204346859
 72
1
 10
311.9874922018
 20
34.0204346859
 11
312.0996615998
 21
33.9220717708
 72
1
 10
312.0996615998
 20
33.9220717708
 11
312.1980315216
 21
33.8099031107
 72
1
 10
312.1980315216
 20
33.8099031107
 11
312.2809188308
 21
33.6858526549
 72
1
 10
312.2809188308
 20
33.6858526549
 11
312.3469053024
 21
33.5520456025
 72
1
 10
312.3469053024
 20
33.5520456025
 11
312.3948618896
 21
33.4107681527
 72
1
 10
312.3948618896
 20
33.4107681527
 11
312.4239680419
 21
33.2644433548
 72
1
 10
312.4239680419
 20
33.2644433548
 11
312.4337257451
 21
33.1155667077
 72
1
 10
312.4337257451
 20
33.1155667077
 11
312.4239680419
 21
32.9666900607
 72
1
 10
312.4239680419
 20
32.9666900607
 11
312.3948618896
 21
32.8203652627
 72
1
 10
312.3948618896
 20
32.8203652627
 11
312.3469053024
 21
32.679087813
 72
1
 10
312.3469053024
 20
32.679087813
 11
312.2809188308
 21
32.5452807606
 72
1
 10
312.2809188308
 20
32.5452807606
 11
312.1980315216
 21
32.4212303047
 72
1
 10
312.1980315216
 20
32.4212303047
 11
312.0996615998
 21
32.3090616446
 72
1
 10
312.0996615998
 20
32.3090616446
 11
311.9874922018
 21
32.2106906796
 72
1
 10
311.9874922018
 20
32.2106906796
 11
311.8634425773
 21
32.1278079091
 72
1
 10
311.8634425773
 20
32.1278079091
 11
311.7296352496
 21
32.0618220825
 72
1
 10
311.7296352496
 20
32.0618220825
 11
311.5883596994
 21
32.0138601996
 72
1
 10
311.5883596994
 20
32.0138601996
 11
311.4420331903
 21
31.98475946
 72
1
 10
311.4420331903
 20
31.98475946
 11
303.4442621268
 21
31.9750028634
 72
1
 10
303.4442621268
 20
31.9750028634
 11
303.2953883461
 21
31.98475946
 72
1
 10
303.2953883461
 20
31.98475946
 11
303.149061837
 21
32.0138601996
 72
1
 10
303.149061837
 20
32.0138601996
 11
303.0077862867
 21
32.0618220825
 72
1
 10
303.0077862867
 20
32.0618220825
 11
302.8739789591
 21
32.1278079091
 72
1
 10
302.8739789591
 20
32.1278079091
 11
302.7499293345
 21
32.2106906796
 72
1
 10
302.7499293345
 20
32.2106906796
 11
302.6377599366
 21
32.3090616446
 72
1
 10
302.6377599366
 20
32.3090616446
 11
302.5393900147
 21
32.4212303047
 72
1
 10
302.5393900147
 20
32.4212303047
 11
302.4565027056
 21
32.5452807606
 72
1
 10
302.4565027056
 20
32.5452807606
 11
302.390516234
 21
32.679087813
 72
1
 10
302.390516234
 20
32.679087813
 11
302.3425596467
 21
32.8203652627
 72
1
 10
302.3425596467
 20
32.8203652627
 11
302.3134534944
 21
32.9666900607
 72
1
 10
302.3134534944
 20
32.9666900607
 11
302.3036957913
 21
33.1155667077
 72
1
 10
302.3036957913
 20
33.1155667077
 11
302.3134534944
 21
33.2644433548
 72
1
 10
302.3134534944
 20
33.2644433548
 11
302.3425596467
 21
33.4107681527
 72
1
 10
302.3425596467
 20
33.4107681527
 11
302.390516234
 21
33.5520456025
 72
1
 10
302.390516234
 20
33.5520456025
 11
302.4565027056
 21
33.6858526549
 72
1
 10
302.4565027056
 20
33.6858526549
 11
302.5393900147
 21
33.8099031107
 72
1
 10
302.5393900147
 20
33.8099031107
 11
302.6377599366
 21
33.9220717708
 72
1
 10
302.6377599366
 20
33.9220717708
 11
302.7499293345
 21
34.0204346859
 72
1
 10
302.7499293345
 20
34.0204346859
 11
302.8739789591
 21
34.1033255064
 72
1
 10
302.8739789591
 20
34.1033255064
 11
303.0077862867
 21
34.1693113329
 72
1
 10
303.0077862867
 20
34.1693113329
 11
303.149061837
 21
34.2172651658
 72
1
 10
303.149061837
 20
34.2172651658
 11
303.2953883461
 21
34.2463739555
 97
1
330
238
 75
0
 76
1
 98
1
 10
0.0
 20
0.0
  0
SOLID
  5
23A
100
AcDbEntity
  8
0
100
AcDbTrace
 62
2
  6
CONTINUOUS
 10
311.4420331903
 20
31.98475946
 11
311.2931594095
 21
31.9750028634
 12
303.4442621268
 22
31.9750028634
 13
303.4442621268
 23
31.9750028634
  0
LWPOLYLINE
  5
23B
100
AcDbEntity
  8
0
100
AcDbPolyline
 62
2
  6
CONTINUOUS
 90
6
 70
0
 10
328.3338139487
 20
33.7788945218
 10
327.8504615515
 20
31.9750028634
 10
321.4865647769
 20
31.9750028634
 10
324.4045177413
 20
35.2226132082
 10
324.0176749741
 20
33.7788945218
 10
328.3338139487
 20
33.7788945218
  0
HATCH
  5
23C
100
AcDbEntity
  8
0
100
AcDbHatch
 62
2
  6
CONTINUOUS
 10
0.0
 20
0.0
 30
0.0
210
0.0
220
0.0
230
1.0
  2
SOLID
 70
1
 71
1
 91
1
 92
1
 93
5
 72
1
 10
328.3338139487
 20
33.7788945218
 11
327.8504615515
 21
31.9750028634
 72
1
 10
327.8504615515
 20
31.9750028634
 11
321.4865647769
 21
31.9750028634
 72
1
 10
321.4865647769
 20
31.9750028634
 11
324.4045177413
 21
35.2226132082
 72
1
 10
324.4045177413
 20
35.2226132082
 11
324.0176749741
 21
33.7788945218
 72
1
 10
324.0176749741
 20
33.7788945218
 11
328.3338139487
 21
33.7788945218
 97
1
330
23B
 75
0
 76
1
 98
1
 10
0.0
 20
0.0
  0
ENDBLK
  5
23D
100
AcDbEntity
  8
0
  6
BYBLOCK
 62
0
100
AcDbBlockEnd
  0
BLOCK
  5
23E
100
AcDbEntity
  8
0
100
AcDbBlockBegin
  2
_CLOSED
 70
64
 10
0.0
 20
0.0
  3
_CLOSED
  1

  0
LINE
  5
23F
100
AcDbEntity
  8
0
  6
BYBLOCK
 62
0
100
AcDbLine
 10
0.0
 20
0.0
 11
-1.0
 21
0.1666666667
  0
LINE
  5
240
100
AcDbEntity
  8
0
  6
BYBLOCK
 62
0
100
AcDbLine
 10
-1.0
 20
0.1666666667
 11
-1.0
 21
-0.1666666667
  0
LINE
  5
241
100
AcDbEntity
  8
0
  6
BYBLOCK
 62
0
100
AcDbLine
 10
-1.0
 20
-0.1666666667
 11
0.0
 21
0.0
  0
LINE
  5
242
100
AcDbEntity
  8
0
  6
BYBLOCK
 62
0
100
AcDbLine
 10
-1.0
 20
0.0
 11
0.0
 21
0.0
  0
ENDBLK
  5
243
100
AcDbEntity
  8
0
  6
BYBLOCK
 62
0
100
AcDbBlockEnd
  0
ENDSEC
  0
SECTION
  2
ENTITIES
  0
TEXT
  5
244
100
AcDbEntity
  8
0
100
AcDbText
 62
2
  6
CONTINUOUS
 10
273.9447944556
 20
16.2331743479
  7
STANDARD
 40
1.5200002147
  1
SIZE
 41
0.95
 72
0
100
AcDbText
  0
TEXT
  5
245
100
AcDbEntity
  8
0
100
AcDbText
 62
2
  6
CONTINUOUS
 10
287.5144966041
 20
16.2331819773
  7
STANDARD
 40
1.5200002147
  1
DRAWING NO
 41
0.95
 72
0
100
AcDbText
  0
TEXT
  5
246
100
AcDbEntity
  8
0
100
AcDbText
 62
2
  6
CONTINUOUS
 10
354.2964949762
 20
16.2330905319
  7
STANDARD
 40
1.52
  1
VERSION
 41
0.95
 72
0
100
AcDbText
  0
TEXT
  5
247
100
AcDbEntity
  8
0
100
AcDbText
 62
2
  6
CONTINUOUS
 10
274.4447944556
 20
25.5657549143
  7
STANDARD
 40
1.5200002147
  1
NAME
 41
0.95
 72
0
100
AcDbText
  0
TEXT
  5
248
100
AcDbEntity
  8
0
100
AcDbText
 62
2
  6
CONTINUOUS
 10
276.2800492314
 20
10.3485471083
  7
STANDARD
 40
4.9999998868
  1
A3
 41
0.95
 72
0
100
AcDbText
  0
TEXT
  5
249
100
AcDbEntity
  8
0
100
AcDbText
 62
2
  6
CONTINUOUS
 10
297.3906714731
 20
21.1920805906
  7
TEXTSTYLE_2
 40
3.968
  1
CUSTOMER VIEW MODEL DRAWING
 41
0.8
 72
1
 11
340.2450714731
 21
21.1920805906
100
AcDbText
  0
TEXT
  5
24A
100
AcDbEntity
  8
0
100
AcDbText
 62
2
  6
CONTINUOUS
 10
347.0299084682
 20
34.4224093775
  7
TEXTSTYLE_2
 40
2.5
  1
TE Connectivity
 41
0.8
 72
0
100
AcDbText
  0
TEXT
  5
24B
100
AcDbEntity
  8
0
100
AcDbText
 62
2
  6
CONTINUOUS
 10
369.5635822821
 20
16.2739597356
  7
STANDARD
 40
1.52
  1
DATE
 41
0.95
 72
0
100
AcDbText
  0
TEXT
  5
24C
100
AcDbEntity
  8
0
100
AcDbText
 62
2
  6
CONTINUOUS
 10
174.6476862981
 20
23.8368677885
  7
TEXTSTYLE_2
 40
2.286
  1
THIS IS NOT A CONTROLLED DRAWING.
 41
0.8
 72
0
100
AcDbText
  0
TEXT
  5
24D
100
AcDbEntity
  8
0
100
AcDbText
 62
2
  6
CONTINUOUS
 10
174.6476862981
 20
20.4078677885
  7
TEXTSTYLE_2
 40
2.286
  1
THIS IS A REPRESENTATION OF THE CUSTOMER VIEW MODEL.
 41
0.8
 72
0
100
AcDbText
  0
TEXT
  5
24E
100
AcDbEntity
  8
0
100
AcDbText
 62
2
  6
CONTINUOUS
 10
174.6476862981
 20
16.9788677885
  7
TEXTSTYLE_2
 40
2.286
  1
    THIS IS NOT THE DOCUMENT OF SALE.
 41
0.8
 72
0
100
AcDbText
  0
TEXT
  5
24F
100
AcDbEntity
  8
0
100
AcDbText
 62
2
  6
CONTINUOUS
 10
174.6476862981
 20
13.5498677885
  7
TEXTSTYLE_2
 40
2.286
  1
SEE THE CUSTOMER DRAWING FOR DESIGN PURPOSES.
 41
0.8
 72
0
100
AcDbText
  0
TEXT
  5
250
100
AcDbEntity
  8
0
100
AcDbText
 62
2
  6
CONTINUOUS
 10
22.7512107444
 20
282.4829655254
  7
TEXTSTYLE_2
 40
2.5
  1
c
 41
0.8
 72
0
100
AcDbText
  0
INSERT
  5
251
100
AcDbEntity
  8
0
100
AcDbBlockReference
 62
2
  6
CONTINUOUS
  2
TE_CONNECTIVITY_BL0
 10
315.0
 20
36.0
  0
LINE
  5
252
100
AcDbEntity
  8
0
100
AcDbLine
 62
2
  6
CONTINUOUS
 10
287.2090159416
 20
18.7593422635
 11
409.2090159416
 21
18.7593422635
  0
LINE
  5
253
100
AcDbEntity
  8
0
100
AcDbLine
 62
2
  6
CONTINUOUS
 10
287.2090159416
 20
18.7593422635
 11
287.2090159416
 21
9.2342522635
  0
LINE
  5
254
100
AcDbEntity
  8
0
100
AcDbLine
 62
2
  6
CONTINUOUS
 10
287.2090159416
 20
9.2342522635
 11
409.2090159416
 21
9.2342522635
  0
LINE
  5
255
100
AcDbEntity
  8
0
100
AcDbLine
 62
2
  6
CONTINUOUS
 10
353.3340159416
 20
18.7593422635
 11
353.3340159416
 21
9.2342522635
  0
LINE
  5
256
100
AcDbEntity
  8
0
100
AcDbLine
 62
2
  6
CONTINUOUS
 10
367.9590159416
 20
18.7593422635
 11
367.9590159416
 21
9.2342522635
  0
LINE
  5
257
100
AcDbEntity
  8
0
100
AcDbLine
 62
2
  6
CONTINUOUS
 10
409.2090159416
 20
18.7593422635
 11
409.2090159416
 21
9.2342522635
  0
TEXT
  5
258
100
AcDbEntity
  8
0
100
AcDbText
 62
2
  6
CONTINUOUS
 10
306.2795159416
 20
12.4067972635
  7
TEXTSTYLE_2
 40
3.18
  1
C-5530841-5
 41
0.8
 72
1
 11
320.2715159416
 21
12.4067972635
100
AcDbText
  0
TEXT
  5
259
100
AcDbEntity
  8
0
100
AcDbText
 62
2
  6
CONTINUOUS
 10
359.3745159416
 20
12.4067972635
  7
TEXTSTYLE_2
 40
3.18
  1
B
 41
0.8
 72
1
 11
360.6465159416
 21
12.4067972635
100
AcDbText
  0
TEXT
  5
25A
100
AcDbEntity
  8
0
100
AcDbText
 62
2
  6
CONTINUOUS
 10
377.1360159416
 20
12.4067972635
  7
TEXTSTYLE_2
 40
3.18
  1
08-Mar-19
 41
0.8
 72
1
 11
388.5840159416
 21
12.4067972635
100
AcDbText
  0
LINE
  5
25B
100
AcDbEntity
  8
0
100
AcDbLine
 62
2
  6
CONTINUOUS
 10
17.7838797455
 20
287.0843544705
 11
132.7838797455
 21
287.0843544705
  0
LINE
  5
25C
100
AcDbEntity
  8
0
100
AcDbLine
 62
2
  6
CONTINUOUS
 10
17.7838797455
 20
287.0843544705
 11
17.7838797455
 21
272.0843544705
  0
LINE
  5
25D
100
AcDbEntity
  8
0
100
AcDbLine
 62
2
  6
CONTINUOUS
 10
17.7838797455
 20
272.0843544705
 11
132.7838797455
 21
272.0843544705
  0
LINE
  5
25E
100
AcDbEntity
  8
0
100
AcDbLine
 62
2
  6
CONTINUOUS
 10
132.7838797455
 20
287.0843544705
 11
132.7838797455
 21
272.0843544705
  0
TEXT
  5
25F
100
AcDbEntity
  8
0
100
AcDbText
 62
2
  6
CONTINUOUS
 10
17.8463797455
 20
282.0843544705
  7
TEXTSTYLE_2
 40
2.5
  1
  
 41
0.8
 72
0
100
AcDbText
  0
TEXT
  5
260
100
AcDbEntity
  8
0
100
AcDbText
 62
2
  6
CONTINUOUS
 10
21.8463797455
 20
282.0843544705
  7
TEXTSTYLE_1
 40
2.5
  1
e
 41
1.0
 72
0
100
AcDbText
  0
TEXT
  5
261
100
AcDbEntity
  8
0
100
AcDbText
 62
2
  6
CONTINUOUS
 10
26.4297130788
 20
282.0843544705
  7
TEXTSTYLE_2
 40
2.5
  1
Copyright 
 41
0.8
 72
0
100
AcDbText
  0
TEXT
  5
262
100
AcDbEntity
  8
0
100
AcDbText
 62
2
  6
CONTINUOUS
 10
46.4297130788
 20
282.0843544705
  7
TEXTSTYLE_2
 40
2.5
  1
08-Mar-19
 41
0.8
 72
0
100
AcDbText
  0
TEXT
  5
263
100
AcDbEntity
  8
0
100
AcDbText
 62
2
  6
CONTINUOUS
 10
64.4297130788
 20
282.0843544705
  7
TEXTSTYLE_2
 40
2.5
  1
 Tyco Electronics Corporation,
 41
0.8
 72
0
100
AcDbText
  0
TEXT
  5
264
100
AcDbEntity
  8
0
100
AcDbText
 62
2
  6
CONTINUOUS
 10
17.8463797455
 20
278.3343544705
  7
TEXTSTYLE_2
 40
2.5
  1
 
 41
0.8
 72
0
100
AcDbText
  0
TEXT
  5
265
100
AcDbEntity
  8
0
100
AcDbText
 62
2
  6
CONTINUOUS
 10
17.8463797455
 20
274.5843544705
  7
TEXTSTYLE_2
 40
2.5
  1
  a TE Connectivity Ltd. Company.  All Rights Reserved.
 41
0.8
 72
0
100
AcDbText
  0
LINE
  5
266
100
AcDbEntity
  8
0
100
AcDbLine
 62
7
  6
CONTINUOUS
 10
0.0
 20
0.0
 11
0.0
 21
297.0
  0
LINE
  5
267
100
AcDbEntity
  8
0
100
AcDbLine
 62
7
  6
CONTINUOUS
 10
17.7838797455
 20
9.2342568143
 11
17.7838797455
 21
287.0843544705
  0
LINE
  5
268
100
AcDbEntity
  8
0
100
AcDbLine
 62
7
  6
CONTINUOUS
 10
0.0
 20
0.0
 11
420.0
 21
0.0
  0
LINE
  5
269
100
AcDbEntity
  8
0
100
AcDbLine
 62
7
  6
CONTINUOUS
 10
409.2090201263
 20
9.2342568143
 11
17.7838797455
 21
9.2342568143
  0
LINE
  5
26A
100
AcDbEntity
  8
0
100
AcDbLine
 62
7
  6
CONTINUOUS
 10
30.4841666107
 20
9.234348367
 11
17.784490097
 21
9.234348367
  0
LINE
  5
26B
100
AcDbEntity
  8
0
100
AcDbLine
 62
7
  6
CONTINUOUS
 10
409.2090159416
 20
18.7593422635
 11
273.4388174896
 21
18.7593422635
  0
LINE
  5
26C
100
AcDbEntity
  8
DRAFT_ENTITY
100
AcDbLine
 62
7
  6
CONTINUOUS
 10
409.2091421966
 20
28.2845192655
 11
273.4386343841
 21
28.2845192655
  0
LINE
  5
26D
100
AcDbEntity
  8
0
100
AcDbLine
 62
7
  6
CONTINUOUS
 10
409.2091421966
 20
44.1593056424
 11
273.4386343841
 21
44.1593056424
  0
LINE
  5
26E
100
AcDbEntity
  8
0
100
AcDbLine
 62
7
  6
CONTINUOUS
 10
273.4386343841
 20
44.1593056424
 11
273.4386343841
 21
9.2342568143
  0
LINE
  5
26F
100
AcDbEntity
  8
0
100
AcDbLine
 62
7
  6
CONTINUOUS
 10
287.2079097655
 20
18.7593422635
 11
287.2079097655
 21
9.2342568143
  0
LINE
  5
270
100
AcDbEntity
  8
0
100
AcDbLine
 62
7
  6
CONTINUOUS
 10
353.3344447689
 20
18.7593808926
 11
353.3344447689
 21
9.2342954434
  0
LINE
  5
271
100
AcDbEntity
  8
0
100
AcDbLine
 62
7
  6
CONTINUOUS
 10
17.7838797455
 20
287.0843544705
 11
409.208898056
 21
287.0843544705
  0
LINE
  5
272
100
AcDbEntity
  8
0
100
AcDbLine
 62
7
  6
CONTINUOUS
 10
0.0
 20
297.0
 11
420.0
 21
297.0
  0
LINE
  5
273
100
AcDbEntity
  8
0
100
AcDbLine
 62
7
  6
CONTINUOUS
 10
367.9586057154
 20
9.2337890544
 11
367.9586057154
 21
18.7587829509
  0
LINE
  5
274
100
AcDbEntity
  8
0
100
AcDbLine
 62
7
  6
CONTINUOUS
 10
409.208898056
 20
287.0843544705
 11
409.2090201263
 21
9.2342568143
  0
LINE
  5
275
100
AcDbEntity
  8
0
100
AcDbLine
 62
7
  6
CONTINUOUS
 10
420.0
 20
0.0
 11
420.0
 21
297.0
  0
LINE
  5
276
100
AcDbEntity
  8
0
100
AcDbLine
 62
7
  6
CONTINUOUS
 10
252.9411748118
 20
221.9682968917
 11
254.4782945939
 21
226.9424229495
  0
LINE
  5
277
100
AcDbEntity
  8
0
100
AcDbLine
 62
7
  6
CONTINUOUS
 10
259.4592794071
 20
222.3061541423
 11
257.3073117121
 21
215.3423776615
  0
LINE
  5
278
100
AcDbEntity
  8
0
100
AcDbLine
 62
7
  6
CONTINUOUS
 10
255.2655921741
 20
217.2316296014
 11
252.9411748118
 21
221.9682968917
  0
LINE
  5
279
100
AcDbEntity
  8
0
100
AcDbLine
 62
7
  6
CONTINUOUS
 10
257.3073117121
 20
215.3423776615
 11
260.15859701
 21
209.5320657853
  0
LINE
  5
27A
100
AcDbEntity
  8
0
100
AcDbLine
 62
7
  6
CONTINUOUS
 10
259.9504779932
 20
210.9096465223
 11
258.4512287944
 21
213.9647969245
  0
LINE
  5
27B
100
AcDbEntity
  8
0
100
AcDbLine
 62
7
  6
CONTINUOUS
 10
258.7711839373
 20
214.6476664589
 11
259.1062874403
 21
213.9647969245
  0
LINE
  5
27C
100
AcDbEntity
  8
0
100
AcDbLine
 62
7
  6
CONTINUOUS
 10
262.5383077675
 20
227.0845229682
 11
261.0616814892
 21
222.3061541423
  0
LINE
  5
27D
100
AcDbEntity
  8
0
100
AcDbLine
 62
7
  6
CONTINUOUS
 10
259.2898228019
 20
213.7108391204
 11
259.5091252645
 21
214.4205028085
  0
LINE
  5
27E
100
AcDbEntity
  8
0
100
AcDbLine
 62
7
  6
CONTINUOUS
 10
264.0162475797
 20
226.1891802778
 11
264.2929291404
 21
227.0845229682
  0
LINE
  5
27F
100
AcDbEntity
  8
0
100
AcDbLine
 62
7
  6
CONTINUOUS
 10
259.3976496002
 20
214.6476664589
 11
259.5091252645
 21
214.4205028085
  0
LINE
  5
280
100
AcDbEntity
  8
0
100
AcDbLine
 62
7
  6
CONTINUOUS
 10
260.6035643452
 20
213.9647969245
 11
260.2684608421
 21
214.6476664589
  0
LINE
  5
281
100
AcDbEntity
  8
0
100
AcDbLine
 62
7
  6
CONTINUOUS
 10
260.971704763
 20
213.6345872273
 11
261.2582003668
 21
213.0507702342
  0
LINE
  5
282
100
AcDbEntity
  8
0
100
AcDbLine
 62
7
  6
CONTINUOUS
 10
264.5641111661
 20
226.5319117843
 11
264.4808878592
 21
225.8907327143
  0
LINE
  5
283
100
AcDbEntity
  8
0
100
AcDbLine
 62
7
  6
CONTINUOUS
 10
261.4386132953
 20
213.6345872273
 11
261.2582003668
 21
213.0507702342
  0
LINE
  5
284
100
AcDbEntity
  8
0
100
AcDbLine
 62
7
  6
CONTINUOUS
 10
266.3816766145
 20
228.6929342147
 11
265.5157316606
 21
225.8907327143
  0
LINE
  5
285
100
AcDbEntity
  8
0
100
AcDbLine
 62
7
  6
CONTINUOUS
 10
266.9431554538
 20
228.6929342147
 11
266.0772104999
 21
225.8907327143
  0
LINE
  5
286
100
AcDbEntity
  8
0
100
AcDbLine
 62
7
  6
CONTINUOUS
 10
266.2754573779
 20
225.8907327143
 11
267.0647999625
 21
228.4450486265
  0
LINE
  5
287
100
AcDbEntity
  8
0
100
AcDbLine
 62
7
  6
CONTINUOUS
 10
268.7211717784
 20
228.6929342147
 11
267.8552268245
 21
225.8907327143
  0
LINE
  5
288
100
AcDbEntity
  8
0
100
AcDbLine
 62
7
  6
CONTINUOUS
 10
264.374679726
 20
213.6345872273
 11
264.3114187796
 21
213.4298745394
  0
LINE
  5
289
100
AcDbEntity
  8
0
100
AcDbLine
 62
7
  6
CONTINUOUS
 10
269.2826506177
 20
228.6929342147
 11
268.4167056638
 21
225.8907327143
  0
LINE
  5
28A
100
AcDbEntity
  8
0
100
AcDbLine
 62
7
  6
CONTINUOUS
 10
268.6149525418
 20
225.8907327143
 11
269.4042951264
 21
228.4450486265
  0
LINE
  5
28B
100
AcDbEntity
  8
0
100
AcDbLine
 62
7
  6
CONTINUOUS
 10
271.0606669423
 20
228.6929342147
 11
270.1947219884
 21
225.8907327143
  0
LINE
  5
28C
100
AcDbEntity
  8
0
100
AcDbLine
 62
7
  6
CONTINUOUS
 10
266.7141748899
 20
213.6345872273
 11
266.6509139434
 21
213.4298745394
  0
LINE
  5
28D
100
AcDbEntity
  8
0
100
AcDbLine
 62
7
  6
CONTINUOUS
 10
271.6221457816
 20
228.6929342147
 11
270.7562008277
 21
225.8907327143
  0
LINE
  5
28E
100
AcDbEntity
  8
0
100
AcDbLine
 62
7
  6
CONTINUOUS
 10
270.9544477057
 20
225.8907327143
 11
271.7437902902
 21
228.4450486265
  0
LINE
  5
28F
100
AcDbEntity
  8
0
100
AcDbLine
 62
7
  6
CONTINUOUS
 10
273.4001621062
 20
228.6929342147
 11
272.5342171523
 21
225.8907327143
  0
LINE
  5
290
100
AcDbEntity
  8
0
100
AcDbLine
 62
7
  6
CONTINUOUS
 10
269.0536700538
 20
213.6345872273
 11
268.9904091073
 21
213.4298745394
  0
LINE
  5
291
100
AcDbEntity
  8
0
100
AcDbLine
 62
7
  6
CONTINUOUS
 10
264.0162475797
 20
226.1891802778
 11
264.1519287935
 21
225.9126908753
  0
LINE
  5
292
100
AcDbEntity
  8
0
100
AcDbLine
 62
7
  6
CONTINUOUS
 10
264.2929291404
 20
227.0845229682
 11
264.5641111661
 21
226.5319117843
  0
LINE
  5
293
100
AcDbEntity
  8
0
100
AcDbLine
 62
7
  6
CONTINUOUS
 10
273.9616409455
 20
228.6929342147
 11
273.0956959916
 21
225.8907327143
  0
LINE
  5
294
100
AcDbEntity
  8
0
100
AcDbLine
 62
7
  6
CONTINUOUS
 10
273.2939428695
 20
225.8907327143
 11
274.0832854541
 21
228.4450486265
  0
LINE
  5
295
100
AcDbEntity
  8
0
100
AcDbLine
 62
7
  6
CONTINUOUS
 10
275.73965727
 20
228.6929342147
 11
274.8737123161
 21
225.8907327143
  0
LINE
  5
296
100
AcDbEntity
  8
0
100
AcDbLine
 62
7
  6
CONTINUOUS
 10
271.3931652177
 20
213.6345872273
 11
271.3299042712
 21
213.4298745394
  0
LINE
  5
297
100
AcDbEntity
  8
0
100
AcDbLine
 62
7
  6
CONTINUOUS
 10
276.3011361094
 20
228.6929342147
 11
275.4351911555
 21
225.8907327143
  0
LINE
  5
298
100
AcDbEntity
  8
0
100
AcDbLine
 62
7
  6
CONTINUOUS
 10
275.6334380334
 20
225.8907327143
 11
276.422780618
 21
228.4450486265
  0
LINE
  5
299
100
AcDbEntity
  8
0
100
AcDbLine
 62
7
  6
CONTINUOUS
 10
267.0647999625
 20
228.4450486265
 11
266.9431554538
 21
228.6929342147
  0
LINE
  5
29A
100
AcDbEntity
  8
0
100
AcDbLine
 62
7
  6
CONTINUOUS
 10
278.0791524339
 20
228.6929342147
 11
277.21320748
 21
225.8907327143
  0
LINE
  5
29B
100
AcDbEntity
  8
0
100
AcDbLine
 62
7
  6
CONTINUOUS
 10
273.7326603816
 20
213.6345872273
 11
273.6693994351
 21
213.4298745394
  0
LINE
  5
29C
100
AcDbEntity
  8
0
100
AcDbLine
 62
7
  6
CONTINUOUS
 10
278.6406312733
 20
228.6929342147
 11
277.7746863194
 21
225.8907327143
  0
LINE
  5
29D
100
AcDbEntity
  8
0
100
AcDbLine
 62
7
  6
CONTINUOUS
 10
277.9729331973
 20
225.8907327143
 11
278.7622757819
 21
228.4450486265
  0
LINE
  5
29E
100
AcDbEntity
  8
0
100
AcDbLine
 62
7
  6
CONTINUOUS
 10
269.4042951264
 20
228.4450486265
 11
269.2826506177
 21
228.6929342147
  0
LINE
  5
29F
100
AcDbEntity
  8
0
100
AcDbLine
 62
7
  6
CONTINUOUS
 10
280.4186475978
 20
228.6929342147
 11
279.5527026439
 21
225.8907327143
  0
LINE
  5
2A0
100
AcDbEntity
  8
0
100
AcDbLine
 62
7
  6
CONTINUOUS
 10
276.0721555454
 20
213.6345872273
 11
276.008894599
 21
213.4298745394
  0
LINE
  5
2A1
100
AcDbEntity
  8
0
100
AcDbLine
 62
7
  6
CONTINUOUS
 10
280.9801264372
 20
228.6929342147
 11
280.1141814833
 21
225.8907327143
  0
LINE
  5
2A2
100
AcDbEntity
  8
0
100
AcDbLine
 62
7
  6
CONTINUOUS
 10
280.3124283612
 20
225.8907327143
 11
281.1017709458
 21
228.4450486265
  0
LINE
  5
2A3
100
AcDbEntity
  8
0
100
AcDbLine
 62
7
  6
CONTINUOUS
 10
271.7437902902
 20
228.4450486265
 11
271.6221457816
 21
228.6929342147
  0
LINE
  5
2A4
100
AcDbEntity
  8
0
100
AcDbLine
 62
7
  6
CONTINUOUS
 10
274.0832854541
 20
228.4450486265
 11
273.9616409455
 21
228.6929342147
  0
LINE
  5
2A5
100
AcDbEntity
  8
0
100
AcDbLine
 62
7
  6
CONTINUOUS
 10
282.7581427617
 20
228.6929342147
 11
281.8921978078
 21
225.8907327143
  0
LINE
  5
2A6
100
AcDbEntity
  8
0
100
AcDbLine
 62
7
  6
CONTINUOUS
 10
278.4116507093
 20
213.6345872273
 11
278.3483897629
 21
213.4298745394
  0
LINE
  5
2A7
100
AcDbEntity
  8
0
100
AcDbLine
 62
7
  6
CONTINUOUS
 10
283.319621601
 20
228.6929342147
 11
282.4536766471
 21
225.8907327143
  0
LINE
  5
2A8
100
AcDbEntity
  8
0
100
AcDbLine
 62
7
  6
CONTINUOUS
 10
282.6519235251
 20
225.8907327143
 11
283.4412661097
 21
228.4450486265
  0
LINE
  5
2A9
100
AcDbEntity
  8
0
100
AcDbLine
 62
7
  6
CONTINUOUS
 10
285.0976379256
 20
228.6929342147
 11
284.2316929717
 21
225.8907327143
  0
LINE
  5
2AA
100
AcDbEntity
  8
0
100
AcDbLine
 62
7
  6
CONTINUOUS
 10
280.7511458732
 20
213.6345872273
 11
280.6878849268
 21
213.4298745394
  0
LINE
  5
2AB
100
AcDbEntity
  8
0
100
AcDbLine
 62
7
  6
CONTINUOUS
 10
276.422780618
 20
228.4450486265
 11
276.3011361094
 21
228.6929342147
  0
LINE
  5
2AC
100
AcDbEntity
  8
0
100
AcDbLine
 62
7
  6
CONTINUOUS
 10
285.6591167649
 20
228.6929342147
 11
284.793171811
 21
225.8907327143
  0
LINE
  5
2AD
100
AcDbEntity
  8
0
100
AcDbLine
 62
7
  6
CONTINUOUS
 10
284.991418689
 20
225.8907327143
 11
285.7807612736
 21
228.4450486265
  0
LINE
  5
2AE
100
AcDbEntity
  8
0
100
AcDbLine
 62
7
  6
CONTINUOUS
 10
287.4371330895
 20
228.6929342147
 11
286.5711881356
 21
225.8907327143
  0
LINE
  5
2AF
100
AcDbEntity
  8
0
100
AcDbLine
 62
7
  6
CONTINUOUS
 10
283.0906410371
 20
213.6345872273
 11
283.0273800906
 21
213.4298745394
  0
LINE
  5
2B0
100
AcDbEntity
  8
0
100
AcDbLine
 62
7
  6
CONTINUOUS
 10
287.9986119288
 20
228.6929342147
 11
287.1326669749
 21
225.8907327143
  0
LINE
  5
2B1
100
AcDbEntity
  8
0
100
AcDbLine
 62
7
  6
CONTINUOUS
 10
287.3309138529
 20
225.8907327143
 11
288.1202564374
 21
228.4450486265
  0
LINE
  5
2B2
100
AcDbEntity
  8
0
100
AcDbLine
 62
7
  6
CONTINUOUS
 10
260.15859701
 20
209.5320657853
 11
324.7286635332
 21
209.5320657853
  0
LINE
  5
2B3
100
AcDbEntity
  8
0
100
AcDbLine
 62
7
  6
CONTINUOUS
 10
323.5847464509
 20
210.9096465223
 11
259.9504779932
 21
210.9096465223
  0
LINE
  5
2B4
100
AcDbEntity
  8
0
100
AcDbLine
 62
7
  6
CONTINUOUS
 10
278.7622757819
 20
228.4450486265
 11
278.6406312733
 21
228.6929342147
  0
LINE
  5
2B5
100
AcDbEntity
  8
0
100
AcDbLine
 62
7
  6
CONTINUOUS
 10
289.7766282534
 20
228.6929342147
 11
288.9106832995
 21
225.8907327143
  0
LINE
  5
2B6
100
AcDbEntity
  8
0
100
AcDbLine
 62
7
  6
CONTINUOUS
 10
285.430136201
 20
213.6345872273
 11
285.3668752545
 21
213.4298745394
  0
LINE
  5
2B7
100
AcDbEntity
  8
0
100
AcDbLine
 62
7
  6
CONTINUOUS
 10
290.3381070927
 20
228.6929342147
 11
289.4721621388
 21
225.8907327143
  0
LINE
  5
2B8
100
AcDbEntity
  8
0
100
AcDbLine
 62
7
  6
CONTINUOUS
 10
289.6704090167
 20
225.8907327143
 11
290.4597516013
 21
228.4450486265
  0
LINE
  5
2B9
100
AcDbEntity
  8
0
100
AcDbLine
 62
7
  6
CONTINUOUS
 10
322.0850746278
 20
213.0507702342
 11
261.2582003668
 21
213.0507702342
  0
LINE
  5
2BA
100
AcDbEntity
  8
0
100
AcDbLine
 62
7
  6
CONTINUOUS
 10
263.118276246
 20
213.4298745394
 11
264.3114187796
 21
213.4298745394
  0
LINE
  5
2BB
100
AcDbEntity
  8
0
100
AcDbLine
 62
7
  6
CONTINUOUS
 10
265.4577714099
 20
213.4298745394
 11
266.6509139434
 21
213.4298745394
  0
LINE
  5
2BC
100
AcDbEntity
  8
0
100
AcDbLine
 62
7
  6
CONTINUOUS
 10
267.7972665738
 20
213.4298745394
 11
268.9904091073
 21
213.4298745394
  0
LINE
  5
2BD
100
AcDbEntity
  8
0
100
AcDbLine
 62
7
  6
CONTINUOUS
 10
270.1367617376
 20
213.4298745394
 11
271.3299042712
 21
213.4298745394
  0
LINE
  5
2BE
100
AcDbEntity
  8
0
100
AcDbLine
 62
7
  6
CONTINUOUS
 10
272.4762569015
 20
213.4298745394
 11
273.6693994351
 21
213.4298745394
  0
LINE
  5
2BF
100
AcDbEntity
  8
0
100
AcDbLine
 62
7
  6
CONTINUOUS
 10
274.8157520654
 20
213.4298745394
 11
276.008894599
 21
213.4298745394
  0
LINE
  5
2C0
100
AcDbEntity
  8
0
100
AcDbLine
 62
7
  6
CONTINUOUS
 10
277.1552472293
 20
213.4298745394
 11
278.3483897629
 21
213.4298745394
  0
LINE
  5
2C1
100
AcDbEntity
  8
0
100
AcDbLine
 62
7
  6
CONTINUOUS
 10
279.4947423932
 20
213.4298745394
 11
280.6878849268
 21
213.4298745394
  0
LINE
  5
2C2
100
AcDbEntity
  8
0
100
AcDbLine
 62
7
  6
CONTINUOUS
 10
281.8342375571
 20
213.4298745394
 11
283.0273800906
 21
213.4298745394
  0
LINE
  5
2C3
100
AcDbEntity
  8
0
100
AcDbLine
 62
7
  6
CONTINUOUS
 10
284.1737327209
 20
213.4298745394
 11
285.3668752545
 21
213.4298745394
  0
LINE
  5
2C4
100
AcDbEntity
  8
0
100
AcDbLine
 62
7
  6
CONTINUOUS
 10
286.5132278848
 20
213.4298745394
 11
287.7063704184
 21
213.4298745394
  0
LINE
  5
2C5
100
AcDbEntity
  8
0
100
AcDbLine
 62
7
  6
CONTINUOUS
 10
288.8527230487
 20
213.4298745394
 11
290.0458655823
 21
213.4298745394
  0
LINE
  5
2C6
100
AcDbEntity
  8
0
100
AcDbLine
 62
7
  6
CONTINUOUS
 10
291.1922182126
 20
213.4298745394
 11
292.3853607462
 21
213.4298745394
  0
LINE
  5
2C7
100
AcDbEntity
  8
0
100
AcDbLine
 62
7
  6
CONTINUOUS
 10
293.5317133765
 20
213.4298745394
 11
294.7248559101
 21
213.4298745394
  0
LINE
  5
2C8
100
AcDbEntity
  8
0
100
AcDbLine
 62
7
  6
CONTINUOUS
 10
295.8712085404
 20
213.4298745394
 11
297.064351074
 21
213.4298745394
  0
LINE
  5
2C9
100
AcDbEntity
  8
0
100
AcDbLine
 62
7
  6
CONTINUOUS
 10
298.2107037043
 20
213.4298745394
 11
299.4038462378
 21
213.4298745394
  0
LINE
  5
2CA
100
AcDbEntity
  8
0
100
AcDbLine
 62
7
  6
CONTINUOUS
 10
300.5501988681
 20
213.4298745394
 11
301.7433414017
 21
213.4298745394
  0
LINE
  5
2CB
100
AcDbEntity
  8
0
100
AcDbLine
 62
7
  6
CONTINUOUS
 10
302.889694032
 20
213.4298745394
 11
304.0828365656
 21
213.4298745394
  0
LINE
  5
2CC
100
AcDbEntity
  8
0
100
AcDbLine
 62
7
  6
CONTINUOUS
 10
305.2291891959
 20
213.4298745394
 11
306.4223317295
 21
213.4298745394
  0
LINE
  5
2CD
100
AcDbEntity
  8
0
100
AcDbLine
 62
7
  6
CONTINUOUS
 10
307.5686843598
 20
213.4298745394
 11
308.7618268934
 21
213.4298745394
  0
LINE
  5
2CE
100
AcDbEntity
  8
0
100
AcDbLine
 62
7
  6
CONTINUOUS
 10
309.9081795237
 20
213.4298745394
 11
311.1013220573
 21
213.4298745394
  0
LINE
  5
2CF
100
AcDbEntity
  8
0
100
AcDbLine
 62
7
  6
CONTINUOUS
 10
312.2476746876
 20
213.4298745394
 11
313.4408172211
 21
213.4298745394
  0
LINE
  5
2D0
100
AcDbEntity
  8
0
100
AcDbLine
 62
7
  6
CONTINUOUS
 10
314.5871698515
 20
213.4298745394
 11
315.780312385
 21
213.4298745394
  0
LINE
  5
2D1
100
AcDbEntity
  8
0
100
AcDbLine
 62
7
  6
CONTINUOUS
 10
316.9266650153
 20
213.4298745394
 11
318.1198075489
 21
213.4298745394
  0
LINE
  5
2D2
100
AcDbEntity
  8
0
100
AcDbLine
 62
7
  6
CONTINUOUS
 10
319.2661601792
 20
213.4298745394
 11
320.4593027128
 21
213.4298745394
  0
LINE
  5
2D3
100
AcDbEntity
  8
0
100
AcDbLine
 62
7
  6
CONTINUOUS
 10
259.1298619262
 20
213.6345872273
 11
322.1446816157
 21
213.6345872273
  0
LINE
  5
2D4
100
AcDbEntity
  8
0
100
AcDbLine
 62
7
  6
CONTINUOUS
 10
259.2898228019
 20
213.7108391204
 11
260.7870997068
 21
213.7108391204
  0
LINE
  5
2D5
100
AcDbEntity
  8
0
100
AcDbLine
 62
7
  6
CONTINUOUS
 10
281.1017709458
 20
228.4450486265
 11
280.9801264372
 21
228.6929342147
  0
LINE
  5
2D6
100
AcDbEntity
  8
0
100
AcDbLine
 62
7
  6
CONTINUOUS
 10
283.4412661097
 20
228.4450486265
 11
283.319621601
 21
228.6929342147
  0
LINE
  5
2D7
100
AcDbEntity
  8
0
100
AcDbLine
 62
7
  6
CONTINUOUS
 10
292.1161234172
 20
228.6929342147
 11
291.2501784633
 21
225.8907327143
  0
LINE
  5
2D8
100
AcDbEntity
  8
0
100
AcDbLine
 62
7
  6
CONTINUOUS
 10
287.7696313649
 20
213.6345872273
 11
287.7063704184
 21
213.4298745394
  0
LINE
  5
2D9
100
AcDbEntity
  8
0
100
AcDbLine
 62
7
  6
CONTINUOUS
 10
292.6776022566
 20
228.6929342147
 11
291.8116573027
 21
225.8907327143
  0
LINE
  5
2DA
100
AcDbEntity
  8
0
100
AcDbLine
 62
7
  6
CONTINUOUS
 10
292.0099041806
 20
225.8907327143
 11
292.7992467652
 21
228.4450486265
  0
LINE
  5
2DB
100
AcDbEntity
  8
0
100
AcDbLine
 62
7
  6
CONTINUOUS
 10
258.4512287944
 20
213.9647969245
 11
259.1062874403
 21
213.9647969245
  0
LINE
  5
2DC
100
AcDbEntity
  8
0
100
AcDbLine
 62
7
  6
CONTINUOUS
 10
260.6035643452
 20
213.9647969245
 11
319.9809514762
 21
213.9647969245
  0
LINE
  5
2DD
100
AcDbEntity
  8
0
100
AcDbLine
 62
7
  6
CONTINUOUS
 10
321.3826488313
 20
213.9647969245
 11
322.0854972521
 21
213.9647969245
  0
LINE
  5
2DE
100
AcDbEntity
  8
0
100
AcDbLine
 62
7
  6
CONTINUOUS
 10
259.5091252645
 20
214.4205028085
 11
260.3799365065
 21
214.4205028085
  0
LINE
  5
2DF
100
AcDbEntity
  8
0
100
AcDbLine
 62
7
  6
CONTINUOUS
 10
260.2684608421
 20
214.6476664589
 11
258.7711839373
 21
214.6476664589
  0
LINE
  5
2E0
100
AcDbEntity
  8
0
100
AcDbLine
 62
7
  6
CONTINUOUS
 10
257.3073117121
 20
215.3423776615
 11
321.8773782353
 21
215.3423776615
  0
LINE
  5
2E1
100
AcDbEntity
  8
0
100
AcDbLine
 62
7
  6
CONTINUOUS
 10
285.7807612736
 20
228.4450486265
 11
285.6591167649
 21
228.6929342147
  0
LINE
  5
2E2
100
AcDbEntity
  8
0
100
AcDbLine
 62
7
  6
CONTINUOUS
 10
294.4556185811
 20
228.6929342147
 11
293.5896736272
 21
225.8907327143
  0
LINE
  5
2E3
100
AcDbEntity
  8
0
100
AcDbLine
 62
7
  6
CONTINUOUS
 10
290.1091265288
 20
213.6345872273
 11
290.0458655823
 21
213.4298745394
  0
LINE
  5
2E4
100
AcDbEntity
  8
0
100
AcDbLine
 62
7
  6
CONTINUOUS
 10
295.0170974205
 20
228.6929342147
 11
294.1511524666
 21
225.8907327143
  0
LINE
  5
2E5
100
AcDbEntity
  8
0
100
AcDbLine
 62
7
  6
CONTINUOUS
 10
294.3493993445
 20
225.8907327143
 11
295.1387419291
 21
228.4450486265
  0
LINE
  5
2E6
100
AcDbEntity
  8
0
100
AcDbLine
 62
7
  6
CONTINUOUS
 10
296.795113745
 20
228.6929342147
 11
295.9291687911
 21
225.8907327143
  0
LINE
  5
2E7
100
AcDbEntity
  8
0
100
AcDbLine
 62
7
  6
CONTINUOUS
 10
292.4486216926
 20
213.6345872273
 11
292.3853607462
 21
213.4298745394
  0
LINE
  5
2E8
100
AcDbEntity
  8
0
100
AcDbLine
 62
7
  6
CONTINUOUS
 10
333.5217054061
 20
217.2316296014
 11
326.6786820517
 21
217.2316296014
  0
LINE
  5
2E9
100
AcDbEntity
  8
0
100
AcDbLine
 62
7
  6
CONTINUOUS
 10
257.8911341759
 20
217.2316296014
 11
255.2655921741
 21
217.2316296014
  0
LINE
  5
2EA
100
AcDbEntity
  8
0
100
AcDbLine
 62
7
  6
CONTINUOUS
 10
288.1202564374
 20
228.4450486265
 11
287.9986119288
 21
228.6929342147
  0
LINE
  5
2EB
100
AcDbEntity
  8
0
100
AcDbLine
 62
7
  6
CONTINUOUS
 10
297.3565925843
 20
228.6929342147
 11
296.4906476304
 21
225.8907327143
  0
LINE
  5
2EC
100
AcDbEntity
  8
0
100
AcDbLine
 62
7
  6
CONTINUOUS
 10
296.6888945084
 20
225.8907327143
 11
297.478237093
 21
228.4450486265
  0
LINE
  5
2ED
100
AcDbEntity
  8
0
100
AcDbLine
 62
7
  6
CONTINUOUS
 10
299.1346089089
 20
228.6929342147
 11
298.268663955
 21
225.8907327143
  0
LINE
  5
2EE
100
AcDbEntity
  8
0
100
AcDbLine
 62
7
  6
CONTINUOUS
 10
294.7881168565
 20
213.6345872273
 11
294.7248559101
 21
213.4298745394
  0
LINE
  5
2EF
100
AcDbEntity
  8
0
100
AcDbLine
 62
7
  6
CONTINUOUS
 10
299.6960877482
 20
228.6929342147
 11
298.8301427943
 21
225.8907327143
  0
LINE
  5
2F0
100
AcDbEntity
  8
0
100
AcDbLine
 62
7
  6
CONTINUOUS
 10
299.0283896723
 20
225.8907327143
 11
299.8177322569
 21
228.4450486265
  0
LINE
  5
2F1
100
AcDbEntity
  8
0
100
AcDbLine
 62
7
  6
CONTINUOUS
 10
334.4077799848
 20
221.9069321783
 11
334.2580943844
 21
221.9069321783
  0
LINE
  5
2F2
100
AcDbEntity
  8
0
100
AcDbLine
 62
7
  6
CONTINUOUS
 10
331.1972880437
 20
221.9682968917
 11
324.3542646893
 21
221.9682968917
  0
LINE
  5
2F3
100
AcDbEntity
  8
0
100
AcDbLine
 62
7
  6
CONTINUOUS
 10
259.3548737171
 20
221.9682968917
 11
252.9411748118
 21
221.9682968917
  0
LINE
  5
2F4
100
AcDbEntity
  8
0
100
AcDbLine
 62
7
  6
CONTINUOUS
 10
290.4597516013
 20
228.4450486265
 11
290.3381070927
 21
228.6929342147
  0
LINE
  5
2F5
100
AcDbEntity
  8
0
100
AcDbLine
 62
7
  6
CONTINUOUS
 10
292.7992467652
 20
228.4450486265
 11
292.6776022566
 21
228.6929342147
  0
LINE
  5
2F6
100
AcDbEntity
  8
0
100
AcDbLine
 62
7
  6
CONTINUOUS
 10
301.4741040728
 20
228.6929342147
 11
300.6081591189
 21
225.8907327143
  0
LINE
  5
2F7
100
AcDbEntity
  8
0
100
AcDbLine
 62
7
  6
CONTINUOUS
 10
297.1276120204
 20
213.6345872273
 11
297.064351074
 21
213.4298745394
  0
LINE
  5
2F8
100
AcDbEntity
  8
0
100
AcDbLine
 62
7
  6
CONTINUOUS
 10
302.0355829121
 20
228.6929342147
 11
301.1696379582
 21
225.8907327143
  0
LINE
  5
2F9
100
AcDbEntity
  8
0
100
AcDbLine
 62
7
  6
CONTINUOUS
 10
301.3678848362
 20
225.8907327143
 11
302.1572274207
 21
228.4450486265
  0
LINE
  5
2FA
100
AcDbEntity
  8
0
100
AcDbLine
 62
7
  6
CONTINUOUS
 10
259.4592794071
 20
222.3061541423
 11
324.0293459303
 21
222.3061541423
  0
LINE
  5
2FB
100
AcDbEntity
  8
0
100
AcDbLine
 62
7
  6
CONTINUOUS
 10
334.8573756835
 20
222.6162668243
 11
333.9026401038
 21
222.6162668243
  0
LINE
  5
2FC
100
AcDbEntity
  8
0
100
AcDbLine
 62
7
  6
CONTINUOUS
 10
295.1387419291
 20
228.4450486265
 11
295.0170974205
 21
228.6929342147
  0
LINE
  5
2FD
100
AcDbEntity
  8
0
100
AcDbLine
 62
7
  6
CONTINUOUS
 10
303.8135992367
 20
228.6929342147
 11
302.9476542828
 21
225.8907327143
  0
LINE
  5
2FE
100
AcDbEntity
  8
0
100
AcDbLine
 62
7
  6
CONTINUOUS
 10
299.4671071843
 20
213.6345872273
 11
299.4038462378
 21
213.4298745394
  0
LINE
  5
2FF
100
AcDbEntity
  8
0
100
AcDbLine
 62
7
  6
CONTINUOUS
 10
304.375078076
 20
228.6929342147
 11
303.5091331221
 21
225.8907327143
  0
LINE
  5
300
100
AcDbEntity
  8
0
100
AcDbLine
 62
7
  6
CONTINUOUS
 10
303.7073800001
 20
225.8907327143
 11
304.4967225846
 21
228.4450486265
  0
LINE
  5
301
100
AcDbEntity
  8
0
100
AcDbLine
 62
7
  6
CONTINUOUS
 10
306.1530944006
 20
228.6929342147
 11
305.2871494467
 21
225.8907327143
  0
LINE
  5
302
100
AcDbEntity
  8
0
100
AcDbLine
 62
7
  6
CONTINUOUS
 10
264.2749446673
 20
225.8907327143
 11
322.0604752153
 21
225.8907327143
  0
LINE
  5
303
100
AcDbEntity
  8
0
100
AcDbLine
 62
7
  6
CONTINUOUS
 10
332.7344078259
 20
226.9424229495
 11
324.6046621314
 21
226.9424229495
  0
LINE
  5
304
100
AcDbEntity
  8
0
100
AcDbLine
 62
7
  6
CONTINUOUS
 10
254.4782945939
 20
226.9424229495
 11
262.4943955813
 21
226.9424229495
  0
LINE
  5
305
100
AcDbEntity
  8
0
100
AcDbLine
 62
7
  6
CONTINUOUS
 10
324.5349296105
 20
227.0845229682
 11
322.7803082376
 21
227.0845229682
  0
LINE
  5
306
100
AcDbEntity
  8
0
100
AcDbLine
 62
7
  6
CONTINUOUS
 10
262.5383077675
 20
227.0845229682
 11
264.2929291404
 21
227.0845229682
  0
LINE
  5
307
100
AcDbEntity
  8
0
100
AcDbLine
 62
7
  6
CONTINUOUS
 10
297.478237093
 20
228.4450486265
 11
297.3565925843
 21
228.6929342147
  0
LINE
  5
308
100
AcDbEntity
  8
0
100
AcDbLine
 62
7
  6
CONTINUOUS
 10
301.8066023482
 20
213.6345872273
 11
301.7433414017
 21
213.4298745394
  0
LINE
  5
309
100
AcDbEntity
  8
0
100
AcDbLine
 62
7
  6
CONTINUOUS
 10
306.7145732399
 20
228.6929342147
 11
305.848628286
 21
225.8907327143
  0
LINE
  5
30A
100
AcDbEntity
  8
0
100
AcDbLine
 62
7
  6
CONTINUOUS
 10
306.0468751639
 20
225.8907327143
 11
306.8362177485
 21
228.4450486265
  0
LINE
  5
30B
100
AcDbEntity
  8
0
100
AcDbLine
 62
7
  6
CONTINUOUS
 10
308.4925895644
 20
228.6929342147
 11
307.6266446105
 21
225.8907327143
  0
LINE
  5
30C
100
AcDbEntity
  8
0
100
AcDbLine
 62
7
  6
CONTINUOUS
 10
304.1460975121
 20
213.6345872273
 11
304.0828365656
 21
213.4298745394
  0
LINE
  5
30D
100
AcDbEntity
  8
0
100
AcDbLine
 62
7
  6
CONTINUOUS
 10
309.0540684038
 20
228.6929342147
 11
308.1881234499
 21
225.8907327143
  0
LINE
  5
30E
100
AcDbEntity
  8
0
100
AcDbLine
 62
7
  6
CONTINUOUS
 10
266.3816766145
 20
228.6929342147
 11
266.9431554538
 21
228.6929342147
  0
LINE
  5
30F
100
AcDbEntity
  8
0
100
AcDbLine
 62
7
  6
CONTINUOUS
 10
268.7211717784
 20
228.6929342147
 11
269.2826506177
 21
228.6929342147
  0
LINE
  5
310
100
AcDbEntity
  8
0
100
AcDbLine
 62
7
  6
CONTINUOUS
 10
271.0606669423
 20
228.6929342147
 11
271.6221457816
 21
228.6929342147
  0
LINE
  5
311
100
AcDbEntity
  8
0
100
AcDbLine
 62
7
  6
CONTINUOUS
 10
273.4001621062
 20
228.6929342147
 11
273.9616409455
 21
228.6929342147
  0
LINE
  5
312
100
AcDbEntity
  8
0
100
AcDbLine
 62
7
  6
CONTINUOUS
 10
275.73965727
 20
228.6929342147
 11
276.3011361094
 21
228.6929342147
  0
LINE
  5
313
100
AcDbEntity
  8
0
100
AcDbLine
 62
7
  6
CONTINUOUS
 10
278.0791524339
 20
228.6929342147
 11
278.6406312733
 21
228.6929342147
  0
LINE
  5
314
100
AcDbEntity
  8
0
100
AcDbLine
 62
7
  6
CONTINUOUS
 10
280.4186475978
 20
228.6929342147
 11
280.9801264372
 21
228.6929342147
  0
LINE
  5
315
100
AcDbEntity
  8
0
100
AcDbLine
 62
7
  6
CONTINUOUS
 10
282.7581427617
 20
228.6929342147
 11
283.319621601
 21
228.6929342147
  0
LINE
  5
316
100
AcDbEntity
  8
0
100
AcDbLine
 62
7
  6
CONTINUOUS
 10
285.0976379256
 20
228.6929342147
 11
285.6591167649
 21
228.6929342147
  0
LINE
  5
317
100
AcDbEntity
  8
0
100
AcDbLine
 62
7
  6
CONTINUOUS
 10
287.4371330895
 20
228.6929342147
 11
287.9986119288
 21
228.6929342147
  0
LINE
  5
318
100
AcDbEntity
  8
0
100
AcDbLine
 62
7
  6
CONTINUOUS
 10
289.7766282534
 20
228.6929342147
 11
290.3381070927
 21
228.6929342147
  0
LINE
  5
319
100
AcDbEntity
  8
0
100
AcDbLine
 62
7
  6
CONTINUOUS
 10
292.1161234172
 20
228.6929342147
 11
292.6776022566
 21
228.6929342147
  0
LINE
  5
31A
100
AcDbEntity
  8
0
100
AcDbLine
 62
7
  6
CONTINUOUS
 10
294.4556185811
 20
228.6929342147
 11
295.0170974205
 21
228.6929342147
  0
LINE
  5
31B
100
AcDbEntity
  8
0
100
AcDbLine
 62
7
  6
CONTINUOUS
 10
296.795113745
 20
228.6929342147
 11
297.3565925843
 21
228.6929342147
  0
LINE
  5
31C
100
AcDbEntity
  8
0
100
AcDbLine
 62
7
  6
CONTINUOUS
 10
299.1346089089
 20
228.6929342147
 11
299.6960877482
 21
228.6929342147
  0
LINE
  5
31D
100
AcDbEntity
  8
0
100
AcDbLine
 62
7
  6
CONTINUOUS
 10
301.4741040728
 20
228.6929342147
 11
302.0355829121
 21
228.6929342147
  0
LINE
  5
31E
100
AcDbEntity
  8
0
100
AcDbLine
 62
7
  6
CONTINUOUS
 10
303.8135992367
 20
228.6929342147
 11
304.375078076
 21
228.6929342147
  0
LINE
  5
31F
100
AcDbEntity
  8
0
100
AcDbLine
 62
7
  6
CONTINUOUS
 10
306.1530944006
 20
228.6929342147
 11
306.7145732399
 21
228.6929342147
  0
LINE
  5
320
100
AcDbEntity
  8
0
100
AcDbLine
 62
7
  6
CONTINUOUS
 10
308.4925895644
 20
228.6929342147
 11
309.0540684038
 21
228.6929342147
  0
LINE
  5
321
100
AcDbEntity
  8
0
100
AcDbLine
 62
7
  6
CONTINUOUS
 10
310.8320847283
 20
228.6929342147
 11
311.3935635677
 21
228.6929342147
  0
LINE
  5
322
100
AcDbEntity
  8
0
100
AcDbLine
 62
7
  6
CONTINUOUS
 10
313.1715798922
 20
228.6929342147
 11
313.7330587315
 21
228.6929342147
  0
LINE
  5
323
100
AcDbEntity
  8
0
100
AcDbLine
 62
7
  6
CONTINUOUS
 10
315.5110750561
 20
228.6929342147
 11
316.0725538954
 21
228.6929342147
  0
LINE
  5
324
100
AcDbEntity
  8
0
100
AcDbLine
 62
7
  6
CONTINUOUS
 10
317.85057022
 20
228.6929342147
 11
318.4120490593
 21
228.6929342147
  0
LINE
  5
325
100
AcDbEntity
  8
0
100
AcDbLine
 62
7
  6
CONTINUOUS
 10
320.1900653839
 20
228.6929342147
 11
320.7515442232
 21
228.6929342147
  0
LINE
  5
326
100
AcDbEntity
  8
0
100
AcDbLine
 62
7
  6
CONTINUOUS
 10
322.5295605477
 20
228.6929342147
 11
323.0910393871
 21
228.6929342147
  0
LINE
  5
327
100
AcDbEntity
  8
0
100
AcDbLine
 62
7
  6
CONTINUOUS
 10
299.8177322569
 20
228.4450486265
 11
299.6960877482
 21
228.6929342147
  0
LINE
  5
328
100
AcDbEntity
  8
0
100
AcDbLine
 62
7
  6
CONTINUOUS
 10
302.1572274207
 20
228.4450486265
 11
302.0355829121
 21
228.6929342147
  0
LINE
  5
329
100
AcDbEntity
  8
0
100
AcDbLine
 62
7
  6
CONTINUOUS
 10
308.3863703278
 20
225.8907327143
 11
309.1757129124
 21
228.4450486265
  0
LINE
  5
32A
100
AcDbEntity
  8
0
100
AcDbLine
 62
7
  6
CONTINUOUS
 10
310.8320847283
 20
228.6929342147
 11
309.9661397744
 21
225.8907327143
  0
LINE
  5
32B
100
AcDbEntity
  8
0
100
AcDbLine
 62
7
  6
CONTINUOUS
 10
306.4855926759
 20
213.6345872273
 11
306.4223317295
 21
213.4298745394
  0
LINE
  5
32C
100
AcDbEntity
  8
0
100
AcDbLine
 62
7
  6
CONTINUOUS
 10
311.3935635677
 20
228.6929342147
 11
310.5276186138
 21
225.8907327143
  0
LINE
  5
32D
100
AcDbEntity
  8
0
100
AcDbLine
 62
7
  6
CONTINUOUS
 10
310.7258654917
 20
225.8907327143
 11
311.5152080763
 21
228.4450486265
  0
LINE
  5
32E
100
AcDbEntity
  8
0
100
AcDbLine
 62
7
  6
CONTINUOUS
 10
304.4967225846
 20
228.4450486265
 11
304.375078076
 21
228.6929342147
  0
LINE
  5
32F
100
AcDbEntity
  8
0
100
AcDbLine
 62
7
  6
CONTINUOUS
 10
313.1715798922
 20
228.6929342147
 11
312.3056349383
 21
225.8907327143
  0
LINE
  5
330
100
AcDbEntity
  8
0
100
AcDbLine
 62
7
  6
CONTINUOUS
 10
308.8250878398
 20
213.6345872273
 11
308.7618268934
 21
213.4298745394
  0
LINE
  5
331
100
AcDbEntity
  8
0
100
AcDbLine
 62
7
  6
CONTINUOUS
 10
313.7330587315
 20
228.6929342147
 11
312.8671137776
 21
225.8907327143
  0
LINE
  5
332
100
AcDbEntity
  8
0
100
AcDbLine
 62
7
  6
CONTINUOUS
 10
313.0653606556
 20
225.8907327143
 11
313.8547032402
 21
228.4450486265
  0
LINE
  5
333
100
AcDbEntity
  8
0
100
AcDbLine
 62
7
  6
CONTINUOUS
 10
306.8362177485
 20
228.4450486265
 11
306.7145732399
 21
228.6929342147
  0
LINE
  5
334
100
AcDbEntity
  8
0
100
AcDbLine
 62
7
  6
CONTINUOUS
 10
315.5110750561
 20
228.6929342147
 11
314.6451301022
 21
225.8907327143
  0
LINE
  5
335
100
AcDbEntity
  8
0
100
AcDbLine
 62
7
  6
CONTINUOUS
 10
311.1645830037
 20
213.6345872273
 11
311.1013220573
 21
213.4298745394
  0
LINE
  5
336
100
AcDbEntity
  8
0
100
AcDbLine
 62
7
  6
CONTINUOUS
 10
316.0725538954
 20
228.6929342147
 11
315.2066089415
 21
225.8907327143
  0
LINE
  5
337
100
AcDbEntity
  8
0
100
AcDbLine
 62
7
  6
CONTINUOUS
 10
315.4048558195
 20
225.8907327143
 11
316.1941984041
 21
228.4450486265
  0
LINE
  5
338
100
AcDbEntity
  8
0
100
AcDbLine
 62
7
  6
CONTINUOUS
 10
317.85057022
 20
228.6929342147
 11
316.9846252661
 21
225.8907327143
  0
LINE
  5
339
100
AcDbEntity
  8
0
100
AcDbLine
 62
7
  6
CONTINUOUS
 10
309.1757129124
 20
228.4450486265
 11
309.0540684038
 21
228.6929342147
  0
LINE
  5
33A
100
AcDbEntity
  8
0
100
AcDbLine
 62
7
  6
CONTINUOUS
 10
311.5152080763
 20
228.4450486265
 11
311.3935635677
 21
228.6929342147
  0
LINE
  5
33B
100
AcDbEntity
  8
0
100
AcDbLine
 62
7
  6
CONTINUOUS
 10
313.5040781676
 20
213.6345872273
 11
313.4408172211
 21
213.4298745394
  0
LINE
  5
33C
100
AcDbEntity
  8
0
100
AcDbLine
 62
7
  6
CONTINUOUS
 10
318.4120490593
 20
228.6929342147
 11
317.5461041054
 21
225.8907327143
  0
LINE
  5
33D
100
AcDbEntity
  8
0
100
AcDbLine
 62
7
  6
CONTINUOUS
 10
317.7443509834
 20
225.8907327143
 11
318.5336935679
 21
228.4450486265
  0
LINE
  5
33E
100
AcDbEntity
  8
0
100
AcDbLine
 62
7
  6
CONTINUOUS
 10
320.1900653839
 20
228.6929342147
 11
319.32412043
 21
225.8907327143
  0
LINE
  5
33F
100
AcDbEntity
  8
0
100
AcDbLine
 62
7
  6
CONTINUOUS
 10
315.8435733315
 20
213.6345872273
 11
315.780312385
 21
213.4298745394
  0
LINE
  5
340
100
AcDbEntity
  8
0
100
AcDbLine
 62
7
  6
CONTINUOUS
 10
320.7515442232
 20
228.6929342147
 11
319.8855992693
 21
225.8907327143
  0
LINE
  5
341
100
AcDbEntity
  8
0
100
AcDbLine
 62
7
  6
CONTINUOUS
 10
313.8547032402
 20
228.4450486265
 11
313.7330587315
 21
228.6929342147
  0
LINE
  5
342
100
AcDbEntity
  8
0
100
AcDbLine
 62
7
  6
CONTINUOUS
 10
321.798579024
 20
213.6345872273
 11
322.0850746278
 21
213.0507702342
  0
LINE
  5
343
100
AcDbEntity
  8
0
100
AcDbLine
 62
7
  6
CONTINUOUS
 10
320.0838461473
 20
225.8907327143
 11
320.8731887318
 21
228.4450486265
  0
LINE
  5
344
100
AcDbEntity
  8
0
100
AcDbLine
 62
7
  6
CONTINUOUS
 10
322.5295605477
 20
228.6929342147
 11
321.6636155939
 21
225.8907327143
  0
LINE
  5
345
100
AcDbEntity
  8
0
100
AcDbLine
 62
7
  6
CONTINUOUS
 10
318.1830684954
 20
213.6345872273
 11
318.1198075489
 21
213.4298745394
  0
LINE
  5
346
100
AcDbEntity
  8
0
100
AcDbLine
 62
7
  6
CONTINUOUS
 10
323.0910393871
 20
228.6929342147
 11
322.2374402773
 21
225.9306839175
  0
LINE
  5
347
100
AcDbEntity
  8
0
100
AcDbLine
 62
7
  6
CONTINUOUS
 10
322.7803082376
 20
227.0845229682
 11
322.5036266768
 21
226.1891802778
  0
LINE
  5
348
100
AcDbEntity
  8
0
100
AcDbLine
 62
7
  6
CONTINUOUS
 10
322.79120908
 20
227.0811543562
 11
323.2126838957
 21
228.4450486265
  0
LINE
  5
349
100
AcDbEntity
  8
0
100
AcDbLine
 62
7
  6
CONTINUOUS
 10
322.0854972521
 20
213.9647969245
 11
323.5847464509
 21
210.9096465223
  0
LINE
  5
34A
100
AcDbEntity
  8
0
100
AcDbLine
 62
7
  6
CONTINUOUS
 10
321.8773782353
 20
215.3423776615
 11
324.7286635332
 21
209.5320657853
  0
LINE
  5
34B
100
AcDbEntity
  8
0
100
AcDbLine
 62
7
  6
CONTINUOUS
 10
316.1941984041
 20
228.4450486265
 11
316.0725538954
 21
228.6929342147
  0
LINE
  5
34C
100
AcDbEntity
  8
0
100
AcDbLine
 62
7
  6
CONTINUOUS
 10
321.3826488313
 20
213.9647969245
 11
321.3716028345
 21
213.9044404886
  0
LINE
  5
34D
100
AcDbEntity
  8
0
100
AcDbLine
 62
7
  6
CONTINUOUS
 10
323.0583033322
 20
222.3061541423
 11
324.5349296105
 21
227.0845229682
  0
LINE
  5
34E
100
AcDbEntity
  8
0
100
AcDbLine
 62
7
  6
CONTINUOUS
 10
324.6046621314
 20
226.9424229495
 11
323.1719480393
 21
222.3061541423
  0
LINE
  5
34F
100
AcDbEntity
  8
0
100
AcDbLine
 62
7
  6
CONTINUOUS
 10
320.5225636593
 20
213.6345872273
 11
320.4593027128
 21
213.4298745394
  0
LINE
  5
350
100
AcDbEntity
  8
0
100
AcDbLine
 62
7
  6
CONTINUOUS
 10
324.0293459303
 20
222.3061541423
 11
321.8773782353
 21
215.3423776615
  0
LINE
  5
351
100
AcDbEntity
  8
0
100
AcDbLine
 62
7
  6
CONTINUOUS
 10
324.3542646893
 20
221.9682968917
 11
324.2927798981
 21
221.7693318494
  0
LINE
  5
352
100
AcDbEntity
  8
0
100
AcDbLine
 62
7
  6
CONTINUOUS
 10
318.5336935679
 20
228.4450486265
 11
318.4120490593
 21
228.6929342147
  0
LINE
  5
353
100
AcDbEntity
  8
0
100
AcDbLine
 62
7
  6
CONTINUOUS
 10
320.8731887318
 20
228.4450486265
 11
320.7515442232
 21
228.6929342147
  0
LINE
  5
354
100
AcDbEntity
  8
0
100
AcDbLine
 62
7
  6
CONTINUOUS
 10
326.8806312282
 20
216.4958422662
 11
326.6171972605
 21
217.0326645591
  0
LINE
  5
355
100
AcDbEntity
  8
0
100
AcDbLine
 62
7
  6
CONTINUOUS
 10
324.2927798981
 20
221.7693318494
 11
324.0293459303
 21
222.3061541423
  0
LINE
  5
356
100
AcDbEntity
  8
0
100
AcDbLine
 62
7
  6
CONTINUOUS
 10
326.6786820517
 20
217.2316296014
 11
324.3542646893
 21
221.9682968917
  0
LINE
  5
357
100
AcDbEntity
  8
0
100
AcDbLine
 62
7
  6
CONTINUOUS
 10
323.2126838957
 20
228.4450486265
 11
323.0910393871
 21
228.6929342147
  0
LINE
  5
358
100
AcDbEntity
  8
0
100
AcDbLine
 62
7
  6
CONTINUOUS
 10
324.5349296105
 20
227.0845229682
 11
324.6046621314
 21
226.9424229495
  0
LINE
  5
359
100
AcDbEntity
  8
0
100
AcDbLine
 62
7
  6
CONTINUOUS
 10
326.6786820517
 20
217.2316296014
 11
326.6171972605
 21
217.0326645591
  0
LINE
  5
35A
100
AcDbEntity
  8
0
100
AcDbLine
 62
7
  6
CONTINUOUS
 10
324.7286635332
 20
209.5320657853
 11
326.8806312282
 21
216.4958422662
  0
LINE
  5
35B
100
AcDbEntity
  8
0
100
AcDbLine
 62
7
  6
CONTINUOUS
 10
334.8573756835
 20
222.6162668243
 11
334.4077799848
 21
221.9069321783
  0
LINE
  5
35C
100
AcDbEntity
  8
0
100
AcDbLine
 62
7
  6
CONTINUOUS
 10
332.7344078259
 20
226.9424229495
 11
331.1972880437
 21
221.9682968917
  0
LINE
  5
35D
100
AcDbEntity
  8
0
100
AcDbLine
 62
7
  6
CONTINUOUS
 10
333.5217054061
 20
217.2316296014
 11
331.1972880437
 21
221.9682968917
  0
LINE
  5
35E
100
AcDbEntity
  8
0
100
AcDbLine
 62
7
  6
CONTINUOUS
 10
332.7690027963
 20
225.2464108927
 11
332.9358573306
 21
226.5319117843
  0
LINE
  5
35F
100
AcDbEntity
  8
0
100
AcDbLine
 62
7
  6
CONTINUOUS
 10
333.5217054061
 20
217.2316296014
 11
335.0588251882
 21
222.2057556591
  0
LINE
  5
360
100
AcDbEntity
  8
0
100
AcDbLine
 62
7
  6
CONTINUOUS
 10
334.2378844614
 20
221.9331102582
 11
332.8175310572
 21
224.8274878426
  0
LINE
  5
361
100
AcDbEntity
  8
0
100
AcDbLine
 62
7
  6
CONTINUOUS
 10
335.0588251882
 20
222.2057556591
 11
334.8573756835
 21
222.6162668243
  0
LINE
  5
362
100
AcDbEntity
  8
0
100
AcDbLine
 62
7
  6
CONTINUOUS
 10
332.9358573306
 20
226.5319117843
 11
332.7344078259
 21
226.9424229495
  0
LINE
  5
363
100
AcDbEntity
  8
0
100
AcDbLine
 62
7
  6
CONTINUOUS
 10
73.0185
 20
93.5025
 11
73.0185
 21
101.1225
  0
LINE
  5
364
100
AcDbEntity
  8
0
100
AcDbLine
 62
7
  6
CONTINUOUS
 10
80.448
 20
101.9861
 11
80.448
 21
92.6389
  0
LINE
  5
365
100
AcDbEntity
  8
0
100
AcDbLine
 62
7
  6
CONTINUOUS
 10
80.956
 20
94.85505
 11
80.956
 21
99.76995
  0
LINE
  5
366
100
AcDbEntity
  8
0
100
AcDbLine
 62
7
  6
CONTINUOUS
 10
81.6672
 20
100.8685
 11
81.6672
 21
99.2429
  0
LINE
  5
367
100
AcDbEntity
  8
0
100
AcDbLine
 62
7
  6
CONTINUOUS
 10
82.48
 20
98.24595
 11
82.48
 21
96.37905
  0
LINE
  5
368
100
AcDbEntity
  8
0
100
AcDbLine
 62
7
  6
CONTINUOUS
 10
83.2928
 20
99.2429
 11
83.2928
 21
100.8685
  0
LINE
  5
369
100
AcDbEntity
  8
0
100
AcDbLine
 62
7
  6
CONTINUOUS
 10
84.3723
 20
98.24595
 11
84.3723
 21
97.5924248021
  0
LINE
  5
36A
100
AcDbEntity
  8
0
100
AcDbLine
 62
7
  6
CONTINUOUS
 10
84.3723
 20
97.0325751979
 11
84.3723
 21
96.37905
  0
LINE
  5
36B
100
AcDbEntity
  8
0
100
AcDbLine
 62
7
  6
CONTINUOUS
 10
85.6677
 20
98.24595
 11
85.6677
 21
97.5924248021
  0
LINE
  5
36C
100
AcDbEntity
  8
0
100
AcDbLine
 62
7
  6
CONTINUOUS
 10
85.6677
 20
97.0325751979
 11
85.6677
 21
96.37905
  0
LINE
  5
36D
100
AcDbEntity
  8
0
100
AcDbLine
 62
7
  6
CONTINUOUS
 10
86.9123
 20
98.24595
 11
86.9123
 21
97.5924248021
  0
LINE
  5
36E
100
AcDbEntity
  8
0
100
AcDbLine
 62
7
  6
CONTINUOUS
 10
86.9123
 20
97.0325751979
 11
86.9123
 21
96.37905
  0
LINE
  5
36F
100
AcDbEntity
  8
0
100
AcDbLine
 62
7
  6
CONTINUOUS
 10
88.2077
 20
98.24595
 11
88.2077
 21
97.5924248021
  0
LINE
  5
370
100
AcDbEntity
  8
0
100
AcDbLine
 62
7
  6
CONTINUOUS
 10
88.2077
 20
97.0325751979
 11
88.2077
 21
96.37905
  0
LINE
  5
371
100
AcDbEntity
  8
0
100
AcDbLine
 62
7
  6
CONTINUOUS
 10
89.4523
 20
98.24595
 11
89.4523
 21
97.5924248021
  0
LINE
  5
372
100
AcDbEntity
  8
0
100
AcDbLine
 62
7
  6
CONTINUOUS
 10
89.4523
 20
97.0325751979
 11
89.4523
 21
96.37905
  0
LINE
  5
373
100
AcDbEntity
  8
0
100
AcDbLine
 62
7
  6
CONTINUOUS
 10
90.7477
 20
98.24595
 11
90.7477
 21
97.5924248021
  0
LINE
  5
374
100
AcDbEntity
  8
0
100
AcDbLine
 62
7
  6
CONTINUOUS
 10
90.7477
 20
97.0325751979
 11
90.7477
 21
96.37905
  0
LINE
  5
375
100
AcDbEntity
  8
0
100
AcDbLine
 62
7
  6
CONTINUOUS
 10
91.9923
 20
98.24595
 11
91.9923
 21
97.5924248021
  0
LINE
  5
376
100
AcDbEntity
  8
0
100
AcDbLine
 62
7
  6
CONTINUOUS
 10
91.9923
 20
97.0325751979
 11
91.9923
 21
96.37905
  0
LINE
  5
377
100
AcDbEntity
  8
0
100
AcDbLine
 62
7
  6
CONTINUOUS
 10
93.2877
 20
98.24595
 11
93.2877
 21
97.5924248021
  0
LINE
  5
378
100
AcDbEntity
  8
0
100
AcDbLine
 62
7
  6
CONTINUOUS
 10
93.2877
 20
97.0325751979
 11
93.2877
 21
96.37905
  0
LINE
  5
379
100
AcDbEntity
  8
0
100
AcDbLine
 62
7
  6
CONTINUOUS
 10
94.5323
 20
98.24595
 11
94.5323
 21
97.5924248021
  0
LINE
  5
37A
100
AcDbEntity
  8
0
100
AcDbLine
 62
7
  6
CONTINUOUS
 10
94.5323
 20
97.0325751979
 11
94.5323
 21
96.37905
  0
LINE
  5
37B
100
AcDbEntity
  8
0
100
AcDbLine
 62
7
  6
CONTINUOUS
 10
95.8277
 20
98.24595
 11
95.8277
 21
97.5924248021
  0
LINE
  5
37C
100
AcDbEntity
  8
0
100
AcDbLine
 62
7
  6
CONTINUOUS
 10
95.8277
 20
97.0325751979
 11
95.8277
 21
96.37905
  0
LINE
  5
37D
100
AcDbEntity
  8
0
100
AcDbLine
 62
7
  6
CONTINUOUS
 10
97.0723
 20
98.24595
 11
97.0723
 21
97.5924248021
  0
LINE
  5
37E
100
AcDbEntity
  8
0
100
AcDbLine
 62
7
  6
CONTINUOUS
 10
97.0723
 20
97.0325751979
 11
97.0723
 21
96.37905
  0
LINE
  5
37F
100
AcDbEntity
  8
0
100
AcDbLine
 62
7
  6
CONTINUOUS
 10
98.3677
 20
98.24595
 11
98.3677
 21
97.5924248021
  0
LINE
  5
380
100
AcDbEntity
  8
0
100
AcDbLine
 62
7
  6
CONTINUOUS
 10
98.3677
 20
97.0325751979
 11
98.3677
 21
96.37905
  0
LINE
  5
381
100
AcDbEntity
  8
0
100
AcDbLine
 62
7
  6
CONTINUOUS
 10
99.6123
 20
98.24595
 11
99.6123
 21
97.5924248021
  0
LINE
  5
382
100
AcDbEntity
  8
0
100
AcDbLine
 62
7
  6
CONTINUOUS
 10
99.6123
 20
97.0325751979
 11
99.6123
 21
96.37905
  0
LINE
  5
383
100
AcDbEntity
  8
0
100
AcDbLine
 62
7
  6
CONTINUOUS
 10
100.9077
 20
98.24595
 11
100.9077
 21
97.5924248021
  0
LINE
  5
384
100
AcDbEntity
  8
0
100
AcDbLine
 62
7
  6
CONTINUOUS
 10
100.9077
 20
97.0325751979
 11
100.9077
 21
96.37905
  0
LINE
  5
385
100
AcDbEntity
  8
0
100
AcDbLine
 62
7
  6
CONTINUOUS
 10
102.1523
 20
98.24595
 11
102.1523
 21
97.5924248021
  0
LINE
  5
386
100
AcDbEntity
  8
0
100
AcDbLine
 62
7
  6
CONTINUOUS
 10
102.1523
 20
97.0325751979
 11
102.1523
 21
96.37905
  0
LINE
  5
387
100
AcDbEntity
  8
0
100
AcDbLine
 62
7
  6
CONTINUOUS
 10
103.4477
 20
98.24595
 11
103.4477
 21
97.5924248021
  0
LINE
  5
388
100
AcDbEntity
  8
0
100
AcDbLine
 62
7
  6
CONTINUOUS
 10
103.4477
 20
97.0325751979
 11
103.4477
 21
96.37905
  0
LINE
  5
389
100
AcDbEntity
  8
0
100
AcDbLine
 62
7
  6
CONTINUOUS
 10
104.6923
 20
98.24595
 11
104.6923
 21
97.5924248021
  0
LINE
  5
38A
100
AcDbEntity
  8
0
100
AcDbLine
 62
7
  6
CONTINUOUS
 10
104.6923
 20
97.0325751979
 11
104.6923
 21
96.37905
  0
LINE
  5
38B
100
AcDbEntity
  8
0
100
AcDbLine
 62
7
  6
CONTINUOUS
 10
105.9877
 20
98.24595
 11
105.9877
 21
97.5924248021
  0
LINE
  5
38C
100
AcDbEntity
  8
0
100
AcDbLine
 62
7
  6
CONTINUOUS
 10
105.9877
 20
97.0325751979
 11
105.9877
 21
96.37905
  0
LINE
  5
38D
100
AcDbEntity
  8
0
100
AcDbLine
 62
7
  6
CONTINUOUS
 10
107.2323
 20
98.24595
 11
107.2323
 21
97.5924248021
  0
LINE
  5
38E
100
AcDbEntity
  8
0
100
AcDbLine
 62
7
  6
CONTINUOUS
 10
107.2323
 20
97.0325751979
 11
107.2323
 21
96.37905
  0
LINE
  5
38F
100
AcDbEntity
  8
0
100
AcDbLine
 62
7
  6
CONTINUOUS
 10
108.5277
 20
98.24595
 11
108.5277
 21
97.5924248021
  0
LINE
  5
390
100
AcDbEntity
  8
0
100
AcDbLine
 62
7
  6
CONTINUOUS
 10
108.5277
 20
97.0325751979
 11
108.5277
 21
96.37905
  0
LINE
  5
391
100
AcDbEntity
  8
0
100
AcDbLine
 62
7
  6
CONTINUOUS
 10
109.7723
 20
98.24595
 11
109.7723
 21
97.5924248021
  0
LINE
  5
392
100
AcDbEntity
  8
0
100
AcDbLine
 62
7
  6
CONTINUOUS
 10
109.7723
 20
97.0325751979
 11
109.7723
 21
96.37905
  0
LINE
  5
393
100
AcDbEntity
  8
0
100
AcDbLine
 62
7
  6
CONTINUOUS
 10
111.0677
 20
98.24595
 11
111.0677
 21
97.5924248021
  0
LINE
  5
394
100
AcDbEntity
  8
0
100
AcDbLine
 62
7
  6
CONTINUOUS
 10
111.0677
 20
97.0325751979
 11
111.0677
 21
96.37905
  0
LINE
  5
395
100
AcDbEntity
  8
0
100
AcDbLine
 62
7
  6
CONTINUOUS
 10
112.3123
 20
98.24595
 11
112.3123
 21
97.5924248021
  0
LINE
  5
396
100
AcDbEntity
  8
0
100
AcDbLine
 62
7
  6
CONTINUOUS
 10
112.3123
 20
97.0325751979
 11
112.3123
 21
96.37905
  0
LINE
  5
397
100
AcDbEntity
  8
0
100
AcDbLine
 62
7
  6
CONTINUOUS
 10
80.448
 20
92.6389
 11
150.552
 21
92.6389
  0
LINE
  5
398
100
AcDbEntity
  8
0
100
AcDbLine
 62
7
  6
CONTINUOUS
 10
157.9815
 20
93.5025
 11
150.552
 21
93.5025
  0
LINE
  5
399
100
AcDbEntity
  8
0
100
AcDbLine
 62
7
  6
CONTINUOUS
 10
80.448
 20
93.5025
 11
73.0185
 21
93.5025
  0
LINE
  5
39A
100
AcDbEntity
  8
0
100
AcDbLine
 62
7
  6
CONTINUOUS
 10
113.6077
 20
98.24595
 11
113.6077
 21
97.5924248021
  0
LINE
  5
39B
100
AcDbEntity
  8
0
100
AcDbLine
 62
7
  6
CONTINUOUS
 10
113.6077
 20
97.0325751979
 11
113.6077
 21
96.37905
  0
LINE
  5
39C
100
AcDbEntity
  8
0
100
AcDbLine
 62
7
  6
CONTINUOUS
 10
114.8523
 20
98.24595
 11
114.8523
 21
97.5924248021
  0
LINE
  5
39D
100
AcDbEntity
  8
0
100
AcDbLine
 62
7
  6
CONTINUOUS
 10
114.8523
 20
97.0325751979
 11
114.8523
 21
96.37905
  0
LINE
  5
39E
100
AcDbEntity
  8
0
100
AcDbLine
 62
7
  6
CONTINUOUS
 10
150.044
 20
94.85505
 11
80.956
 21
94.85505
  0
LINE
  5
39F
100
AcDbEntity
  8
0
100
AcDbLine
 62
7
  6
CONTINUOUS
 10
148.52
 20
96.37905
 11
82.48
 21
96.37905
  0
LINE
  5
3A0
100
AcDbEntity
  8
0
100
AcDbLine
 62
7
  6
CONTINUOUS
 10
84.3723
 20
97.0331
 11
85.6677
 21
97.0331
  0
LINE
  5
3A1
100
AcDbEntity
  8
0
100
AcDbLine
 62
7
  6
CONTINUOUS
 10
86.9123
 20
97.0331
 11
88.2077
 21
97.0331
  0
LINE
  5
3A2
100
AcDbEntity
  8
0
100
AcDbLine
 62
7
  6
CONTINUOUS
 10
89.4523
 20
97.0331
 11
90.7477
 21
97.0331
  0
LINE
  5
3A3
100
AcDbEntity
  8
0
100
AcDbLine
 62
7
  6
CONTINUOUS
 10
91.9923
 20
97.0331
 11
93.2877
 21
97.0331
  0
LINE
  5
3A4
100
AcDbEntity
  8
0
100
AcDbLine
 62
7
  6
CONTINUOUS
 10
94.5323
 20
97.0331
 11
95.8277
 21
97.0331
  0
LINE
  5
3A5
100
AcDbEntity
  8
0
100
AcDbLine
 62
7
  6
CONTINUOUS
 10
97.0723
 20
97.0331
 11
98.3677
 21
97.0331
  0
LINE
  5
3A6
100
AcDbEntity
  8
0
100
AcDbLine
 62
7
  6
CONTINUOUS
 10
99.6123
 20
97.0331
 11
100.9077
 21
97.0331
  0
LINE
  5
3A7
100
AcDbEntity
  8
0
100
AcDbLine
 62
7
  6
CONTINUOUS
 10
102.1523
 20
97.0331
 11
103.4477
 21
97.0331
  0
LINE
  5
3A8
100
AcDbEntity
  8
0
100
AcDbLine
 62
7
  6
CONTINUOUS
 10
104.6923
 20
97.0331
 11
105.9877
 21
97.0331
  0
LINE
  5
3A9
100
AcDbEntity
  8
0
100
AcDbLine
 62
7
  6
CONTINUOUS
 10
107.2323
 20
97.0331
 11
108.5277
 21
97.0331
  0
LINE
  5
3AA
100
AcDbEntity
  8
0
100
AcDbLine
 62
7
  6
CONTINUOUS
 10
109.7723
 20
97.0331
 11
111.0677
 21
97.0331
  0
LINE
  5
3AB
100
AcDbEntity
  8
0
100
AcDbLine
 62
7
  6
CONTINUOUS
 10
112.3123
 20
97.0331
 11
113.6077
 21
97.0331
  0
LINE
  5
3AC
100
AcDbEntity
  8
0
100
AcDbLine
 62
7
  6
CONTINUOUS
 10
114.8523
 20
97.0331
 11
116.1477
 21
97.0331
  0
LINE
  5
3AD
100
AcDbEntity
  8
0
100
AcDbLine
 62
7
  6
CONTINUOUS
 10
117.3923
 20
97.0331
 11
118.6877
 21
97.0331
  0
LINE
  5
3AE
100
AcDbEntity
  8
0
100
AcDbLine
 62
7
  6
CONTINUOUS
 10
119.9323
 20
97.0331
 11
121.2277
 21
97.0331
  0
LINE
  5
3AF
100
AcDbEntity
  8
0
100
AcDbLine
 62
7
  6
CONTINUOUS
 10
122.4723
 20
97.0331
 11
123.7677
 21
97.0331
  0
LINE
  5
3B0
100
AcDbEntity
  8
0
100
AcDbLine
 62
7
  6
CONTINUOUS
 10
125.0123
 20
97.0331
 11
126.3077
 21
97.0331
  0
LINE
  5
3B1
100
AcDbEntity
  8
0
100
AcDbLine
 62
7
  6
CONTINUOUS
 10
127.5523
 20
97.0331
 11
128.8477
 21
97.0331
  0
LINE
  5
3B2
100
AcDbEntity
  8
0
100
AcDbLine
 62
7
  6
CONTINUOUS
 10
130.0923
 20
97.0331
 11
131.3877
 21
97.0331
  0
LINE
  5
3B3
100
AcDbEntity
  8
0
100
AcDbLine
 62
7
  6
CONTINUOUS
 10
132.6323
 20
97.0331
 11
133.9277
 21
97.0331
  0
LINE
  5
3B4
100
AcDbEntity
  8
0
100
AcDbLine
 62
7
  6
CONTINUOUS
 10
135.1723
 20
97.0331
 11
136.4677
 21
97.0331
  0
LINE
  5
3B5
100
AcDbEntity
  8
0
100
AcDbLine
 62
7
  6
CONTINUOUS
 10
137.7123
 20
97.0331
 11
139.0077
 21
97.0331
  0
LINE
  5
3B6
100
AcDbEntity
  8
0
100
AcDbLine
 62
7
  6
CONTINUOUS
 10
140.2523
 20
97.0331
 11
141.5477
 21
97.0331
  0
LINE
  5
3B7
100
AcDbEntity
  8
0
100
AcDbLine
 62
7
  6
CONTINUOUS
 10
142.7923
 20
97.0331
 11
144.0877
 21
97.0331
  0
LINE
  5
3B8
100
AcDbEntity
  8
0
100
AcDbLine
 62
7
  6
CONTINUOUS
 10
145.3323
 20
97.0331
 11
146.6277
 21
97.0331
  0
LINE
  5
3B9
100
AcDbEntity
  8
0
100
AcDbLine
 62
7
  6
CONTINUOUS
 10
84.3723
 20
97.5919
 11
85.6677
 21
97.5919
  0
LINE
  5
3BA
100
AcDbEntity
  8
0
100
AcDbLine
 62
7
  6
CONTINUOUS
 10
86.9123
 20
97.5919
 11
88.2077
 21
97.5919
  0
LINE
  5
3BB
100
AcDbEntity
  8
0
100
AcDbLine
 62
7
  6
CONTINUOUS
 10
89.4523
 20
97.5919
 11
90.7477
 21
97.5919
  0
LINE
  5
3BC
100
AcDbEntity
  8
0
100
AcDbLine
 62
7
  6
CONTINUOUS
 10
91.9923
 20
97.5919
 11
93.2877
 21
97.5919
  0
LINE
  5
3BD
100
AcDbEntity
  8
0
100
AcDbLine
 62
7
  6
CONTINUOUS
 10
94.5323
 20
97.5919
 11
95.8277
 21
97.5919
  0
LINE
  5
3BE
100
AcDbEntity
  8
0
100
AcDbLine
 62
7
  6
CONTINUOUS
 10
97.0723
 20
97.5919
 11
98.3677
 21
97.5919
  0
LINE
  5
3BF
100
AcDbEntity
  8
0
100
AcDbLine
 62
7
  6
CONTINUOUS
 10
99.6123
 20
97.5919
 11
100.9077
 21
97.5919
  0
LINE
  5
3C0
100
AcDbEntity
  8
0
100
AcDbLine
 62
7
  6
CONTINUOUS
 10
102.1523
 20
97.5919
 11
103.4477
 21
97.5919
  0
LINE
  5
3C1
100
AcDbEntity
  8
0
100
AcDbLine
 62
7
  6
CONTINUOUS
 10
104.6923
 20
97.5919
 11
105.9877
 21
97.5919
  0
LINE
  5
3C2
100
AcDbEntity
  8
0
100
AcDbLine
 62
7
  6
CONTINUOUS
 10
107.2323
 20
97.5919
 11
108.5277
 21
97.5919
  0
LINE
  5
3C3
100
AcDbEntity
  8
0
100
AcDbLine
 62
7
  6
CONTINUOUS
 10
109.7723
 20
97.5919
 11
111.0677
 21
97.5919
  0
LINE
  5
3C4
100
AcDbEntity
  8
0
100
AcDbLine
 62
7
  6
CONTINUOUS
 10
112.3123
 20
97.5919
 11
113.6077
 21
97.5919
  0
LINE
  5
3C5
100
AcDbEntity
  8
0
100
AcDbLine
 62
7
  6
CONTINUOUS
 10
114.8523
 20
97.5919
 11
116.1477
 21
97.5919
  0
LINE
  5
3C6
100
AcDbEntity
  8
0
100
AcDbLine
 62
7
  6
CONTINUOUS
 10
117.3923
 20
97.5919
 11
118.6877
 21
97.5919
  0
LINE
  5
3C7
100
AcDbEntity
  8
0
100
AcDbLine
 62
7
  6
CONTINUOUS
 10
119.9323
 20
97.5919
 11
121.2277
 21
97.5919
  0
LINE
  5
3C8
100
AcDbEntity
  8
0
100
AcDbLine
 62
7
  6
CONTINUOUS
 10
122.4723
 20
97.5919
 11
123.7677
 21
97.5919
  0
LINE
  5
3C9
100
AcDbEntity
  8
0
100
AcDbLine
 62
7
  6
CONTINUOUS
 10
125.0123
 20
97.5919
 11
126.3077
 21
97.5919
  0
LINE
  5
3CA
100
AcDbEntity
  8
0
100
AcDbLine
 62
7
  6
CONTINUOUS
 10
127.5523
 20
97.5919
 11
128.8477
 21
97.5919
  0
LINE
  5
3CB
100
AcDbEntity
  8
0
100
AcDbLine
 62
7
  6
CONTINUOUS
 10
130.0923
 20
97.5919
 11
131.3877
 21
97.5919
  0
LINE
  5
3CC
100
AcDbEntity
  8
0
100
AcDbLine
 62
7
  6
CONTINUOUS
 10
132.6323
 20
97.5919
 11
133.9277
 21
97.5919
  0
LINE
  5
3CD
100
AcDbEntity
  8
0
100
AcDbLine
 62
7
  6
CONTINUOUS
 10
135.1723
 20
97.5919
 11
136.4677
 21
97.5919
  0
LINE
  5
3CE
100
AcDbEntity
  8
0
100
AcDbLine
 62
7
  6
CONTINUOUS
 10
137.7123
 20
97.5919
 11
139.0077
 21
97.5919
  0
LINE
  5
3CF
100
AcDbEntity
  8
0
100
AcDbLine
 62
7
  6
CONTINUOUS
 10
140.2523
 20
97.5919
 11
141.5477
 21
97.5919
  0
LINE
  5
3D0
100
AcDbEntity
  8
0
100
AcDbLine
 62
7
  6
CONTINUOUS
 10
142.7923
 20
97.5919
 11
144.0877
 21
97.5919
  0
LINE
  5
3D1
100
AcDbEntity
  8
0
100
AcDbLine
 62
7
  6
CONTINUOUS
 10
145.3323
 20
97.5919
 11
146.6277
 21
97.5919
  0
LINE
  5
3D2
100
AcDbEntity
  8
0
100
AcDbLine
 62
7
  6
CONTINUOUS
 10
116.1477
 20
98.24595
 11
116.1477
 21
97.5924248021
  0
LINE
  5
3D3
100
AcDbEntity
  8
0
100
AcDbLine
 62
7
  6
CONTINUOUS
 10
116.1477
 20
97.0325751979
 11
116.1477
 21
96.37905
  0
LINE
  5
3D4
100
AcDbEntity
  8
0
100
AcDbLine
 62
7
  6
CONTINUOUS
 10
117.3923
 20
98.24595
 11
117.3923
 21
97.5924248021
  0
LINE
  5
3D5
100
AcDbEntity
  8
0
100
AcDbLine
 62
7
  6
CONTINUOUS
 10
117.3923
 20
97.0325751979
 11
117.3923
 21
96.37905
  0
LINE
  5
3D6
100
AcDbEntity
  8
0
100
AcDbLine
 62
7
  6
CONTINUOUS
 10
118.6877
 20
98.24595
 11
118.6877
 21
97.5924248021
  0
LINE
  5
3D7
100
AcDbEntity
  8
0
100
AcDbLine
 62
7
  6
CONTINUOUS
 10
118.6877
 20
97.0325751979
 11
118.6877
 21
96.37905
  0
LINE
  5
3D8
100
AcDbEntity
  8
0
100
AcDbLine
 62
7
  6
CONTINUOUS
 10
82.48
 20
98.24595
 11
148.52
 21
98.24595
  0
LINE
  5
3D9
100
AcDbEntity
  8
0
100
AcDbLine
 62
7
  6
CONTINUOUS
 10
81.6672
 20
99.2429
 11
83.2928
 21
99.2429
  0
LINE
  5
3DA
100
AcDbEntity
  8
0
100
AcDbLine
 62
7
  6
CONTINUOUS
 10
80.956
 20
99.76995
 11
81.6672
 21
99.76995
  0
LINE
  5
3DB
100
AcDbEntity
  8
0
100
AcDbLine
 62
7
  6
CONTINUOUS
 10
83.2928
 20
99.76995
 11
147.7590855649
 21
99.76995
  0
LINE
  5
3DC
100
AcDbEntity
  8
0
100
AcDbLine
 62
7
  6
CONTINUOUS
 10
149.2809144351
 20
99.76995
 11
150.044
 21
99.76995
  0
LINE
  5
3DD
100
AcDbEntity
  8
0
100
AcDbLine
 62
7
  6
CONTINUOUS
 10
119.9323
 20
98.24595
 11
119.9323
 21
97.5924248021
  0
LINE
  5
3DE
100
AcDbEntity
  8
0
100
AcDbLine
 62
7
  6
CONTINUOUS
 10
119.9323
 20
97.0325751979
 11
119.9323
 21
96.37905
  0
LINE
  5
3DF
100
AcDbEntity
  8
0
100
AcDbLine
 62
7
  6
CONTINUOUS
 10
121.2277
 20
98.24595
 11
121.2277
 21
97.5924248021
  0
LINE
  5
3E0
100
AcDbEntity
  8
0
100
AcDbLine
 62
7
  6
CONTINUOUS
 10
121.2277
 20
97.0325751979
 11
121.2277
 21
96.37905
  0
LINE
  5
3E1
100
AcDbEntity
  8
0
100
AcDbLine
 62
7
  6
CONTINUOUS
 10
83.2928
 20
100.8685
 11
81.6672
 21
100.8685
  0
LINE
  5
3E2
100
AcDbEntity
  8
0
100
AcDbLine
 62
7
  6
CONTINUOUS
 10
157.9815
 20
101.1225
 11
150.552
 21
101.1225
  0
LINE
  5
3E3
100
AcDbEntity
  8
0
100
AcDbLine
 62
7
  6
CONTINUOUS
 10
80.448
 20
101.1225
 11
73.0185
 21
101.1225
  0
LINE
  5
3E4
100
AcDbEntity
  8
0
100
AcDbLine
 62
7
  6
CONTINUOUS
 10
80.448
 20
101.9861
 11
150.552
 21
101.9861
  0
LINE
  5
3E5
100
AcDbEntity
  8
0
100
AcDbLine
 62
7
  6
CONTINUOUS
 10
122.4723
 20
98.24595
 11
122.4723
 21
97.5924248021
  0
LINE
  5
3E6
100
AcDbEntity
  8
0
100
AcDbLine
 62
7
  6
CONTINUOUS
 10
122.4723
 20
97.0325751979
 11
122.4723
 21
96.37905
  0
LINE
  5
3E7
100
AcDbEntity
  8
0
100
AcDbLine
 62
7
  6
CONTINUOUS
 10
123.7677
 20
98.24595
 11
123.7677
 21
97.5924248021
  0
LINE
  5
3E8
100
AcDbEntity
  8
0
100
AcDbLine
 62
7
  6
CONTINUOUS
 10
123.7677
 20
97.0325751979
 11
123.7677
 21
96.37905
  0
LINE
  5
3E9
100
AcDbEntity
  8
0
100
AcDbLine
 62
7
  6
CONTINUOUS
 10
125.0123
 20
98.24595
 11
125.0123
 21
97.5924248021
  0
LINE
  5
3EA
100
AcDbEntity
  8
0
100
AcDbLine
 62
7
  6
CONTINUOUS
 10
125.0123
 20
97.0325751979
 11
125.0123
 21
96.37905
  0
LINE
  5
3EB
100
AcDbEntity
  8
0
100
AcDbLine
 62
7
  6
CONTINUOUS
 10
126.3077
 20
98.24595
 11
126.3077
 21
97.5924248021
  0
LINE
  5
3EC
100
AcDbEntity
  8
0
100
AcDbLine
 62
7
  6
CONTINUOUS
 10
126.3077
 20
97.0325751979
 11
126.3077
 21
96.37905
  0
LINE
  5
3ED
100
AcDbEntity
  8
0
100
AcDbLine
 62
7
  6
CONTINUOUS
 10
127.5523
 20
98.24595
 11
127.5523
 21
97.5924248021
  0
LINE
  5
3EE
100
AcDbEntity
  8
0
100
AcDbLine
 62
7
  6
CONTINUOUS
 10
127.5523
 20
97.0325751979
 11
127.5523
 21
96.37905
  0
LINE
  5
3EF
100
AcDbEntity
  8
0
100
AcDbLine
 62
7
  6
CONTINUOUS
 10
128.8477
 20
98.24595
 11
128.8477
 21
97.5924248021
  0
LINE
  5
3F0
100
AcDbEntity
  8
0
100
AcDbLine
 62
7
  6
CONTINUOUS
 10
128.8477
 20
97.0325751979
 11
128.8477
 21
96.37905
  0
LINE
  5
3F1
100
AcDbEntity
  8
0
100
AcDbLine
 62
7
  6
CONTINUOUS
 10
130.0923
 20
98.24595
 11
130.0923
 21
97.5924248021
  0
LINE
  5
3F2
100
AcDbEntity
  8
0
100
AcDbLine
 62
7
  6
CONTINUOUS
 10
130.0923
 20
97.0325751979
 11
130.0923
 21
96.37905
  0
LINE
  5
3F3
100
AcDbEntity
  8
0
100
AcDbLine
 62
7
  6
CONTINUOUS
 10
131.3877
 20
98.24595
 11
131.3877
 21
97.5924248021
  0
LINE
  5
3F4
100
AcDbEntity
  8
0
100
AcDbLine
 62
7
  6
CONTINUOUS
 10
131.3877
 20
97.0325751979
 11
131.3877
 21
96.37905
  0
LINE
  5
3F5
100
AcDbEntity
  8
0
100
AcDbLine
 62
7
  6
CONTINUOUS
 10
132.6323
 20
98.24595
 11
132.6323
 21
97.5924248021
  0
LINE
  5
3F6
100
AcDbEntity
  8
0
100
AcDbLine
 62
7
  6
CONTINUOUS
 10
132.6323
 20
97.0325751979
 11
132.6323
 21
96.37905
  0
LINE
  5
3F7
100
AcDbEntity
  8
0
100
AcDbLine
 62
7
  6
CONTINUOUS
 10
133.9277
 20
98.24595
 11
133.9277
 21
97.5924248021
  0
LINE
  5
3F8
100
AcDbEntity
  8
0
100
AcDbLine
 62
7
  6
CONTINUOUS
 10
133.9277
 20
97.0325751979
 11
133.9277
 21
96.37905
  0
LINE
  5
3F9
100
AcDbEntity
  8
0
100
AcDbLine
 62
7
  6
CONTINUOUS
 10
135.1723
 20
98.24595
 11
135.1723
 21
97.5924248021
  0
LINE
  5
3FA
100
AcDbEntity
  8
0
100
AcDbLine
 62
7
  6
CONTINUOUS
 10
135.1723
 20
97.0325751979
 11
135.1723
 21
96.37905
  0
LINE
  5
3FB
100
AcDbEntity
  8
0
100
AcDbLine
 62
7
  6
CONTINUOUS
 10
136.4677
 20
98.24595
 11
136.4677
 21
97.5924248021
  0
LINE
  5
3FC
100
AcDbEntity
  8
0
100
AcDbLine
 62
7
  6
CONTINUOUS
 10
136.4677
 20
97.0325751979
 11
136.4677
 21
96.37905
  0
LINE
  5
3FD
100
AcDbEntity
  8
0
100
AcDbLine
 62
7
  6
CONTINUOUS
 10
137.7123
 20
98.24595
 11
137.7123
 21
97.5924248021
  0
LINE
  5
3FE
100
AcDbEntity
  8
0
100
AcDbLine
 62
7
  6
CONTINUOUS
 10
137.7123
 20
97.0325751979
 11
137.7123
 21
96.37905
  0
LINE
  5
3FF
100
AcDbEntity
  8
0
100
AcDbLine
 62
7
  6
CONTINUOUS
 10
139.0077
 20
98.24595
 11
139.0077
 21
97.5924248021
  0
LINE
  5
400
100
AcDbEntity
  8
0
100
AcDbLine
 62
7
  6
CONTINUOUS
 10
139.0077
 20
97.0325751979
 11
139.0077
 21
96.37905
  0
LINE
  5
401
100
AcDbEntity
  8
0
100
AcDbLine
 62
7
  6
CONTINUOUS
 10
140.2523
 20
98.24595
 11
140.2523
 21
97.5924248021
  0
LINE
  5
402
100
AcDbEntity
  8
0
100
AcDbLine
 62
7
  6
CONTINUOUS
 10
140.2523
 20
97.0325751979
 11
140.2523
 21
96.37905
  0
LINE
  5
403
100
AcDbEntity
  8
0
100
AcDbLine
 62
7
  6
CONTINUOUS
 10
141.5477
 20
98.24595
 11
141.5477
 21
97.5924248021
  0
LINE
  5
404
100
AcDbEntity
  8
0
100
AcDbLine
 62
7
  6
CONTINUOUS
 10
141.5477
 20
97.0325751979
 11
141.5477
 21
96.37905
  0
LINE
  5
405
100
AcDbEntity
  8
0
100
AcDbLine
 62
7
  6
CONTINUOUS
 10
142.7923
 20
98.24595
 11
142.7923
 21
97.5924248021
  0
LINE
  5
406
100
AcDbEntity
  8
0
100
AcDbLine
 62
7
  6
CONTINUOUS
 10
142.7923
 20
97.0325751979
 11
142.7923
 21
96.37905
  0
LINE
  5
407
100
AcDbEntity
  8
0
100
AcDbLine
 62
7
  6
CONTINUOUS
 10
144.0877
 20
98.24595
 11
144.0877
 21
97.5924248021
  0
LINE
  5
408
100
AcDbEntity
  8
0
100
AcDbLine
 62
7
  6
CONTINUOUS
 10
144.0877
 20
97.0325751979
 11
144.0877
 21
96.37905
  0
LINE
  5
409
100
AcDbEntity
  8
0
100
AcDbLine
 62
7
  6
CONTINUOUS
 10
145.3323
 20
98.24595
 11
145.3323
 21
97.5924248021
  0
LINE
  5
40A
100
AcDbEntity
  8
0
100
AcDbLine
 62
7
  6
CONTINUOUS
 10
145.3323
 20
97.0325751979
 11
145.3323
 21
96.37905
  0
LINE
  5
40B
100
AcDbEntity
  8
0
100
AcDbLine
 62
7
  6
CONTINUOUS
 10
146.6277
 20
98.24595
 11
146.6277
 21
97.5924248021
  0
LINE
  5
40C
100
AcDbEntity
  8
0
100
AcDbLine
 62
7
  6
CONTINUOUS
 10
146.6277
 20
97.0325751979
 11
146.6277
 21
96.37905
  0
LINE
  5
40D
100
AcDbEntity
  8
0
100
AcDbLine
 62
7
  6
CONTINUOUS
 10
148.52
 20
98.24595
 11
148.52
 21
96.37905
  0
LINE
  5
40E
100
AcDbEntity
  8
0
100
AcDbLine
 62
7
  6
CONTINUOUS
 10
150.044
 20
99.76995
 11
150.044
 21
94.85505
  0
LINE
  5
40F
100
AcDbEntity
  8
0
100
AcDbLine
 62
7
  6
CONTINUOUS
 10
150.552
 20
101.9861
 11
150.552
 21
92.6389
  0
LINE
  5
410
100
AcDbEntity
  8
0
100
AcDbLine
 62
7
  6
CONTINUOUS
 10
157.9815
 20
93.5025
 11
157.9815
 21
101.1225
  0
LINE
  5
411
100
AcDbEntity
  8
0
100
AcDbLine
 62
7
  6
CONTINUOUS
 10
73.0185
 20
197.922
 11
73.0185
 21
204.272
  0
LINE
  5
412
100
AcDbEntity
  8
0
100
AcDbLine
 62
7
  6
CONTINUOUS
 10
80.448
 20
188.778
 11
80.448
 21
197.922
  0
LINE
  5
413
100
AcDbEntity
  8
0
100
AcDbLine
 62
7
  6
CONTINUOUS
 10
81.845
 20
204.272
 11
81.845
 21
197.668
  0
LINE
  5
414
100
AcDbEntity
  8
0
100
AcDbLine
 62
7
  6
CONTINUOUS
 10
83.75
 20
203.129
 11
83.75
 21
204.272
  0
LINE
  5
415
100
AcDbEntity
  8
0
100
AcDbLine
 62
7
  6
CONTINUOUS
 10
84.512
 20
202.748
 11
84.512
 21
202.875
  0
LINE
  5
416
100
AcDbEntity
  8
0
100
AcDbLine
 62
7
  6
CONTINUOUS
 10
84.7152
 20
207.447
 11
84.7152
 21
202.748
  0
LINE
  5
417
100
AcDbEntity
  8
0
100
AcDbLine
 62
7
  6
CONTINUOUS
 10
85.3248
 20
207.447
 11
85.3248
 21
202.748
  0
LINE
  5
418
100
AcDbEntity
  8
0
100
AcDbLine
 62
7
  6
CONTINUOUS
 10
87.2552
 20
207.447
 11
87.2552
 21
202.748
  0
LINE
  5
419
100
AcDbEntity
  8
0
100
AcDbLine
 62
7
  6
CONTINUOUS
 10
87.8648
 20
207.447
 11
87.8648
 21
202.748
  0
LINE
  5
41A
100
AcDbEntity
  8
0
100
AcDbLine
 62
7
  6
CONTINUOUS
 10
89.7952
 20
207.447
 11
89.7952
 21
202.748
  0
LINE
  5
41B
100
AcDbEntity
  8
0
100
AcDbLine
 62
7
  6
CONTINUOUS
 10
90.4048
 20
207.447
 11
90.4048
 21
202.748
  0
LINE
  5
41C
100
AcDbEntity
  8
0
100
AcDbLine
 62
7
  6
CONTINUOUS
 10
92.3352
 20
207.447
 11
92.3352
 21
202.748
  0
LINE
  5
41D
100
AcDbEntity
  8
0
100
AcDbLine
 62
7
  6
CONTINUOUS
 10
92.9448
 20
207.447
 11
92.9448
 21
202.748
  0
LINE
  5
41E
100
AcDbEntity
  8
0
100
AcDbLine
 62
7
  6
CONTINUOUS
 10
94.8752
 20
207.447
 11
94.8752
 21
202.748
  0
LINE
  5
41F
100
AcDbEntity
  8
0
100
AcDbLine
 62
7
  6
CONTINUOUS
 10
95.4848
 20
207.447
 11
95.4848
 21
202.748
  0
LINE
  5
420
100
AcDbEntity
  8
0
100
AcDbLine
 62
7
  6
CONTINUOUS
 10
97.4152
 20
207.447
 11
97.4152
 21
202.748
  0
LINE
  5
421
100
AcDbEntity
  8
0
100
AcDbLine
 62
7
  6
CONTINUOUS
 10
98.0248
 20
207.447
 11
98.0248
 21
202.748
  0
LINE
  5
422
100
AcDbEntity
  8
0
100
AcDbLine
 62
7
  6
CONTINUOUS
 10
99.9552
 20
207.447
 11
99.9552
 21
202.748
  0
LINE
  5
423
100
AcDbEntity
  8
0
100
AcDbLine
 62
7
  6
CONTINUOUS
 10
100.5648
 20
207.447
 11
100.5648
 21
202.748
  0
LINE
  5
424
100
AcDbEntity
  8
0
100
AcDbLine
 62
7
  6
CONTINUOUS
 10
102.4952
 20
207.447
 11
102.4952
 21
202.748
  0
LINE
  5
425
100
AcDbEntity
  8
0
100
AcDbLine
 62
7
  6
CONTINUOUS
 10
103.1048
 20
207.447
 11
103.1048
 21
202.748
  0
LINE
  5
426
100
AcDbEntity
  8
0
100
AcDbLine
 62
7
  6
CONTINUOUS
 10
105.0352
 20
207.447
 11
105.0352
 21
202.748
  0
LINE
  5
427
100
AcDbEntity
  8
0
100
AcDbLine
 62
7
  6
CONTINUOUS
 10
105.6448
 20
207.447
 11
105.6448
 21
202.748
  0
LINE
  5
428
100
AcDbEntity
  8
0
100
AcDbLine
 62
7
  6
CONTINUOUS
 10
80.448
 20
188.778
 11
150.552
 21
188.778
  0
LINE
  5
429
100
AcDbEntity
  8
0
100
AcDbLine
 62
7
  6
CONTINUOUS
 10
107.5752
 20
207.447
 11
107.5752
 21
202.748
  0
LINE
  5
42A
100
AcDbEntity
  8
0
100
AcDbLine
 62
7
  6
CONTINUOUS
 10
108.1848
 20
207.447
 11
108.1848
 21
202.748
  0
LINE
  5
42B
100
AcDbEntity
  8
0
100
AcDbLine
 62
7
  6
CONTINUOUS
 10
110.1152
 20
207.447
 11
110.1152
 21
202.748
  0
LINE
  5
42C
100
AcDbEntity
  8
0
100
AcDbLine
 62
7
  6
CONTINUOUS
 10
110.7248
 20
207.447
 11
110.7248
 21
202.748
  0
LINE
  5
42D
100
AcDbEntity
  8
0
100
AcDbLine
 62
7
  6
CONTINUOUS
 10
112.6552
 20
207.447
 11
112.6552
 21
202.748
  0
LINE
  5
42E
100
AcDbEntity
  8
0
100
AcDbLine
 62
7
  6
CONTINUOUS
 10
113.2648
 20
207.447
 11
113.2648
 21
202.748
  0
LINE
  5
42F
100
AcDbEntity
  8
0
100
AcDbLine
 62
7
  6
CONTINUOUS
 10
115.1952
 20
207.447
 11
115.1952
 21
202.748
  0
LINE
  5
430
100
AcDbEntity
  8
0
100
AcDbLine
 62
7
  6
CONTINUOUS
 10
115.8048
 20
207.447
 11
115.8048
 21
202.748
  0
LINE
  5
431
100
AcDbEntity
  8
0
100
AcDbLine
 62
7
  6
CONTINUOUS
 10
80.448
 20
197.668
 11
150.552
 21
197.668
  0
LINE
  5
432
100
AcDbEntity
  8
0
100
AcDbLine
 62
7
  6
CONTINUOUS
 10
157.9815
 20
197.922
 11
150.552
 21
197.922
  0
LINE
  5
433
100
AcDbEntity
  8
0
100
AcDbLine
 62
7
  6
CONTINUOUS
 10
80.448
 20
197.922
 11
73.0185
 21
197.922
  0
LINE
  5
434
100
AcDbEntity
  8
0
100
AcDbLine
 62
7
  6
CONTINUOUS
 10
117.7352
 20
207.447
 11
117.7352
 21
202.748
  0
LINE
  5
435
100
AcDbEntity
  8
0
100
AcDbLine
 62
7
  6
CONTINUOUS
 10
118.3448
 20
207.447
 11
118.3448
 21
202.748
  0
LINE
  5
436
100
AcDbEntity
  8
0
100
AcDbLine
 62
7
  6
CONTINUOUS
 10
120.2752
 20
207.447
 11
120.2752
 21
202.748
  0
LINE
  5
437
100
AcDbEntity
  8
0
100
AcDbLine
 62
7
  6
CONTINUOUS
 10
120.8848
 20
207.447
 11
120.8848
 21
202.748
  0
LINE
  5
438
100
AcDbEntity
  8
0
100
AcDbLine
 62
7
  6
CONTINUOUS
 10
84.131
 20
202.748
 11
146.869
 21
202.748
  0
LINE
  5
439
100
AcDbEntity
  8
0
100
AcDbLine
 62
7
  6
CONTINUOUS
 10
84.512
 20
202.875
 11
84.7152
 21
202.875
  0
LINE
  5
43A
100
AcDbEntity
  8
0
100
AcDbLine
 62
7
  6
CONTINUOUS
 10
157.9815
 20
204.272
 11
147.25
 21
204.272
  0
LINE
  5
43B
100
AcDbEntity
  8
0
100
AcDbLine
 62
7
  6
CONTINUOUS
 10
73.0185
 20
204.272
 11
83.75
 21
204.272
  0
LINE
  5
43C
100
AcDbEntity
  8
0
100
AcDbLine
 62
7
  6
CONTINUOUS
 10
122.8152
 20
207.447
 11
122.8152
 21
202.748
  0
LINE
  5
43D
100
AcDbEntity
  8
0
100
AcDbLine
 62
7
  6
CONTINUOUS
 10
123.4248
 20
207.447
 11
123.4248
 21
202.748
  0
LINE
  5
43E
100
AcDbEntity
  8
0
100
AcDbLine
 62
7
  6
CONTINUOUS
 10
125.3552
 20
207.447
 11
125.3552
 21
202.748
  0
LINE
  5
43F
100
AcDbEntity
  8
0
100
AcDbLine
 62
7
  6
CONTINUOUS
 10
125.9648
 20
207.447
 11
125.9648
 21
202.748
  0
LINE
  5
440
100
AcDbEntity
  8
0
100
AcDbLine
 62
7
  6
CONTINUOUS
 10
84.7152
 20
207.447
 11
85.3248
 21
207.447
  0
LINE
  5
441
100
AcDbEntity
  8
0
100
AcDbLine
 62
7
  6
CONTINUOUS
 10
87.2552
 20
207.447
 11
87.8648
 21
207.447
  0
LINE
  5
442
100
AcDbEntity
  8
0
100
AcDbLine
 62
7
  6
CONTINUOUS
 10
89.7952
 20
207.447
 11
90.4048
 21
207.447
  0
LINE
  5
443
100
AcDbEntity
  8
0
100
AcDbLine
 62
7
  6
CONTINUOUS
 10
92.3352
 20
207.447
 11
92.9448
 21
207.447
  0
LINE
  5
444
100
AcDbEntity
  8
0
100
AcDbLine
 62
7
  6
CONTINUOUS
 10
94.8752
 20
207.447
 11
95.4848
 21
207.447
  0
LINE
  5
445
100
AcDbEntity
  8
0
100
AcDbLine
 62
7
  6
CONTINUOUS
 10
97.4152
 20
207.447
 11
98.0248
 21
207.447
  0
LINE
  5
446
100
AcDbEntity
  8
0
100
AcDbLine
 62
7
  6
CONTINUOUS
 10
99.9552
 20
207.447
 11
100.5648
 21
207.447
  0
LINE
  5
447
100
AcDbEntity
  8
0
100
AcDbLine
 62
7
  6
CONTINUOUS
 10
102.4952
 20
207.447
 11
103.1048
 21
207.447
  0
LINE
  5
448
100
AcDbEntity
  8
0
100
AcDbLine
 62
7
  6
CONTINUOUS
 10
105.0352
 20
207.447
 11
105.6448
 21
207.447
  0
LINE
  5
449
100
AcDbEntity
  8
0
100
AcDbLine
 62
7
  6
CONTINUOUS
 10
107.5752
 20
207.447
 11
108.1848
 21
207.447
  0
LINE
  5
44A
100
AcDbEntity
  8
0
100
AcDbLine
 62
7
  6
CONTINUOUS
 10
110.1152
 20
207.447
 11
110.7248
 21
207.447
  0
LINE
  5
44B
100
AcDbEntity
  8
0
100
AcDbLine
 62
7
  6
CONTINUOUS
 10
112.6552
 20
207.447
 11
113.2648
 21
207.447
  0
LINE
  5
44C
100
AcDbEntity
  8
0
100
AcDbLine
 62
7
  6
CONTINUOUS
 10
115.1952
 20
207.447
 11
115.8048
 21
207.447
  0
LINE
  5
44D
100
AcDbEntity
  8
0
100
AcDbLine
 62
7
  6
CONTINUOUS
 10
117.7352
 20
207.447
 11
118.3448
 21
207.447
  0
LINE
  5
44E
100
AcDbEntity
  8
0
100
AcDbLine
 62
7
  6
CONTINUOUS
 10
120.2752
 20
207.447
 11
120.8848
 21
207.447
  0
LINE
  5
44F
100
AcDbEntity
  8
0
100
AcDbLine
 62
7
  6
CONTINUOUS
 10
122.8152
 20
207.447
 11
123.4248
 21
207.447
  0
LINE
  5
450
100
AcDbEntity
  8
0
100
AcDbLine
 62
7
  6
CONTINUOUS
 10
125.3552
 20
207.447
 11
125.9648
 21
207.447
  0
LINE
  5
451
100
AcDbEntity
  8
0
100
AcDbLine
 62
7
  6
CONTINUOUS
 10
127.8952
 20
207.447
 11
128.5048
 21
207.447
  0
LINE
  5
452
100
AcDbEntity
  8
0
100
AcDbLine
 62
7
  6
CONTINUOUS
 10
130.4352
 20
207.447
 11
131.0448
 21
207.447
  0
LINE
  5
453
100
AcDbEntity
  8
0
100
AcDbLine
 62
7
  6
CONTINUOUS
 10
132.9752
 20
207.447
 11
133.5848
 21
207.447
  0
LINE
  5
454
100
AcDbEntity
  8
0
100
AcDbLine
 62
7
  6
CONTINUOUS
 10
135.5152
 20
207.447
 11
136.1248
 21
207.447
  0
LINE
  5
455
100
AcDbEntity
  8
0
100
AcDbLine
 62
7
  6
CONTINUOUS
 10
138.0552
 20
207.447
 11
138.6648
 21
207.447
  0
LINE
  5
456
100
AcDbEntity
  8
0
100
AcDbLine
 62
7
  6
CONTINUOUS
 10
140.5952
 20
207.447
 11
141.2048
 21
207.447
  0
LINE
  5
457
100
AcDbEntity
  8
0
100
AcDbLine
 62
7
  6
CONTINUOUS
 10
143.1352
 20
207.447
 11
143.7448
 21
207.447
  0
LINE
  5
458
100
AcDbEntity
  8
0
100
AcDbLine
 62
7
  6
CONTINUOUS
 10
145.6752
 20
207.447
 11
146.2848
 21
207.447
  0
LINE
  5
459
100
AcDbEntity
  8
0
100
AcDbLine
 62
7
  6
CONTINUOUS
 10
127.8952
 20
207.447
 11
127.8952
 21
202.748
  0
LINE
  5
45A
100
AcDbEntity
  8
0
100
AcDbLine
 62
7
  6
CONTINUOUS
 10
128.5048
 20
207.447
 11
128.5048
 21
202.748
  0
LINE
  5
45B
100
AcDbEntity
  8
0
100
AcDbLine
 62
7
  6
CONTINUOUS
 10
130.4352
 20
207.447
 11
130.4352
 21
202.748
  0
LINE
  5
45C
100
AcDbEntity
  8
0
100
AcDbLine
 62
7
  6
CONTINUOUS
 10
131.0448
 20
207.447
 11
131.0448
 21
202.748
  0
LINE
  5
45D
100
AcDbEntity
  8
0
100
AcDbLine
 62
7
  6
CONTINUOUS
 10
132.9752
 20
207.447
 11
132.9752
 21
202.748
  0
LINE
  5
45E
100
AcDbEntity
  8
0
100
AcDbLine
 62
7
  6
CONTINUOUS
 10
133.5848
 20
207.447
 11
133.5848
 21
202.748
  0
LINE
  5
45F
100
AcDbEntity
  8
0
100
AcDbLine
 62
7
  6
CONTINUOUS
 10
135.5152
 20
207.447
 11
135.5152
 21
202.748
  0
LINE
  5
460
100
AcDbEntity
  8
0
100
AcDbLine
 62
7
  6
CONTINUOUS
 10
136.1248
 20
207.447
 11
136.1248
 21
202.748
  0
LINE
  5
461
100
AcDbEntity
  8
0
100
AcDbLine
 62
7
  6
CONTINUOUS
 10
138.0552
 20
207.447
 11
138.0552
 21
202.748
  0
LINE
  5
462
100
AcDbEntity
  8
0
100
AcDbLine
 62
7
  6
CONTINUOUS
 10
138.6648
 20
207.447
 11
138.6648
 21
202.748
  0
LINE
  5
463
100
AcDbEntity
  8
0
100
AcDbLine
 62
7
  6
CONTINUOUS
 10
140.5952
 20
207.447
 11
140.5952
 21
202.748
  0
LINE
  5
464
100
AcDbEntity
  8
0
100
AcDbLine
 62
7
  6
CONTINUOUS
 10
141.2048
 20
207.447
 11
141.2048
 21
202.748
  0
LINE
  5
465
100
AcDbEntity
  8
0
100
AcDbLine
 62
7
  6
CONTINUOUS
 10
143.1352
 20
207.447
 11
143.1352
 21
202.748
  0
LINE
  5
466
100
AcDbEntity
  8
0
100
AcDbLine
 62
7
  6
CONTINUOUS
 10
143.7448
 20
207.447
 11
143.7448
 21
202.748
  0
LINE
  5
467
100
AcDbEntity
  8
0
100
AcDbLine
 62
7
  6
CONTINUOUS
 10
145.6752
 20
207.447
 11
145.6752
 21
202.748
  0
LINE
  5
468
100
AcDbEntity
  8
0
100
AcDbLine
 62
7
  6
CONTINUOUS
 10
146.2848
 20
207.447
 11
146.2848
 21
202.748
  0
LINE
  5
469
100
AcDbEntity
  8
0
100
AcDbLine
 62
7
  6
CONTINUOUS
 10
147.25
 20
204.272
 11
147.25
 21
203.129
  0
LINE
  5
46A
100
AcDbEntity
  8
0
100
AcDbLine
 62
7
  6
CONTINUOUS
 10
149.155
 20
197.668
 11
149.155
 21
204.272
  0
LINE
  5
46B
100
AcDbEntity
  8
0
100
AcDbLine
 62
7
  6
CONTINUOUS
 10
150.552
 20
197.922
 11
150.552
 21
188.778
  0
LINE
  5
46C
100
AcDbEntity
  8
0
100
AcDbLine
 62
7
  6
CONTINUOUS
 10
157.9815
 20
204.272
 11
157.9815
 21
197.922
  0
LINE
  5
46D
100
AcDbEntity
  8
0
100
AcDbLine
 62
7
  6
CONTINUOUS
 10
242.6655
 20
101.9861
 11
242.6655
 21
92.6389
  0
LINE
  5
46E
100
AcDbEntity
  8
0
100
AcDbLine
 62
7
  6
CONTINUOUS
 10
242.6655
 20
92.6389
 11
251.5555
 21
92.6389
  0
LINE
  5
46F
100
AcDbEntity
  8
0
100
AcDbLine
 62
7
  6
CONTINUOUS
 10
258.1595
 20
93.2739
 11
251.5555
 21
93.2739
  0
LINE
  5
470
100
AcDbEntity
  8
0
100
AcDbLine
 62
7
  6
CONTINUOUS
 10
251.5555
 20
93.5025
 11
258.1595
 21
93.5025
  0
LINE
  5
471
100
AcDbEntity
  8
0
100
AcDbLine
 62
7
  6
CONTINUOUS
 10
256.7871918328
 20
94.68741
 11
261.3345
 21
94.68741
  0
LINE
  5
472
100
AcDbEntity
  8
0
100
AcDbLine
 62
7
  6
CONTINUOUS
 10
261.3345
 20
95.08619
 11
256.6355
 21
95.08619
  0
LINE
  5
473
100
AcDbEntity
  8
0
100
AcDbLine
 62
7
  6
CONTINUOUS
 10
256.6355
 20
95.2805
 11
256.7625
 21
95.2805
  0
LINE
  5
474
100
AcDbEntity
  8
0
100
AcDbLine
 62
7
  6
CONTINUOUS
 10
256.8861903254
 20
99.9986531794
 11
258.1595
 21
100.4621
  0
LINE
  5
475
100
AcDbEntity
  8
0
100
AcDbLine
 62
7
  6
CONTINUOUS
 10
256.6355
 20
96.2965
 11
256.7625
 21
96.2965
  0
LINE
  5
476
100
AcDbEntity
  8
0
100
AcDbLine
 62
7
  6
CONTINUOUS
 10
258.1595
 20
94.1629
 11
256.8861903254
 21
94.6263468206
  0
LINE
  5
477
100
AcDbEntity
  8
0
100
AcDbLine
 62
7
  6
CONTINUOUS
 10
251.5555
 20
92.6389
 11
251.5555
 21
93.5025
  0
LINE
  5
478
100
AcDbEntity
  8
0
100
AcDbLine
 62
7
  6
CONTINUOUS
 10
251.5555
 20
101.1225
 11
251.5555
 21
101.9861
  0
LINE
  5
479
100
AcDbEntity
  8
0
100
AcDbLine
 62
7
  6
CONTINUOUS
 10
251.8095
 20
93.5025
 11
251.8095
 21
101.1225
  0
LINE
  5
47A
100
AcDbEntity
  8
0
100
AcDbLine
 62
7
  6
CONTINUOUS
 10
256.6355
 20
98.2015
 11
256.7625
 21
98.2015
  0
LINE
  5
47B
100
AcDbEntity
  8
0
100
AcDbLine
 62
7
  6
CONTINUOUS
 10
256.6355
 20
98.2231170187
 11
256.7625
 21
98.2231170187
  0
LINE
  5
47C
100
AcDbEntity
  8
0
100
AcDbLine
 62
7
  6
CONTINUOUS
 10
256.6355
 20
98.2663510561
 11
256.7625
 21
98.2663510561
  0
LINE
  5
47D
100
AcDbEntity
  8
0
100
AcDbLine
 62
7
  6
CONTINUOUS
 10
256.6355
 20
98.3528191309
 11
256.7625
 21
98.3528191309
  0
LINE
  5
47E
100
AcDbEntity
  8
0
100
AcDbLine
 62
7
  6
CONTINUOUS
 10
256.6355
 20
98.4392872057
 11
256.7625
 21
98.4392872057
  0
LINE
  5
47F
100
AcDbEntity
  8
0
100
AcDbLine
 62
7
  6
CONTINUOUS
 10
256.6355
 20
98.4825213037
 11
256.7625
 21
98.4825213037
  0
LINE
  5
480
100
AcDbEntity
  8
0
100
AcDbLine
 62
7
  6
CONTINUOUS
 10
256.6355
 20
98.5689893785
 11
256.7625
 21
98.5689893785
  0
LINE
  5
481
100
AcDbEntity
  8
0
100
AcDbLine
 62
7
  6
CONTINUOUS
 10
256.6355
 20
98.6338404346
 11
256.7625
 21
98.6338404346
  0
LINE
  5
482
100
AcDbEntity
  8
0
100
AcDbLine
 62
7
  6
CONTINUOUS
 10
256.6355
 20
99.1094148914
 11
256.7625
 21
99.1094148914
  0
LINE
  5
483
100
AcDbEntity
  8
0
100
AcDbLine
 62
7
  6
CONTINUOUS
 10
256.6355
 20
99.2175
 11
256.7625
 21
99.2175
  0
LINE
  5
484
100
AcDbEntity
  8
0
100
AcDbLine
 62
7
  6
CONTINUOUS
 10
256.6355
 20
99.53881
 11
261.3345
 21
99.53881
  0
LINE
  5
485
100
AcDbEntity
  8
0
100
AcDbLine
 62
7
  6
CONTINUOUS
 10
261.3345
 20
99.93759
 11
256.7871918328
 21
99.93759
  0
LINE
  5
486
100
AcDbEntity
  8
0
100
AcDbLine
 62
7
  6
CONTINUOUS
 10
258.1595
 20
101.1225
 11
251.5555
 21
101.1225
  0
LINE
  5
487
100
AcDbEntity
  8
0
100
AcDbLine
 62
7
  6
CONTINUOUS
 10
251.5555
 20
101.3511
 11
258.1595
 21
101.3511
  0
LINE
  5
488
100
AcDbEntity
  8
0
100
AcDbLine
 62
7
  6
CONTINUOUS
 10
256.6355
 20
94.9843697091
 11
256.6355
 21
99.6406302909
  0
LINE
  5
489
100
AcDbEntity
  8
0
100
AcDbLine
 62
7
  6
CONTINUOUS
 10
256.7625
 20
99.2175
 11
256.7625
 21
98.2015
  0
LINE
  5
48A
100
AcDbEntity
  8
0
100
AcDbLine
 62
7
  6
CONTINUOUS
 10
256.7625
 20
96.2965
 11
256.7625
 21
95.2805
  0
LINE
  5
48B
100
AcDbEntity
  8
0
100
AcDbLine
 62
7
  6
CONTINUOUS
 10
251.5555
 20
101.9861
 11
242.6655
 21
101.9861
  0
LINE
  5
48C
100
AcDbEntity
  8
0
100
AcDbLine
 62
7
  6
CONTINUOUS
 10
258.1595
 20
93.2739
 11
258.1595
 21
94.1629
  0
LINE
  5
48D
100
AcDbEntity
  8
0
100
AcDbLine
 62
7
  6
CONTINUOUS
 10
258.1595
 20
100.4621
 11
258.1595
 21
101.3511
  0
LINE
  5
48E
100
AcDbEntity
  8
0
100
AcDbLine
 62
7
  6
CONTINUOUS
 10
261.3345
 20
94.68741
 11
261.3345
 21
95.08619
  0
LINE
  5
48F
100
AcDbEntity
  8
0
100
AcDbLine
 62
7
  6
CONTINUOUS
 10
261.3345
 20
99.53881
 11
261.3345
 21
99.93759
  0
ARC
  5
490
100
AcDbEntity
  8
0
100
AcDbCircle
 62
7
  6
CONTINUOUS
 10
291.9904086584
 20
213.7048342013
 40
5.4840780485
100
AcDbArc
 50
180.7419310835
 51
182.8738898157
  0
ARC
  5
491
100
AcDbEntity
  8
0
100
AcDbCircle
 62
7
  6
CONTINUOUS
 10
289.6509134946
 20
213.7048342013
 40
5.4840780486
100
AcDbArc
 50
180.7419310835
 51
182.8738898156
  0
ARC
  5
492
100
AcDbEntity
  8
0
100
AcDbCircle
 62
7
  6
CONTINUOUS
 10
287.3114183307
 20
213.7048342013
 40
5.4840780485
100
AcDbArc
 50
180.7419310835
 51
182.8738898157
  0
ARC
  5
493
100
AcDbEntity
  8
0
100
AcDbCircle
 62
7
  6
CONTINUOUS
 10
284.9719231668
 20
213.7048342013
 40
5.4840780485
100
AcDbArc
 50
180.7419310835
 51
182.8738898157
  0
ARC
  5
494
100
AcDbEntity
  8
0
100
AcDbCircle
 62
7
  6
CONTINUOUS
 10
282.6324280029
 20
213.7048342013
 40
5.4840780485
100
AcDbArc
 50
180.7419310835
 51
182.8738898157
  0
ARC
  5
495
100
AcDbEntity
  8
0
100
AcDbCircle
 62
7
  6
CONTINUOUS
 10
280.292932839
 20
213.7048342013
 40
5.4840780485
100
AcDbArc
 50
180.7419310835
 51
182.8738898157
  0
ARC
  5
496
100
AcDbEntity
  8
0
100
AcDbCircle
 62
7
  6
CONTINUOUS
 10
277.9534376751
 20
213.7048342013
 40
5.4840780485
100
AcDbArc
 50
180.7419310835
 51
182.8738898157
  0
ARC
  5
497
100
AcDbEntity
  8
0
100
AcDbCircle
 62
7
  6
CONTINUOUS
 10
275.6139425112
 20
213.7048342013
 40
5.4840780485
100
AcDbArc
 50
180.7419310835
 51
182.8738898157
  0
ARC
  5
498
100
AcDbEntity
  8
0
100
AcDbCircle
 62
7
  6
CONTINUOUS
 10
273.2744473473
 20
213.7048342013
 40
5.4840780485
100
AcDbArc
 50
180.7419310835
 51
182.8738898157
  0
ARC
  5
499
100
AcDbEntity
  8
0
100
AcDbCircle
 62
7
  6
CONTINUOUS
 10
270.9349521835
 20
213.7048342013
 40
5.4840780485
100
AcDbArc
 50
180.7419310835
 51
182.8738898157
  0
ARC
  5
49A
100
AcDbEntity
  8
0
100
AcDbCircle
 62
7
  6
CONTINUOUS
 10
268.5954570196
 20
213.7048342013
 40
5.4840780485
100
AcDbArc
 50
180.7419310835
 51
182.8738898157
  0
ARC
  5
49B
100
AcDbEntity
  8
0
100
AcDbCircle
 62
7
  6
CONTINUOUS
 10
286.1650657004
 20
213.7048342013
 40
5.4840780486
100
AcDbArc
 50
180.7419310835
 51
182.8738898156
  0
ARC
  5
49C
100
AcDbEntity
  8
0
100
AcDbCircle
 62
7
  6
CONTINUOUS
 10
279.1465802087
 20
213.7048342013
 40
5.4840780485
100
AcDbArc
 50
180.7419310835
 51
182.8738898157
  0
ARC
  5
49D
100
AcDbEntity
  8
0
100
AcDbCircle
 62
7
  6
CONTINUOUS
 10
276.8070850448
 20
213.7048342013
 40
5.4840780485
100
AcDbArc
 50
180.7419310835
 51
182.8738898157
  0
ARC
  5
49E
100
AcDbEntity
  8
0
100
AcDbCircle
 62
7
  6
CONTINUOUS
 10
274.4675898809
 20
213.7048342013
 40
5.4840780485
100
AcDbArc
 50
180.7419310835
 51
182.8738898157
  0
ARC
  5
49F
100
AcDbEntity
  8
0
100
AcDbCircle
 62
7
  6
CONTINUOUS
 10
283.8255705365
 20
213.7048342013
 40
5.4840780485
100
AcDbArc
 50
180.7419310835
 51
182.8738898157
  0
ARC
  5
4A0
100
AcDbEntity
  8
0
100
AcDbCircle
 62
7
  6
CONTINUOUS
 10
272.1280947167
 20
213.7048342013
 40
5.4840780481
100
AcDbArc
 50
180.7419310834
 51
182.8738898157
  0
ARC
  5
4A1
100
AcDbEntity
  8
0
100
AcDbCircle
 62
7
  6
CONTINUOUS
 10
269.7885995531
 20
213.7048342013
 40
5.4840780484
100
AcDbArc
 50
180.7419310835
 51
182.8738898157
  0
ARC
  5
4A2
100
AcDbEntity
  8
0
100
AcDbCircle
 62
7
  6
CONTINUOUS
 10
290.844056028
 20
213.7048342013
 40
5.4840780484
100
AcDbArc
 50
180.7419310835
 51
182.8738898157
  0
ARC
  5
4A3
100
AcDbEntity
  8
0
100
AcDbCircle
 62
7
  6
CONTINUOUS
 10
281.4860753726
 20
213.7048342013
 40
5.4840780485
100
AcDbArc
 50
180.7419310835
 51
182.8738898157
  0
ARC
  5
4A4
100
AcDbEntity
  8
0
100
AcDbCircle
 62
7
  6
CONTINUOUS
 10
288.5045608641
 20
213.7048342013
 40
5.4840780484
100
AcDbArc
 50
180.7419310835
 51
182.8738898157
  0
ARC
  5
4A5
100
AcDbEntity
  8
0
100
AcDbCircle
 62
7
  6
CONTINUOUS
 10
256.8165254134
 20
220.781018008
 40
0.9024106231
100
AcDbArc
 50
203.961987579
 51
206.1511714912
  0
ARC
  5
4A6
100
AcDbEntity
  8
0
100
AcDbCircle
 62
7
  6
CONTINUOUS
 10
315.3853602976
 20
213.7048342013
 40
5.4840780489
100
AcDbArc
 50
180.7419310836
 51
182.8738898156
  0
ARC
  5
4A7
100
AcDbEntity
  8
0
100
AcDbCircle
 62
7
  6
CONTINUOUS
 10
324.7433409527
 20
213.7048342013
 40
5.4840780484
100
AcDbArc
 50
180.7419310835
 51
182.8738898157
  0
ARC
  5
4A8
100
AcDbEntity
  8
0
100
AcDbCircle
 62
7
  6
CONTINUOUS
 10
322.4038457888
 20
213.7048342013
 40
5.4840780484
100
AcDbArc
 50
180.7419310835
 51
182.8738898157
  0
ARC
  5
4A9
100
AcDbEntity
  8
0
100
AcDbCircle
 62
7
  6
CONTINUOUS
 10
320.064350625
 20
213.7048342013
 40
5.4840780485
100
AcDbArc
 50
180.7419310835
 51
182.8738898157
  0
ARC
  5
4AA
100
AcDbEntity
  8
0
100
AcDbCircle
 62
7
  6
CONTINUOUS
 10
317.7248554611
 20
213.7048342013
 40
5.4840780484
100
AcDbArc
 50
180.7419310835
 51
182.8738898157
  0
ARC
  5
4AB
100
AcDbEntity
  8
0
100
AcDbCircle
 62
7
  6
CONTINUOUS
 10
313.0458651333
 20
213.7048342013
 40
5.4840780484
100
AcDbArc
 50
180.7419310835
 51
182.8738898157
  0
ARC
  5
4AC
100
AcDbEntity
  8
0
100
AcDbCircle
 62
7
  6
CONTINUOUS
 10
310.7063699696
 20
213.7048342013
 40
5.4840780486
100
AcDbArc
 50
180.7419310835
 51
182.8738898156
  0
ARC
  5
4AD
100
AcDbEntity
  8
0
100
AcDbCircle
 62
7
  6
CONTINUOUS
 10
308.3668748056
 20
213.7048342013
 40
5.4840780485
100
AcDbArc
 50
180.7419310835
 51
182.8738898157
  0
ARC
  5
4AE
100
AcDbEntity
  8
0
100
AcDbCircle
 62
7
  6
CONTINUOUS
 10
306.0273796415
 20
213.7048342013
 40
5.4840780482
100
AcDbArc
 50
180.7419310834
 51
182.8738898157
  0
ARC
  5
4AF
100
AcDbEntity
  8
0
100
AcDbCircle
 62
7
  6
CONTINUOUS
 10
303.6878844779
 20
213.7048342013
 40
5.4840780485
100
AcDbArc
 50
180.7419310835
 51
182.8738898157
  0
ARC
  5
4B0
100
AcDbEntity
  8
0
100
AcDbCircle
 62
7
  6
CONTINUOUS
 10
301.348389314
 20
213.7048342013
 40
5.4840780485
100
AcDbArc
 50
180.7419310835
 51
182.8738898157
  0
ARC
  5
4B1
100
AcDbEntity
  8
0
100
AcDbCircle
 62
7
  6
CONTINUOUS
 10
299.0088941502
 20
213.7048342013
 40
5.4840780486
100
AcDbArc
 50
180.7419310835
 51
182.8738898156
  0
ARC
  5
4B2
100
AcDbEntity
  8
0
100
AcDbCircle
 62
7
  6
CONTINUOUS
 10
296.6693989861
 20
213.7048342013
 40
5.4840780484
100
AcDbArc
 50
180.7419310835
 51
182.8738898157
  0
ARC
  5
4B3
100
AcDbEntity
  8
0
100
AcDbCircle
 62
7
  6
CONTINUOUS
 10
294.3299038223
 20
213.7048342013
 40
5.4840780485
100
AcDbArc
 50
180.7419310835
 51
182.8738898157
  0
ARC
  5
4B4
100
AcDbEntity
  8
0
100
AcDbCircle
 62
7
  6
CONTINUOUS
 10
293.1835511921
 20
213.7048342013
 40
5.4840780486
100
AcDbArc
 50
180.7419310835
 51
182.8738898156
  0
ARC
  5
4B5
100
AcDbEntity
  8
0
100
AcDbCircle
 62
7
  6
CONTINUOUS
 10
309.5600173393
 20
213.7048342013
 40
5.4840780486
100
AcDbArc
 50
180.7419310835
 51
182.8738898156
  0
ARC
  5
4B6
100
AcDbEntity
  8
0
100
AcDbCircle
 62
7
  6
CONTINUOUS
 10
314.2390076666
 20
213.7048342013
 40
5.4840780482
100
AcDbArc
 50
180.7419310834
 51
182.8738898157
  0
ARC
  5
4B7
100
AcDbEntity
  8
0
100
AcDbCircle
 62
7
  6
CONTINUOUS
 10
307.2205221753
 20
213.7048342013
 40
5.4840780485
100
AcDbArc
 50
180.7419310835
 51
182.8738898157
  0
ARC
  5
4B8
100
AcDbEntity
  8
0
100
AcDbCircle
 62
7
  6
CONTINUOUS
 10
323.5969883224
 20
213.7048342013
 40
5.4840780484
100
AcDbArc
 50
180.7419310835
 51
182.8738898157
  0
ARC
  5
4B9
100
AcDbEntity
  8
0
100
AcDbCircle
 62
7
  6
CONTINUOUS
 10
297.8625415198
 20
213.7048342013
 40
5.4840780485
100
AcDbArc
 50
180.7419310835
 51
182.8738898157
  0
ARC
  5
4BA
100
AcDbEntity
  8
0
100
AcDbCircle
 62
7
  6
CONTINUOUS
 10
318.9179979947
 20
213.7048342013
 40
5.4840780485
100
AcDbArc
 50
180.7419310835
 51
182.8738898157
  0
ARC
  5
4BB
100
AcDbEntity
  8
0
100
AcDbCircle
 62
7
  6
CONTINUOUS
 10
325.9364834864
 20
213.7048342013
 40
5.4840780485
100
AcDbArc
 50
180.7419310835
 51
182.8738898157
  0
ARC
  5
4BC
100
AcDbEntity
  8
0
100
AcDbCircle
 62
7
  6
CONTINUOUS
 10
295.5230463559
 20
213.7048342013
 40
5.4840780485
100
AcDbArc
 50
180.7419310835
 51
182.8738898157
  0
ARC
  5
4BD
100
AcDbEntity
  8
0
100
AcDbCircle
 62
7
  6
CONTINUOUS
 10
304.8810270114
 20
213.7048342013
 40
5.4840780485
100
AcDbArc
 50
180.7419310835
 51
182.8738898157
  0
ARC
  5
4BE
100
AcDbEntity
  8
0
100
AcDbCircle
 62
7
  6
CONTINUOUS
 10
311.8995125031
 20
213.7048342013
 40
5.4840780485
100
AcDbArc
 50
180.7419310835
 51
182.8738898157
  0
ARC
  5
4BF
100
AcDbEntity
  8
0
100
AcDbCircle
 62
7
  6
CONTINUOUS
 10
302.5415318475
 20
213.7048342013
 40
5.4840780485
100
AcDbArc
 50
180.7419310835
 51
182.8738898157
  0
ARC
  5
4C0
100
AcDbEntity
  8
0
100
AcDbCircle
 62
7
  6
CONTINUOUS
 10
316.5785028309
 20
213.7048342013
 40
5.4840780485
100
AcDbArc
 50
180.7419310835
 51
182.8738898157
  0
ARC
  5
4C1
100
AcDbEntity
  8
0
100
AcDbCircle
 62
7
  6
CONTINUOUS
 10
321.2574931585
 20
213.7048342013
 40
5.4840780484
100
AcDbArc
 50
180.7419310835
 51
182.8738898157
  0
ARC
  5
4C2
100
AcDbEntity
  8
0
100
AcDbCircle
 62
7
  6
CONTINUOUS
 10
300.2020366836
 20
213.7048342013
 40
5.4840780484
100
AcDbArc
 50
180.7419310835
 51
182.8738898157
  0
ARC
  5
4C3
100
AcDbEntity
  8
0
100
AcDbCircle
 62
7
  6
CONTINUOUS
 10
328.7560017032
 20
220.7810180081
 40
0.9024106235
100
AcDbArc
 50
203.9619875794
 51
206.1511714906
  0
CIRCLE
  5
4C4
100
AcDbEntity
  8
0
100
AcDbCircle
 62
7
  6
CONTINUOUS
 10
154.5525
 20
97.3125
 40
1.6256
  0
CIRCLE
  5
4C5
100
AcDbEntity
  8
0
100
AcDbCircle
 62
7
  6
CONTINUOUS
 10
76.4475
 20
97.3125
 40
1.6256
  0
CIRCLE
  5
4C6
100
AcDbEntity
  8
0
100
AcDbCircle
 62
7
  6
CONTINUOUS
 10
148.52
 20
100.0557
 40
0.8128
  0
ARC
  5
4C7
100
AcDbEntity
  8
0
100
AcDbCircle
 62
7
  6
CONTINUOUS
 10
146.869
 20
203.129
 40
0.381
100
AcDbArc
 50
270.0
 51
360.0
  0
ARC
  5
4C8
100
AcDbEntity
  8
0
100
AcDbCircle
 62
7
  6
CONTINUOUS
 10
84.131
 20
203.129
 40
0.381
100
AcDbArc
 50
180.0
 51
270.0
  0
ARC
  5
4C9
100
AcDbEntity
  8
0
100
AcDbCircle
 62
7
  6
CONTINUOUS
 10
257.0165
 20
99.6406302909
 40
0.381
100
AcDbArc
 50
110.0
 51
180.0
  0
ARC
  5
4CA
100
AcDbEntity
  8
0
100
AcDbCircle
 62
7
  6
CONTINUOUS
 10
257.0165
 20
94.9843697091
 40
0.381
100
AcDbArc
 50
180.0
 51
250.0
  0
SPLINE
  5
4CB
100
AcDbEntity
  8
0
100
AcDbSpline
 62
7
  6
CONTINUOUS
 70
0
 71
3
 72
13
 73
9
 74
0
 42
0.0000001
 43
0.0000001
 44
0.0000000001
 40
0.0
 40
0.0
 40
0.0
 40
0.0
 40
0.0962466053
 40
0.1961431461
 40
0.4186790125
 40
0.5461983776
 40
0.6855289341
 40
1.0
 40
1.0
 40
1.0
 40
1.0
 10
334.3302255461
 20
221.8505367707
 30
0.0
 10
334.326057247
 20
221.8505280663
 30
0.0
 10
334.3175341713
 20
221.8514477594
 30
0.0
 10
334.3002032688
 20
221.857149606
 30
0.0
 10
334.2838997371
 20
221.8685609855
 30
0.0
 10
334.2691523064
 20
221.8837954479
 30
0.0
 10
334.2536785487
 20
221.9037171272
 30
0.0
 10
334.2438843462
 20
221.9208837715
 30
0.0
 10
334.2378844614
 20
221.9331102582
 30
0.0
  0
SPLINE
  5
4CC
100
AcDbEntity
  8
0
100
AcDbSpline
 62
7
  6
CONTINUOUS
 70
0
 71
3
 72
11
 73
7
 74
0
 42
0.0000001
 43
0.0000001
 44
0.0000000001
 40
0.0
 40
0.0
 40
0.0
 40
0.0
 40
0.233663881
 40
0.4745869636
 40
0.7288023041
 40
1.0
 40
1.0
 40
1.0
 40
1.0
 10
330.7542129357
 20
219.1196928605
 30
0.0
 10
330.7656092114
 20
219.1565010386
 30
0.0
 10
330.7806126516
 20
219.2340421427
 30
0.0
 10
330.7779874233
 20
219.3549997457
 30
0.0
 10
330.7508050381
 20
219.4791099127
 30
0.0
 10
330.7181568756
 20
219.5598153452
 30
0.0
 10
330.6984551585
 20
219.5999632465
 30
0.0
  0
SPLINE
  5
4CD
100
AcDbEntity
  8
0
100
AcDbSpline
 62
7
  6
CONTINUOUS
 70
0
 71
3
 72
25
 73
21
 74
0
 42
0.0000001
 43
0.0000001
 44
0.0000000001
 40
0.0
 40
0.0
 40
0.0
 40
0.0
 40
0.0542887267
 40
0.1139536792
 40
0.1785406411
 40
0.2473458824
 40
0.3194096295
 40
0.393492918
 40
0.468267832
 40
0.5423597197
 40
0.6144458957
 40
0.6833010947
 40
0.7479173094
 40
0.8075653127
 40
0.8354416275
 40
0.8620133101
 40
0.9114065175
 40
0.9567927203
 40
0.9785452196
 40
1.0
 40
1.0
 40
1.0
 40
1.0
 10
321.3432729551
 20
214.1424219479
 30
0.0
 10
321.3289554249
 20
214.1715980236
 30
0.0
 10
321.2925044399
 20
214.2297779707
 30
0.0
 10
321.2218443266
 20
214.3104320593
 30
0.0
 10
321.1343238664
 20
214.386398082
 30
0.0
 10
321.0324545378
 20
214.4557605354
 30
0.0
 10
320.9188585293
 20
214.5166814226
 30
0.0
 10
320.7965897841
 20
214.5676217025
 30
0.0
 10
320.6688933051
 20
214.6071211664
 30
0.0
 10
320.5392137463
 20
214.634190888
 30
0.0
 10
320.4110154606
 20
214.6480677481
 30
0.0
 10
320.2877043759
 20
214.6483937118
 30
0.0
 10
320.172568416
 20
214.6351473908
 30
0.0
 10
320.0839541882
 20
214.6125372329
 30
0.0
 10
320.0202926047
 20
214.587560077
 30
0.0
 10
319.9646063941
 20
214.5597860956
 30
0.0
 10
319.9044618661
 20
214.5180289413
 30
0.0
 10
319.8575865998
 20
214.465213406
 30
0.0
 10
319.831344784
 20
214.4189470929
 30
0.0
 10
319.8218924731
 20
214.3947538375
 30
0.0
 10
319.81809632
 20
214.3824838207
 30
0.0
  0
SPLINE
  5
4CE
100
AcDbEntity
  8
0
100
AcDbSpline
 62
7
  6
CONTINUOUS
 70
0
 71
3
 72
9
 73
5
 74
0
 42
0.0000001
 43
0.0000001
 44
0.0000000001
 40
0.0
 40
0.0
 40
0.0
 40
0.0
 40
0.4908303832
 40
1.0
 40
1.0
 40
1.0
 40
1.0
 10
321.3826488313
 20
213.9647969245
 30
0.0
 10
321.3835805854
 20
213.9789756608
 30
0.0
 10
321.3832765667
 20
214.0080410104
 30
0.0
 10
321.3788925449
 20
214.0367554958
 30
0.0
 10
321.3757445729
 20
214.0511556583
 30
0.0
  0
SPLINE
  5
4CF
100
AcDbEntity
  8
0
100
AcDbSpline
 62
7
  6
CONTINUOUS
 70
0
 71
3
 72
9
 73
5
 74
0
 42
0.0000001
 43
0.0000001
 44
0.0000000001
 40
0.0
 40
0.0
 40
0.0
 40
0.0
 40
0.2410306341
 40
1.0
 40
1.0
 40
1.0
 40
1.0
 10
321.3757445729
 20
214.0511556583
 30
0.0
 10
321.3740801052
 20
214.0587696414
 30
0.0
 10
321.3661101559
 20
214.0901235531
 30
0.0
 10
321.3540845216
 20
214.1203902793
 30
0.0
 10
321.3432729551
 20
214.1424219479
 30
0.0
  0
SPLINE
  5
4D0
100
AcDbEntity
  8
0
100
AcDbSpline
 62
7
  6
CONTINUOUS
 70
0
 71
3
 72
26
 73
22
 74
0
 42
0.0000001
 43
0.0000001
 44
0.0000000001
 40
0.0
 40
0.0
 40
0.0
 40
0.0
 40
0.0581161625
 40
0.1209834248
 40
0.1880547603
 40
0.2585419479
 40
0.3313948049
 40
0.4054590241
 40
0.4795140039
 40
0.5523508471
 40
0.6228056621
 40
0.6898586924
 40
0.7526658024
 40
0.8106895152
 40
0.8378549386
 40
0.8638043321
 40
0.9122594914
 40
0.9350715908
 40
0.9571499869
 40
0.9787102826
 40
1.0
 40
1.0
 40
1.0
 40
1.0
 10
258.67881502
 20
219.7355926734
 30
0.0
 10
258.6409662039
 20
219.7903183516
 30
0.0
 10
258.5527042499
 20
219.8978496579
 30
0.0
 10
258.3946104455
 20
220.0447619374
 30
0.0
 10
258.2092574513
 20
220.1808350776
 30
0.0
 10
258.001037543
 20
220.3027690006
 30
0.0
 10
257.774955241
 20
220.4077531884
 30
0.0
 10
257.5364500182
 20
220.4931672291
 30
0.0
 10
257.2912989159
 20
220.5569670307
 30
0.0
 10
257.0454388882
 20
220.5976617377
 30
0.0
 10
256.8047851776
 20
220.6141603215
 30
0.0
 10
256.5751116422
 20
220.6062059059
 30
0.0
 10
256.3619320966
 20
220.5737614767
 30
0.0
 10
256.1986426046
 20
220.5260353002
 30
0.0
 10
256.0816544345
 20
220.4755803467
 30
0.0
 10
255.9792202726
 20
220.4203462199
 30
0.0
 10
255.8888298925
 20
220.3536997723
 30
0.0
 10
255.8151034795
 20
220.2760177707
 30
0.0
 10
255.7697627739
 20
220.2146595077
 30
0.0
 10
255.7336416357
 20
220.1494456241
 30
0.0
 10
255.7158765315
 20
220.1035183743
 30
0.0
 10
255.7086672821
 20
220.0802336326
 30
0.0
  0
SPLINE
  5
4D1
100
AcDbEntity
  8
0
100
AcDbSpline
 62
7
  6
CONTINUOUS
 70
0
 71
3
 72
29
 73
25
 74
0
 42
0.0000001
 43
0.0000001
 44
0.0000000001
 40
0.0
 40
0.0
 40
0.0
 40
0.0
 40
0.0542937939
 40
0.1139329884
 40
0.1456508881
 40
0.1785234938
 40
0.2473215549
 40
0.3193685335
 40
0.3934356047
 40
0.4681912049
 40
0.5422700184
 40
0.6143395317
 40
0.6492465452
 40
0.6832124062
 40
0.7478125549
 40
0.7783040525
 40
0.8074993632
 40
0.8353695974
 40
0.8619331178
 40
0.9113253218
 40
0.9344667795
 40
0.9567958178
 40
0.9785488958
 40
1.0
 40
1.0
 40
1.0
 40
1.0
 10
330.6984551585
 20
219.5999632465
 30
0.0
 10
330.6698129815
 20
219.6583299003
 30
0.0
 10
330.5969483212
 20
219.7746996966
 30
0.0
 10
330.4815967216
 20
219.9063210573
 30
0.0
 10
330.3727494855
 20
220.0078500741
 30
0.0
 10
330.2492276549
 20
220.1092718214
 30
0.0
 10
330.0768535128
 20
220.2265733279
 30
0.0
 10
329.8497359307
 20
220.3484928696
 30
0.0
 10
329.6051802839
 20
220.450288855
 30
0.0
 10
329.3498280781
 20
220.5293651647
 30
0.0
 10
329.0904895436
 20
220.5834543092
 30
0.0
 10
328.8745382986
 20
220.6068881667
 30
0.0
 10
328.7057460519
 20
220.6115777863
 30
0.0
 10
328.5459235793
 20
220.607159035
 30
0.0
 10
328.3918967447
 20
220.5894298868
 30
0.0
 10
328.2464917781
 20
220.5571750164
 30
0.0
 10
328.1459886409
 20
220.5269467426
 30
0.0
 10
328.0526299433
 20
220.490324124
 30
0.0
 10
327.9413073745
 20
220.4347617956
 30
0.0
 10
327.8428653968
 20
220.3664985601
 30
0.0
 10
327.7626502019
 20
220.2856981028
 30
0.0
 10
327.7135574344
 20
220.2215941136
 30
0.0
 10
327.6746643363
 20
220.1531530382
 30
0.0
 10
327.6557408627
 20
220.104771688
 30
0.0
 10
327.6481435716
 20
220.0802336326
 30
0.0
  0
SPLINE
  5
4D2
100
AcDbEntity
  8
0
100
AcDbSpline
 62
7
  6
CONTINUOUS
 70
0
 71
3
 72
11
 73
7
 74
0
 42
0.0000001
 43
0.0000001
 44
0.0000000001
 40
0.0
 40
0.0
 40
0.0
 40
0.0
 40
0.2838645317
 40
0.5450791333
 40
0.7834890152
 40
1.0
 40
1.0
 40
1.0
 40
1.0
 10
260.6035643452
 20
213.9647969245
 30
0.0
 10
260.6167095181
 20
213.9380098632
 30
0.0
 10
260.643729501
 20
213.887411919
 30
0.0
 10
260.6884870233
 20
213.818143006
 30
0.0
 10
260.7355139924
 20
213.7591903074
 30
0.0
 10
260.7697105716
 20
213.7255216276
 30
0.0
 10
260.7870997068
 20
213.7108391204
 30
0.0
  0
SPLINE
  5
4D3
100
AcDbEntity
  8
0
100
AcDbSpline
 62
7
  6
CONTINUOUS
 70
0
 71
3
 72
14
 73
10
 74
0
 42
0.0000001
 43
0.0000001
 44
0.0000000001
 40
0.0
 40
0.0
 40
0.0
 40
0.0
 40
0.1001744797
 40
0.2120041133
 40
0.3333451196
 40
0.4619523548
 40
0.7316647023
 40
0.8676102259
 40
1.0
 40
1.0
 40
1.0
 40
1.0
 10
332.8175310572
 20
224.8274878426
 30
0.0
 10
332.8112542984
 20
224.8402785396
 30
0.0
 10
332.7997546698
 20
224.8682318185
 30
0.0
 10
332.7859014339
 20
224.9136258628
 30
0.0
 10
332.7748268014
 20
224.9639289748
 30
0.0
 10
332.7640569232
 20
225.0370947708
 30
0.0
 10
332.7601800124
 20
225.1132115541
 30
0.0
 10
332.7629377022
 20
225.1897144276
 30
0.0
 10
332.7665790748
 20
225.227737764
 30
0.0
 10
332.7690027963
 20
225.2464108927
 30
0.0
  0
SPLINE
  5
4D4
100
AcDbEntity
  8
0
100
AcDbSpline
 62
7
  6
CONTINUOUS
 70
0
 71
3
 72
15
 73
11
 74
0
 42
0.0000001
 43
0.0000001
 44
0.0000000001
 40
0.0
 40
0.0
 40
0.0
 40
0.0
 40
0.1113526947
 40
0.2301548968
 40
0.3549502576
 40
0.4840508297
 40
0.6154399746
 40
0.7468646067
 40
0.8759674467
 40
1.0
 40
1.0
 40
1.0
 40
1.0
 10
322.5036266768
 20
226.1891802778
 30
0.0
 10
322.4974123919
 20
226.1690708258
 30
0.0
 10
322.4799544712
 20
226.1288585108
 30
0.0
 10
322.4424135911
 20
226.072879408
 30
0.0
 10
322.393815716
 20
226.0214649365
 30
0.0
 10
322.3362572435
 20
225.9764312854
 30
0.0
 10
322.2717652398
 20
225.9394872666
 30
0.0
 10
322.20274976
 20
225.9118733184
 30
0.0
 10
322.1318255654
 20
225.8948760824
 30
0.0
 10
322.0839196865
 20
225.8907327143
 30
0.0
 10
322.0604752153
 20
225.8907327143
 30
0.0
  0
SPLINE
  5
4D5
100
AcDbEntity
  8
0
100
AcDbSpline
 62
7
  6
CONTINUOUS
 70
0
 71
3
 72
14
 73
10
 74
0
 42
0.0000001
 43
0.0000001
 44
0.0000000001
 40
0.0
 40
0.0
 40
0.0
 40
0.0
 40
0.2770323734
 40
0.4084701011
 40
0.5345557721
 40
0.6557502918
 40
0.7729218976
 40
0.887196452
 40
1.0
 40
1.0
 40
1.0
 40
1.0
 10
264.2749446673
 20
225.8907327143
 30
0.0
 10
264.2475438446
 20
225.8907327143
 30
0.0
 10
264.2069089605
 20
225.894838711
 30
0.0
 10
264.1559802704
 20
225.9094322888
 30
0.0
 10
264.1215154745
 20
225.924415241
 30
0.0
 10
264.0907020634
 20
225.9433617164
 30
0.0
 10
264.063947291
 20
225.9659614355
 30
0.0
 10
264.0417007793
 20
225.9919327731
 30
0.0
 10
264.0300775038
 20
226.0112973912
 30
0.0
 10
264.0251593728
 20
226.0213121531
 30
0.0
  0
SPLINE
  5
4D6
100
AcDbEntity
  8
0
100
AcDbSpline
 62
7
  6
CONTINUOUS
 70
0
 71
3
 72
26
 73
22
 74
0
 42
0.0000001
 43
0.0000001
 44
0.0000000001
 40
0.0
 40
0.0
 40
0.0
 40
0.0
 40
0.0197749071
 40
0.0390711956
 40
0.0582800862
 40
0.0778260049
 40
0.1193669765
 40
0.142005087
 40
0.1661188315
 40
0.2191129154
 40
0.2787073063
 40
0.3443846357
 40
0.4150952205
 40
0.489450177
 40
0.5658102311
 40
0.6426641049
 40
0.71874671
 40
0.7930388596
 40
0.8649045204
 40
0.9339891305
 40
1.0
 40
1.0
 40
1.0
 40
1.0
 10
321.3717544155
 20
213.90443155
 30
0.0
 10
321.368766263
 20
213.8948839522
 30
0.0
 10
321.361588542
 20
213.8763844562
 30
0.0
 10
321.3470006278
 20
213.850642118
 30
0.0
 10
321.3287948048
 20
213.827456109
 30
0.0
 10
321.2992730248
 20
213.7993753718
 30
0.0
 10
321.2629556406
 20
213.776700423
 30
0.0
 10
321.2220183797
 20
213.7587746696
 30
0.0
 10
321.1742065364
 20
213.7424513969
 30
0.0
 10
321.1065582131
 20
213.7272373589
 30
0.0
 10
321.0169915686
 20
213.7159752894
 30
0.0
 10
320.9179242981
 20
213.7105704002
 30
0.0
 10
320.8112638935
 20
213.7106231098
 30
0.0
 10
320.6993338413
 20
213.7161283585
 30
0.0
 10
320.5847178709
 20
213.7275127365
 30
0.0
 10
320.4700184608
 20
213.7453087599
 30
0.0
 10
320.3577338918
 20
213.770419358
 30
0.0
 10
320.2501983577
 20
213.8037418512
 30
0.0
 10
320.1497253981
 20
213.8463371875
 30
0.0
 10
320.0588793431
 20
213.8989710492
 30
0.0
 10
320.0051033234
 20
213.9417330417
 30
0.0
 10
319.9809514762
 20
213.9647969245
 30
0.0
  0
SPLINE
  5
4D7
100
AcDbEntity
  8
0
100
AcDbSpline
 62
7
  6
CONTINUOUS
 70
0
 71
3
 72
11
 73
7
 74
0
 42
0.0000001
 43
0.0000001
 44
0.0000000001
 40
0.0
 40
0.0
 40
0.0
 40
0.0
 40
0.233663881
 40
0.4745869636
 40
0.7288023041
 40
1.0
 40
1.0
 40
1.0
 40
1.0
 10
255.7086672821
 20
220.0802336326
 30
0.0
 10
255.6972710065
 20
220.0434254545
 30
0.0
 10
255.6822675662
 20
219.9658843504
 30
0.0
 10
255.6848927945
 20
219.8449267474
 30
0.0
 10
255.7120751797
 20
219.7208165804
 30
0.0
 10
255.7447233422
 20
219.6401111479
 30
0.0
 10
255.7644250593
 20
219.5999632465
 30
0.0
  0
SPLINE
  5
4D8
100
AcDbEntity
  8
0
100
AcDbSpline
 62
7
  6
CONTINUOUS
 70
0
 71
3
 72
9
 73
5
 74
0
 42
0.0000001
 43
0.0000001
 44
0.0000000001
 40
0.0
 40
0.0
 40
0.0
 40
0.0
 40
0.4751797711
 40
1.0
 40
1.0
 40
1.0
 40
1.0
 10
319.8459960503
 20
214.1424219479
 30
0.0
 10
319.8616216437
 20
214.1105803181
 30
0.0
 10
319.9020585993
 20
214.0471906266
 30
0.0
 10
319.9526202938
 20
213.9918518769
 30
0.0
 10
319.9809514762
 20
213.9647969245
 30
0.0
  0
SPLINE
  5
4D9
100
AcDbEntity
  8
0
100
AcDbSpline
 62
7
  6
CONTINUOUS
 70
0
 71
3
 72
11
 73
7
 74
0
 42
0.0000001
 43
0.0000001
 44
0.0000000001
 40
0.0
 40
0.0
 40
0.0
 40
0.0
 40
0.233663881
 40
0.4745869636
 40
0.7288023041
 40
1.0
 40
1.0
 40
1.0
 40
1.0
 10
327.6481435716
 20
220.0802336326
 30
0.0
 10
327.636747296
 20
220.0434254545
 30
0.0
 10
327.6217438557
 20
219.9658843504
 30
0.0
 10
327.624369084
 20
219.8449267474
 30
0.0
 10
327.6515514692
 20
219.7208165804
 30
0.0
 10
327.6841996317
 20
219.6401111479
 30
0.0
 10
327.7039013488
 20
219.5999632465
 30
0.0
  0
SPLINE
  5
4DA
100
AcDbEntity
  8
0
100
AcDbSpline
 62
7
  6
CONTINUOUS
 70
0
 71
3
 72
21
 73
17
 74
0
 42
0.0000001
 43
0.0000001
 44
0.0000000001
 40
0.0
 40
0.0
 40
0.0
 40
0.0
 40
0.0499213884
 40
0.1036540508
 40
0.161023183
 40
0.2217483981
 40
0.285449702
 40
0.3516161389
 40
0.4886626177
 40
0.6274170414
 40
0.6956683266
 40
0.7622020077
 40
0.8263927867
 40
0.8876877328
 40
0.9456498545
 40
1.0
 40
1.0
 40
1.0
 40
1.0
 10
255.7644250593
 20
219.5999632465
 30
0.0
 10
255.7858661391
 20
219.5562708948
 30
0.0
 10
255.8375037089
 20
219.4689524154
 30
0.0
 10
255.9341323984
 20
219.3447983949
 30
0.0
 10
256.0514123554
 20
219.2247356068
 30
0.0
 10
256.1873671288
 20
219.1106334664
 30
0.0
 10
256.3399413788
 20
219.0041726104
 30
0.0
 10
256.5649967681
 20
218.8730640743
 30
0.0
 10
256.8716368321
 20
218.7389691761
 30
0.0
 10
257.1959997617
 20
218.6489210562
 30
0.0
 10
257.4594085108
 20
218.6059424443
 30
0.0
 10
257.6528881966
 20
218.589327696
 30
0.0
 10
257.8403047218
 20
218.5883832766
 30
0.0
 10
258.0188067072
 20
218.6031054291
 30
0.0
 10
258.1856088833
 20
218.633375035
 30
0.0
 10
258.2908778285
 20
218.6645857221
 30
0.0
 10
258.3405904287
 20
218.6829249035
 30
0.0
  0
SPLINE
  5
4DB
100
AcDbEntity
  8
0
100
AcDbSpline
 62
7
  6
CONTINUOUS
 70
0
 71
3
 72
11
 73
7
 74
0
 42
0.0000001
 43
0.0000001
 44
0.0000000001
 40
0.0
 40
0.0
 40
0.0
 40
0.0
 40
0.2391200483
 40
0.483356271
 40
0.736402505
 40
1.0
 40
1.0
 40
1.0
 40
1.0
 10
264.0251593728
 20
226.0213121531
 30
0.0
 10
264.0191169456
 20
226.0336163131
 30
0.0
 10
264.0094518077
 20
226.0598359732
 30
0.0
 10
264.0032778708
 20
226.1018735285
 30
0.0
 10
264.0052857679
 20
226.145681647
 30
0.0
 10
264.011786108
 20
226.1747429367
 30
0.0
 10
264.0162475797
 20
226.1891802778
 30
0.0
  0
SPLINE
  5
4DC
100
AcDbEntity
  8
0
100
AcDbSpline
 62
7
  6
CONTINUOUS
 70
0
 71
3
 72
29
 73
25
 74
0
 42
0.0000001
 43
0.0000001
 44
0.0000000001
 40
0.0
 40
0.0
 40
0.0
 40
0.0
 40
0.0542937939
 40
0.1139329884
 40
0.1456508881
 40
0.1785234938
 40
0.2473215549
 40
0.3193685335
 40
0.3934356047
 40
0.4681912049
 40
0.5422700184
 40
0.6143395317
 40
0.6492465452
 40
0.6832124062
 40
0.7478125549
 40
0.7783040525
 40
0.8074993632
 40
0.8353695974
 40
0.8619331178
 40
0.9113253218
 40
0.9344667795
 40
0.9567958178
 40
0.9785488958
 40
1.0
 40
1.0
 40
1.0
 40
1.0
 10
327.7039013488
 20
219.5999632465
 30
0.0
 10
327.7325435259
 20
219.5415965928
 30
0.0
 10
327.8054081861
 20
219.4252267965
 30
0.0
 10
327.9207597858
 20
219.2936054358
 30
0.0
 10
328.0296070218
 20
219.192076419
 30
0.0
 10
328.1531288525
 20
219.0906546717
 30
0.0
 10
328.3255029945
 20
218.9733531652
 30
0.0
 10
328.5526205766
 20
218.8514336235
 30
0.0
 10
328.7971762234
 20
218.7496376381
 30
0.0
 10
329.0525284292
 20
218.6705613284
 30
0.0
 10
329.3118669638
 20
218.6164721839
 30
0.0
 10
329.5278182088
 20
218.5930383263
 30
0.0
 10
329.6966104554
 20
218.5883487068
 30
0.0
 10
329.8564329281
 20
218.5927674581
 30
0.0
 10
330.0104597626
 20
218.6104966063
 30
0.0
 10
330.1558647292
 20
218.6427514766
 30
0.0
 10
330.2563678664
 20
218.6729797505
 30
0.0
 10
330.3497265641
 20
218.7096023691
 30
0.0
 10
330.4610491328
 20
218.7651646975
 30
0.0
 10
330.5594911105
 20
218.833427933
 30
0.0
 10
330.6397063054
 20
218.9142283903
 30
0.0
 10
330.688799073
 20
218.9783323795
 30
0.0
 10
330.727692171
 20
219.0467734549
 30
0.0
 10
330.7466156447
 20
219.0951548051
 30
0.0
 10
330.7542129357
 20
219.1196928605
 30
0.0
  0
SPLINE
  5
4DD
100
AcDbEntity
  8
0
100
AcDbSpline
 62
7
  6
CONTINUOUS
 70
0
 71
3
 72
11
 73
7
 74
0
 42
0.0000001
 43
0.0000001
 44
0.0000000001
 40
0.0
 40
0.0
 40
0.0
 40
0.0
 40
0.2336942894
 40
0.4747238794
 40
0.7289496754
 40
1.0
 40
1.0
 40
1.0
 40
1.0
 10
319.81809632
 20
214.3824838207
 30
0.0
 10
319.8124031131
 20
214.364082101
 30
0.0
 10
319.8048996541
 20
214.3253117313
 30
0.0
 10
319.8062623317
 20
214.2648408275
 30
0.0
 10
319.8198450893
 20
214.2028109311
 30
0.0
 10
319.8361537273
 20
214.1624785048
 30
0.0
 10
319.8459960503
 20
214.1424219479
 30
0.0
  0
SPLINE
  5
4DE
100
AcDbEntity
  8
0
100
AcDbSpline
 62
7
  6
CONTINUOUS
 70
0
 71
3
 72
12
 73
8
 74
0
 42
0.0000001
 43
0.0000001
 44
0.0000000001
 40
0.0
 40
0.0
 40
0.0
 40
0.0
 40
0.2450161628
 40
0.4998012782
 40
0.6279022306
 40
0.7547908816
 40
1.0
 40
1.0
 40
1.0
 40
1.0
 10
320.3557030226
 20
214.6425437973
 30
0.0
 10
320.4072341274
 20
214.60803926
 30
0.0
 10
320.5182516706
 20
214.5462466284
 30
0.0
 10
320.6669797083
 20
214.4888253694
 30
0.0
 10
320.7915657947
 20
214.4548771626
 30
0.0
 10
320.9157687839
 20
214.4300298139
 30
0.0
 10
321.010010097
 20
214.4212877465
 30
0.0
 10
321.0720713372
 20
214.4205946767
 30
0.0
  0
SPLINE
  5
4DF
100
AcDbEntity
  8
0
100
AcDbSpline
 62
7
  6
CONTINUOUS
 70
0
 71
3
 72
11
 73
7
 74
0
 42
0.0000001
 43
0.0000001
 44
0.0000000001
 40
0.0
 40
0.0
 40
0.0
 40
0.0
 40
0.277070466
 40
0.5361763574
 40
0.7770624721
 40
1.0
 40
1.0
 40
1.0
 40
1.0
 10
259.1062874403
 20
213.9647969245
 30
0.0
 10
259.1171678692
 20
213.942624929
 30
0.0
 10
259.1394527364
 20
213.9003036726
 30
0.0
 10
259.1757607567
 20
213.8412469283
 30
0.0
 10
259.2136705804
 20
213.7890522737
 30
0.0
 10
259.2409121011
 20
213.7578472912
 30
0.0
 10
259.2547730425
 20
213.7436069232
 30
0.0
  0
SPLINE
  5
4E0
100
AcDbEntity
  8
0
100
AcDbSpline
 62
7
  6
CONTINUOUS
 70
0
 71
3
 72
9
 73
5
 74
0
 42
0.0000001
 43
0.0000001
 44
0.0000000001
 40
0.0
 40
0.0
 40
0.0
 40
0.0
 40
0.256586299
 40
1.0
 40
1.0
 40
1.0
 40
1.0
 10
259.2547730425
 20
213.7436069232
 30
0.0
 10
259.2576360467
 20
213.7406655477
 30
0.0
 10
259.2689227816
 20
213.7293285562
 30
0.0
 10
259.2807360599
 20
213.7185115063
 30
0.0
 10
259.2898228019
 20
213.7108391204
 30
0.0
  0
SPLINE
  5
4E1
100
AcDbEntity
  8
0
100
AcDbSpline
 62
7
  6
CONTINUOUS
 70
0
 71
3
 72
11
 73
7
 74
0
 42
0.0000001
 43
0.0000001
 44
0.0000000001
 40
0.0
 40
0.0
 40
0.0
 40
0.0
 40
0.3023032906
 40
0.5644922968
 40
0.7926487129
 40
1.0
 40
1.0
 40
1.0
 40
1.0
 10
334.4077799848
 20
221.9069321783
 30
0.0
 10
334.4024022444
 20
221.8984476273
 30
0.0
 10
334.3912988473
 20
221.883217961
 30
0.0
 10
334.3720816932
 20
221.8649413079
 30
0.0
 10
334.3516800874
 20
221.8533038705
 30
0.0
 10
334.3371156388
 20
221.8505511589
 30
0.0
 10
334.3302255461
 20
221.8505367707
 30
0.0
  0
SPLINE
  5
4E2
100
AcDbEntity
  8
0
100
AcDbSpline
 62
7
  6
CONTINUOUS
 70
0
 71
3
 72
22
 73
18
 74
0
 42
0.0000001
 43
0.0000001
 44
0.0000000001
 40
0.0
 40
0.0
 40
0.0
 40
0.0
 40
0.0499755003
 40
0.1038195088
 40
0.1613407214
 40
0.2222355894
 40
0.3523202852
 40
0.420473456
 40
0.4897441974
 40
0.5594055797
 40
0.6287090983
 40
0.6969223329
 40
0.763356507
 40
0.8273615299
 40
0.8883983121
 40
0.9460401776
 40
1.0
 40
1.0
 40
1.0
 40
1.0
 10
256.0064906826
 20
220.3832886181
 30
0.0
 10
256.0280952094
 20
220.3392631962
 30
0.0
 10
256.0802264105
 20
220.2512696363
 30
0.0
 10
256.1778615872
 20
220.1262021876
 30
0.0
 10
256.2964289756
 20
220.0052516986
 30
0.0
 10
256.4838880724
 20
219.8488116309
 30
0.0
 10
256.7005570595
 20
219.7130605656
 30
0.0
 10
256.9373393406
 20
219.5994118893
 30
0.0
 10
257.1267291458
 20
219.5251859241
 30
0.0
 10
257.3220323445
 20
219.4645159989
 30
0.0
 10
257.5201834329
 20
219.4182322633
 30
0.0
 10
257.7180968167
 20
219.3872504707
 30
0.0
 10
257.9126273219
 20
219.3718549264
 30
0.0
 10
258.1007484345
 20
219.3724305456
 30
0.0
 10
258.2795171413
 20
219.3889644324
 30
0.0
 10
258.4461461784
 20
219.4210825233
 30
0.0
 10
258.5509752185
 20
219.4538574684
 30
0.0
 10
258.6003571998
 20
219.4729671102
 30
0.0
  0
SPLINE
  5
4E3
100
AcDbEntity
  8
0
100
AcDbSpline
 62
7
  6
CONTINUOUS
 70
0
 71
3
 72
21
 73
17
 74
0
 42
0.0000001
 43
0.0000001
 44
0.0000000001
 40
0.0
 40
0.0
 40
0.0
 40
0.0
 40
0.0509608354
 40
0.1061731064
 40
0.1653888385
 40
0.2282197246
 40
0.2941507144
 40
0.3625156249
 40
0.5031328082
 40
0.6432500879
 40
0.7110154955
 40
0.7761540738
 40
0.8380161023
 40
0.8960979017
 40
0.9500958764
 40
1.0
 40
1.0
 40
1.0
 40
1.0
 10
327.9459669721
 20
220.3832886181
 30
0.0
 10
327.9694666978
 20
220.3354011845
 30
0.0
 10
328.0270187821
 20
220.2397391749
 30
0.0
 10
328.1359340795
 20
220.1046270794
 30
0.0
 10
328.2690854891
 20
219.9748355995
 30
0.0
 10
328.4238072658
 20
219.8527688568
 30
0.0
 10
328.5973094753
 20
219.7405566272
 30
0.0
 10
328.8517833662
 20
219.6055793965
 30
0.0
 10
329.1945354792
 20
219.4743472386
 30
0.0
 10
329.552739756
 20
219.3971955628
 30
0.0
 10
329.8377137734
 20
219.3720025878
 30
0.0
 10
330.0418809045
 20
219.3720320213
 30
0.0
 10
330.2350321398
 20
219.3907819924
 30
0.0
 10
330.4137193199
 20
219.4278468389
 30
0.0
 10
330.5746064013
 20
219.4828028609
 30
0.0
 10
330.671901466
 20
219.5326029011
 30
0.0
 10
330.7161048483
 20
219.5604367472
 30
0.0
  0
ELLIPSE
  5
4E4
100
AcDbEntity
  8
0
100
AcDbEllipse
 62
7
  6
CONTINUOUS
 10
260.2238346405
 20
215.1585871784
 30
0.0
 11
1.7249317503
 21
1.2723717781
 31
0.0
 40
0.4863010054
 41
3.0536604787
 42
3.7238039432
  0
ELLIPSE
  5
4E5
100
AcDbEntity
  8
0
100
AcDbEllipse
 62
7
  6
CONTINUOUS
 10
261.7230838392
 20
212.1034367761
 30
0.0
 11
1.7249317503
 21
1.2723717781
 31
0.0
 40
0.4863010054
 41
1.4828641519
 42
3.0536604787
  0
ELLIPSE
  5
4E6
100
AcDbEntity
  8
0
100
AcDbEllipse
 62
7
  6
CONTINUOUS
 10
322.5499581002
 20
212.1034367761
 30
0.0
 11
-1.1198140167
 21
1.5181119113
 31
0.0
 40
0.1195162777
 41
-2.5587285881
 42
-0.9879322613
  0
ELLIPSE
  5
4E7
100
AcDbEntity
  8
0
100
AcDbEllipse
 62
7
  6
CONTINUOUS
 10
321.0507089015
 20
215.1585871784
 30
0.0
 11
-1.1198140167
 21
1.5181119113
 31
0.0
 40
0.1195162777
 41
-3.2288720526
 42
-2.5587285881
  0
ELLIPSE
  5
4E8
100
AcDbEntity
  8
0
100
AcDbEllipse
 62
7
  6
CONTINUOUS
 10
148.52
 20
99.76995
 30
0.0
 11
1.524
 21
-0.0
 31
0.0
 40
1.0
 41
-1.5707963268
 42
0.0
  0
ELLIPSE
  5
4E9
100
AcDbEntity
  8
0
100
AcDbEllipse
 62
7
  6
CONTINUOUS
 10
82.48
 20
94.85505
 30
0.0
 11
1.524
 21
0.0
 31
0.0
 40
1.0
 41
1.5707963268
 42
3.1415926536
  0
ELLIPSE
  5
4EA
100
AcDbEntity
  8
0
100
AcDbEllipse
 62
7
  6
CONTINUOUS
 10
148.52
 20
94.85505
 30
0.0
 11
0.0
 21
1.524
 31
0.0
 40
1.0
 41
-1.5707963268
 42
-0.0
  0
ELLIPSE
  5
4EB
100
AcDbEntity
  8
0
100
AcDbEllipse
 62
7
  6
CONTINUOUS
 10
82.48
 20
99.76995
 30
0.0
 11
0.0
 21
1.524
 31
0.0
 40
1.0
 41
-4.7123889804
 42
-3.1415926536
  0
ENDSEC
  0
SECTION
  2
OBJECTS
  0
DICTIONARY
  5
4EC
100
AcDbDictionary
  3
ACAD_GROUP
350
4ED
  3
ACAD_MLINESTYLE
350
4EE
  0
DICTIONARY
  5
4ED
102
{ACAD_REACTORS
330
4EC
102
}
100
AcDbDictionary
  0
DICTIONARY
  5
4EE
102
{ACAD_REACTORS
330
4EC
102
}
100
AcDbDictionary
  3
STANDARD
350
4EF
  0
MLINESTYLE
  5
4EF
102
{ACAD_REACTORS
330
4EE
102
}
100
AcDbMlineStyle
  2
STANDARD
 70
0
  3

 62
256
 51
90.0
 52
90.0
 71
2
 49
0.5
 62
256
  6
BYLAYER
 49
-0.5
 62
256
  6
BYLAYER
  0
ENDSEC
  0
EOF
