<?xml version="1.0" encoding="UTF-8" standalone="no"?>
<svg
   xmlns:dc="http://purl.org/dc/elements/1.1/"
   xmlns:cc="http://creativecommons.org/ns#"
   xmlns:rdf="http://www.w3.org/1999/02/22-rdf-syntax-ns#"
   xmlns:svg="http://www.w3.org/2000/svg"
   xmlns="http://www.w3.org/2000/svg"
   xmlns:sodipodi="http://sodipodi.sourceforge.net/DTD/sodipodi-0.dtd"
   xmlns:inkscape="http://www.inkscape.org/namespaces/inkscape"
   width="190.60416mm"
   height="24.364841mm"
   viewBox="0 0 540.29525 69.065692"
   version="1.1"
   id="svg1115"
   sodipodi:docname="Ultra_msx-logo_txt-only.svg"
   inkscape:version="1.0.2-2 (e86c870879, 2021-01-15)"
   inkscape:export-filename="E:\Documents\Teknikprojekt\Hardware\MSX\MSX_Ultra\Docs\Design\Schema-Template-items\U-msx-logo.png"
   inkscape:export-xdpi="1200.0105"
   inkscape:export-ydpi="1200.0105">
  <metadata
     id="metadata1119">
    <rdf:RDF>
      <cc:Work
         rdf:about="">
        <dc:format>image/svg+xml</dc:format>
        <dc:type
           rdf:resource="http://purl.org/dc/dcmitype/StillImage" />
        <dc:title>Ultra_msx-logo_txt-only</dc:title>
      </cc:Work>
    </rdf:RDF>
  </metadata>
  <sodipodi:namedview
     pagecolor="#ffffff"
     bordercolor="#666666"
     borderopacity="1"
     objecttolerance="10"
     gridtolerance="10"
     guidetolerance="10"
     inkscape:pageopacity="0"
     inkscape:pageshadow="2"
     inkscape:window-width="1920"
     inkscape:window-height="1017"
     id="namedview1117"
     showgrid="false"
     inkscape:zoom="1.4742974"
     inkscape:cx="355.88019"
     inkscape:cy="114.03089"
     inkscape:window-x="-8"
     inkscape:window-y="-8"
     inkscape:window-maximized="1"
     inkscape:current-layer="layer1"
     inkscape:snap-page="true"
     inkscape:document-rotation="0"
     fit-margin-top="0"
     fit-margin-left="0"
     fit-margin-right="0"
     fit-margin-bottom="0" />
  <defs
     id="defs1087">
    <style
       id="style1085">
      .a {
        fill: #fff;
      }

      .b {
        fill: none;
        stroke: #3ead00;
        stroke-miterlimit: 10;
        stroke-width: 0.75px;
      }
    </style>
  </defs>
  <title
     id="title1089">Ultra_msx-logo_txt-only</title>
  <g
     inkscape:groupmode="layer"
     id="layer1"
     inkscape:label="black"
     transform="translate(8.6332126,4.316607)">
    <rect
       style="opacity:1;fill:#000000;stroke:#000000;stroke-width:0"
       id="rect1135"
       width="540.29523"
       height="69.065689"
       x="-8.6332121"
       y="-4.3166065" />
  </g>
  <g
     inkscape:groupmode="layer"
     id="layer2"
     inkscape:label="White"
     transform="translate(8.6332126,4.316607)"
     sodipodi:insensitive="true">
    <path
       class="a"
       d="M 253.52942,40.46844 243.4856,4.971 h -26.16669 l -19,61.33325 h 18.83337 l 4.22888,-12.73883 2.00088,-5.22307 14.0315,5.1e-4 2.00082,5.33547 4.11319,12.62592 h 17.12472 z M 222.5,35.86884 230.25,15.75 238,35.86884 Z"
       transform="translate(-9.2205,-4.97101)"
       id="path1113" />
    <path
       class="a"
       d="m 308.01209,35.4423 c 0,-1.69818 -1.13135,-3.27191 -2.18359,-4.5097 a 21.54005,21.54005 0 0 0 -1.7879,-1.84918 6.39366,6.39366 0 0 0 -2.07544,-1.41669 1.486,1.486 0 0 0 -0.28912,-0.01923 l -0.30615,-4.9e-4 c -3.8927,-0.0057 -15.12,0 -16.48279,0 -1.03662,0 -13.69989,-0.0057 -17.59259,0 l -0.30615,4.9e-4 a 1.486,1.486 0 0 0 -0.28912,0.01923 6.39366,6.39366 0 0 0 -2.07544,1.41669 21.54005,21.54005 0 0 0 -1.7879,1.84918 c -1.05225,1.23779 -2.18359,2.81152 -2.18359,4.5097 0,0.03717 0.007,0.07507 0.008,0.11237 -10e-4,0.03729 -0.008,0.0752 -0.008,0.11237 0,1.69818 1.13135,3.27191 2.18359,4.5097 a 21.54005,21.54005 0 0 0 1.7879,1.84918 6.39366,6.39366 0 0 0 2.07544,1.41669 1.486,1.486 0 0 0 0.28912,0.01923 l 0.30615,4.9e-4 c 3.8927,0.0057 16.556,0 17.59259,0 1.36279,0 12.59009,0.0057 16.48279,0 l 0.30615,-4.9e-4 a 1.486,1.486 0 0 0 0.28912,-0.01923 6.39366,6.39366 0 0 0 2.07544,-1.41669 21.54005,21.54005 0 0 0 1.7879,-1.84918 c 1.05225,-1.23779 2.18359,-2.81152 2.18359,-4.5097 0,-0.03717 -0.007,-0.07507 -0.008,-0.11237 10e-4,-0.0373 0.008,-0.0752 0.008,-0.11237 z"
       transform="translate(-9.2205,-4.97101)"
       id="path1111" />
    <path
       class="a"
       d="m 504.24927,36.649 c 0,0 -1.261,-1.00064 -1.261,-1.78189 0,-0.67187 1.42769,-2.05145 1.42769,-2.05145 l 24.33334,-27 V 4.98231 H 502.91592 L 489.58258,19.149 476.41592,4.98231 h -62.41661 c 0,0 -1.71744,-0.00994 -2.0211,-0.01 a 12.06114,12.06114 0 0 0 -1.85067,0.64632 c -16.8276,5.54389 -16.21162,17.86371 -16.21162,17.86371 -0.56119,13.74936 12.93194,18.64094 17.2153,19.84455 a 5.2501,5.2501 0 0 0 1.2847,0.32214 h 18.33334 a 6.92672,6.92672 0 0 1 2.375,0.83332 c 0.74452,0.34141 3.14918,1.40561 3.25,2.75 -0.0548,1.48014 -2.63177,2.53127 -2.95833,2.66667 a 8.85609,8.85609 0 0 1 -2.5485,0.80423 h -32.885 L 383.74927,4.98231 h -18.66669 l -6.97916,21.70834 c 0,0 -0.9375,4.9375 -1.38913,4.93736 -0.54837,1.4e-4 -1.58522,-4.77961 -1.58522,-4.77961 l -6.8798,-21.86609 h -19.16669 l -19,61.33334 h 20.83334 l 7.22889,-23.32338 c 0,0 1.0003,-5.17662 1.60445,-5.17662 0.60415,0 1.42878,5.28954 1.42878,5.28954 l 6.40454,23.20981 h 17.83334 l 7.87713,-24.41977 c 0,0 0.58118,-4.2046 1.28953,-4.0796 0.70835,0.125 1.16466,4.06443 1.16466,4.06443 l 7.002,24.43557 H 435.666 c 0,0 2.291,0.05165 3.24992,0 a 14.32169,14.32169 0 0 0 3.50616,-1.02633 c 14.641,-5.7783 14.49384,-18.1403 14.49384,-18.1403 0,-12.01447 -11.86856,-17.18722 -16.5931,-18.77039 -1.70378,-0.64108 -1.75985,-0.56518 -1.9069,-0.56516 l -1.49965,1.7e-4 -16.39084,0.0019 c 0,0 -0.93459,0.0085 -1.46584,-0.02275 -0.53125,-0.03125 -4.17874,-2.06306 -4.18272,-3.32089 -0.006,-1.98052 3.88644,-3.4081 4.16406,-3.45312 a 7.574,7.574 0 0 1 0.922,-0.03647 h 42.32789 a 8.05221,8.05221 0 0 1 1.45845,0 c 0.45832,0.08334 0.92294,0.94692 0.92294,0.94692 L 476.58258,34.149 447.74927,66.31566 h 25.66666 l 15.98532,-16.51371 c 0,0 0.57443,-1.13567 1.01468,-1.15294 0.53125,-0.02084 1.2075,1.38 1.2075,1.38 l 15.2925,16.28668 h 25.33334 z"
       transform="translate(-9.2205,-4.97101)"
       id="path1109" />
    <path
       class="a"
       d="m 214.875,51 h -25.73816 l -2.23926,-2.68726 c 0.26862,-0.1098 5.54864,-0.219 5.80859,-0.31024 C 206.25,43.25 205.91779,25.13879 205.91779,25.13879 206.47901,11.38946 195.98584,6.49786 191.70252,5.29425 a 5.251,5.251 0 0 0 -1.28473,-0.32214 h -25.53 L 149.89038,4.972 v 20.80656 h 31.293 c 0,0 0.93457,0.09918 1.46582,0.13043 0.53125,0.03125 4.17877,2.3587 4.18274,3.61658 0.006,1.98047 -3.88647,3.40808 -4.16406,3.45312 a 7.57188,7.57188 0 0 1 -0.922,0.03644 l -31.85547,0.0068 v 33.28334 h 16.09778 V 48.63879 h 1.22174 l 11.43048,17.66644 h 23.25 l -0.11548,-0.13855 h 9.49927 z"
       transform="translate(-9.2205,-4.97101)"
       id="path1107" />
    <polygon
       class="a"
       points="78.655,17.779 78.655,0.103 70.625,0.103 55.905,0.103 60.905,15.029 60.905,61.692 78.655,61.692 "
       id="polygon1103" />
    <g
       id="g1101">
      <path
         class="a"
         d="m 37.71545,66.58972 v -7.9e-4 c -1.02954,-6.7e-4 -2.90881,-0.0012 -3.39648,-0.0013 0.64062,1.8e-4 3.49585,10e-4 3.39648,0.0021 z"
         transform="translate(-9.2205,-4.97101)"
         id="path1093" />
      <path
         class="a"
         d="m 37.71545,66.58893 c 0.38348,2.4e-4 0.64862,4.9e-4 0.6767,7.9e-4 v -0.0041 c 0.0092,-1.8e-4 -0.28473,-1.8e-4 -0.70618,-1.8e-4 l 0.02948,1.8e-4 z"
         transform="translate(-9.2205,-4.97101)"
         id="path1095" />
      <path
         class="a"
         d="m 37.686,66.58539 c -0.02271,0 -0.04517,1.8e-4 -0.06885,-4.3e-4 -0.496,0.0094 -0.99451,-0.0188 -1.49268,-0.042 -0.49817,0.02319 -0.99677,0.05139 -1.49274,0.042 -0.02443,6.1e-4 1.95933,4.3e-4 3.05427,4.3e-4 z"
         transform="translate(-9.2205,-4.97101)"
         id="path1097" />
      <path
         class="a"
         d="m 85.6142,50.35754 0.12549,-28.199 V 20.596 A 5.25031,5.25031 0 0 0 85.41755,19.31127 C 84.214,15.028 79.32239,4.53479 65.573,5.096 c 0,0 -13.60272,-0.85 -17.86371,13.21161 -0.20715,0.68365 -0.63629,3.87177 -0.63629,3.87177 v 21.16583 c 0,0 -3.1842,3.23969 -4.77747,3.97742 a 11.43211,11.43211 0 0 1 -4.24176,1.29211 11.43181,11.43181 0 0 1 -4.2417,-1.29211 C 32.21875,46.5849 27.02392,44.37063 27.02392,41.94256 27.01843,39.22241 27.00781,6.00469 27.00817,5.07433 H 9.2619 v 34.30055 c 0,3.00262 -0.2392,6.06714 0.43225,9.01654 a 17.35,17.35 0 0 0 3.80414,6.89685 30.22223,30.22223 0 0 0 12.06213,8.869 33.57436,33.57436 0 0 0 10.564,2.38574 33.57311,33.57311 0 0 0 10.564,-2.38574 30.22242,30.22242 0 0 0 12.06219,-8.869 17.35061,17.35061 0 0 0 3.80408,-6.89685 29.32969,29.32969 0 0 0 0.455,-7.01849 l 0.06329,-0.02771 V 28.143 a 7.576,7.576 0 0 1 0.0365,-0.922 c 0.045,-0.27765 1.4726,-4.17035 3.45313,-4.16406 1.25781,0.004 3.28961,3.65143 3.32086,4.18268 0.03125,0.53125 0.02277,1.46588 0.02277,1.46588 l -0.0019,16.39081 0.003,21.56635 61.27985,6.7e-4 v -16.236 z"
         transform="translate(-9.2205,-4.97101)"
         id="path1099" />
    </g>
    <path
       class="a"
       d="M 111.8622,25.7788 H 96.84646 L 96.85,4.972 h 66.257 l 0.20142,20.80676 h -31.885 l -0.002,40.52647 H 111.8622 Z"
       transform="translate(-9.2205,-4.97101)"
       id="path1091" />
  </g>
</svg>
