<?xml version="1.0" standalone="no"?>
 <!DOCTYPE svg PUBLIC "-//W3C//DTD SVG 1.1//EN" 
 "http://www.w3.org/Graphics/SVG/1.1/DTD/svg11.dtd"> 
<svg
  xmlns:svg="http://www.w3.org/2000/svg"
  xmlns="http://www.w3.org/2000/svg"
  xmlns:xlink="http://www.w3.org/1999/xlink"
  version="1.1"
  width="41.998900cm" height="29.700220cm" viewBox="0 0 419989000 297002200">
<title>SVG Picture created as ultra-AV-F_Fab.svg date 2022/07/24 18:03:56 </title>
  <desc>Picture generated by PCBNEW </desc>
<g style="fill:#000000; fill-opacity:1.000000;stroke:#000000; stroke-opacity:1.000000;
stroke-linecap:round; stroke-linejoin:round;"
 transform="translate(0 0) scale(1 1)">
</g>
<g style="fill:#000000; fill-opacity:0.0; 
stroke:#000000; stroke-width:0.000000; stroke-opacity:1; 
stroke-linecap:round; stroke-linejoin:round;">
</g>
<g style="fill:#000000; fill-opacity:0.0; 
stroke:#000000; stroke-width:100000.000000; stroke-opacity:1; 
stroke-linecap:round; stroke-linejoin:round;">
<path d="M114680000 49175000
L115855000 49175000
" />
<path d="M117880000 49175000
L117880000 48425000
" />
<path d="M82775000 43285000
L83950000 43285000
" />
<path d="M88010000 48425000
L89185000 48425000
" />
<path d="M118490000 49175000
L118490000 48425000
" />
<path d="M81565000 48425000
L81565000 46900000
" />
<path d="M80370000 53210000
L80328892 53054772
" />
<path d="M82415000 48425000
L82415000 46900000
" />
<path d="M87760000 41760000
L88610000 41760000
" />
<path d="M107660000 43285000
L107660000 41760000
" />
<path d="M107060000 49175000
L107060000 48425000
" />
<path d="M109384667 48600000
L109384667 49000000
" />
<path d="M86585000 44035000
L86585000 43285000
" />
<path d="M82415000 50700000
L82415000 49175000
" />
<path d="M106450000 49175000
L106450000 48425000
" />
<path d="M115280000 44035000
L116455000 44035000
" />
<path d="M103000000 43285000
L103000000 41760000
" />
<path d="M97655000 50700000
L97655000 49175000
" />
<path d="M111769667 43460000
L111769667 43860000
" />
<path d="M125170000 38010000
L133020000 38010000
" />
<path d="M91820000 48425000
L92995000 48425000
" />
<path d="M100040000 45560000
L100040000 44035000
" />
<path d="M97655000 48425000
L97655000 46900000
" />
<path d="M100615000 46900000
L101465000 46900000
" />
<path d="M99190000 41760000
L100040000 41760000
" />
<path d="M104125000 49000000
L105574667 49000000
" />
<path d="M107959667 43460000
L107959667 43860000
" />
<path d="M106810000 45560000
L107660000 45560000
" />
<path d="M101465000 48425000
L101465000 46900000
" />
<path d="M107935000 49000000
L107935000 48600000
" />
<path d="M101764667 48600000
L100315000 48600000
" />
<path d="M116705000 50700000
L116705000 49175000
" />
<path d="M112045000 46900000
L112895000 46900000
" />
<path d="M90035000 50700000
L90035000 49175000
" />
<path d="M92719667 43460000
L91270000 43460000
" />
<path d="M84200000 49175000
L85375000 49175000
" />
<path d="M113194667 48600000
L113194667 49000000
" />
<path d="M119090000 43285000
L119090000 41760000
" />
<path d="M81265000 49000000
L82714667 49000000
" />
<path d="M85375000 50700000
L86225000 50700000
" />
<path d="M106510000 43860000
L106510000 43460000
" />
<path d="M103850000 43285000
L103850000 41760000
" />
<path d="M88610000 43285000
L88610000 41760000
" />
<path d="M118240000 41760000
L119090000 41760000
" />
<path d="M93845000 48425000
L95020000 48425000
" />
<path d="M112645000 44035000
L112645000 43285000
" />
<path d="M91820000 49175000
L91820000 48425000
" />
<path d="M90334667 48600000
L90334667 49000000
" />
<path d="M101465000 48425000
L102640000 48425000
" />
<path d="M87760000 45560000
L87760000 44035000
" />
<path d="M95380000 43285000
L95380000 41760000
" />
<path d="M97655000 48425000
L98830000 48425000
" />
<path d="M118240000 43285000
L118240000 41760000
" />
<path d="M86524667 48600000
L86524667 49000000
" />
<path d="M92995000 46900000
L93845000 46900000
" />
<path d="M88909667 43460000
L87460000 43460000
" />
<path d="M80451250 39160000
L122920000 39160000
" />
<path d="M92719667 43460000
L92719667 43860000
" />
<path d="M99190000 43285000
L99190000 41760000
" />
<path d="M101825000 44035000
L103000000 44035000
" />
<path d="M97954667 48600000
L97954667 49000000
" />
<path d="M70020000 54510000
L81920000 54510000
" />
<path d="M117065000 44035000
L117065000 43285000
" />
<path d="M109445000 44035000
L109445000 43285000
" />
<path d="M120814667 48600000
L120814667 49000000
" />
<path d="M100615000 50700000
L101465000 50700000
" />
<path d="M112045000 50700000
L112045000 49175000
" />
<path d="M82714667 48600000
L81265000 48600000
" />
<path d="M98015000 43285000
L99190000 43285000
" />
<path d="M115855000 50700000
L116705000 50700000
" />
<path d="M116705000 48425000
L117880000 48425000
" />
<path d="M100339667 43460000
L98890000 43460000
" />
<path d="M82270000 53360000
L122920000 53360000
" />
<path d="M103250000 48425000
L104425000 48425000
" />
<path d="M92420000 45560000
L92420000 44035000
" />
<path d="M81170000 46900000
L81170000 46260000
" />
<path d="M103000000 45560000
L103850000 45560000
" />
<path d="M96805000 50700000
L97655000 50700000
" />
<path d="M83590000 49175000
L83590000 48425000
" />
<path d="M105635000 44035000
L105635000 43285000
" />
<path d="M118490000 48425000
L119665000 48425000
" />
<path d="M84800000 45560000
L84800000 44035000
" />
<path d="M87460000 43860000
L87460000 43460000
" />
<path d="M108235000 50700000
L109085000 50700000
" />
<path d="M92695000 49000000
L94144667 49000000
" />
<path d="M111470000 45560000
L111470000 44035000
" />
<path d="M111745000 49000000
L111745000 48600000
" />
<path d="M115579667 43460000
L115579667 43860000
" />
<path d="M84800000 43285000
L85975000 43285000
" />
<path d="M96529667 43460000
L95080000 43460000
" />
<path d="M86225000 49175000
L87400000 49175000
" />
<path d="M100339667 43460000
L100339667 43860000
" />
<path d="M114680000 48425000
L115855000 48425000
" />
<path d="M80390000 49175000
L80390000 48425000
" />
<path d="M115280000 43285000
L115280000 41760000
" />
<path d="M88010000 49175000
L89185000 49175000
" />
<path d="M86225000 50700000
L86225000 49175000
" />
<path d="M112895000 50700000
L112895000 49175000
" />
<path d="M105635000 43285000
L106810000 43285000
" />
<path d="M81170000 46260000
L79351250 40260000
" />
<path d="M101825000 44035000
L101825000 43285000
" />
<path d="M82415000 49175000
L83590000 49175000
" />
<path d="M86225000 48425000
L87400000 48425000
" />
<path d="M120515000 49175000
L121690000 49175000
" />
<path d="M94144667 48600000
L92695000 48600000
" />
<path d="M118490000 49175000
L119665000 49175000
" />
<path d="M104149667 43460000
L104149667 43860000
" />
<path d="M112045000 48425000
L112045000 46900000
" />
<path d="M109085000 49175000
L110260000 49175000
" />
<path d="M125170000 39635000
L125170000 52885000
" />
<path d="M114430000 41760000
L115280000 41760000
" />
<path d="M97954667 48600000
L96505000 48600000
" />
<path d="M104425000 46900000
L105275000 46900000
" />
<path d="M99440000 49175000
L99440000 48425000
" />
<path d="M104425000 48425000
L104425000 46900000
" />
<path d="M101465000 49175000
L102640000 49175000
" />
<path d="M115855000 46900000
L116705000 46900000
" />
<path d="M95380000 41760000
L96230000 41760000
" />
<path d="M97405000 44035000
L97405000 43285000
" />
<path d="M96230000 43285000
L97405000 43285000
" />
<path d="M81565000 50700000
L81565000 49175000
" />
<path d="M81170000 52260000
L81170000 50700000
" />
<path d="M84800000 43285000
L84800000 41760000
" />
<path d="M112895000 48425000
L114070000 48425000
" />
<path d="M119090000 43285000
L120265000 43285000
" />
<path d="M105635000 44035000
L106810000 44035000
" />
<path d="M109085000 48425000
L110260000 48425000
" />
<path d="M84800000 44035000
L85975000 44035000
" />
<path d="M93845000 49175000
L95020000 49175000
" />
<path d="M91210000 49175000
L91210000 48425000
" />
<path d="M119090000 45560000
L119090000 44035000
" />
<path d="M117940000 43860000
L117940000 43460000
" />
<path d="M115555000 49000000
L117004667 49000000
" />
<path d="M81920000 54510000
L133020000 54510000
" />
<path d="M100040000 44035000
L101215000 44035000
" />
<path d="M86524667 48600000
L85075000 48600000
" />
<path d="M107959667 43460000
L106510000 43460000
" />
<path d="M115280000 43285000
L116455000 43285000
" />
<path d="M104149667 43460000
L102700000 43460000
" />
<path d="M103000000 45560000
L103000000 44035000
" />
<path d="M108235000 46900000
L109085000 46900000
" />
<path d="M113255000 44035000
L114430000 44035000
" />
<path d="M85099667 43460000
L83650000 43460000
" />
<path d="M98015000 44035000
L99190000 44035000
" />
<path d="M103250000 49175000
L104425000 49175000
" />
<path d="M110620000 45560000
L110620000 44035000
" />
<path d="M90334667 48600000
L88885000 48600000
" />
<path d="M107060000 49175000
L108235000 49175000
" />
<path d="M114430000 45560000
L115280000 45560000
" />
<path d="M117065000 44035000
L118240000 44035000
" />
<path d="M103250000 49175000
L103250000 48425000
" />
<path d="M105275000 48425000
L105275000 46900000
" />
<path d="M85099667 43460000
L85099667 43860000
" />
<path d="M107660000 44035000
L108835000 44035000
" />
<path d="M107935000 49000000
L109384667 49000000
" />
<path d="M117940000 43860000
L119389667 43860000
" />
<path d="M107660000 45560000
L107660000 44035000
" />
<path d="M101825000 43285000
L103000000 43285000
" />
<path d="M96505000 49000000
L96505000 48600000
" />
<path d="M83320000 52160000
L122320000 52160000
" />
<path d="M101215000 44035000
L101215000 43285000
" />
<path d="M82415000 50700000
L81170000 50700000
" />
<path d="M82820000 50700000
L82415000 50700000
" />
<path d="M86585000 43285000
L87760000 43285000
" />
<path d="M117004667 48600000
L115555000 48600000
" />
<path d="M70020000 38010000
L79595000 38010000
" />
<path d="M101764667 48600000
L101764667 49000000
" />
<path d="M96230000 45560000
L96230000 44035000
" />
<path d="M83950000 43285000
L83950000 41760000
" />
<path d="M93845000 48425000
L93845000 46900000
" />
<path d="M108235000 48425000
L108235000 46900000
" />
<path d="M114130000 43860000
L115579667 43860000
" />
<path d="M103850000 43285000
L105025000 43285000
" />
<path d="M93595000 44035000
L93595000 43285000
" />
<path d="M120515000 48425000
L120515000 46900000
" />
<path d="M98830000 49175000
L98830000 48425000
" />
<path d="M101465000 50700000
L101465000 49175000
" />
<path d="M83950000 45560000
L84800000 45560000
" />
<path d="M83650000 43860000
L85099667 43860000
" />
<path d="M80390000 49175000
L81565000 49175000
" />
<path d="M98890000 43860000
L100339667 43860000
" />
<path d="M88885000 49000000
L88885000 48600000
" />
<path d="M95380000 45560000
L95380000 44035000
" />
<path d="M134520000 39510000
L134520000 53010000
" />
<path d="M77970000 39635000
L77970000 41760000
" />
<path d="M88010000 49175000
L88010000 48425000
" />
<path d="M108235000 50700000
L108235000 49175000
" />
<path d="M104125000 49000000
L104125000 48600000
" />
<path d="M82775000 44035000
L82775000 43285000
" />
<path d="M84200000 48425000
L85375000 48425000
" />
<path d="M119365000 49000000
L119365000 48600000
" />
<path d="M115855000 48425000
L115855000 46900000
" />
<path d="M89785000 44035000
L89785000 43285000
" />
<path d="M103000000 41760000
L103850000 41760000
" />
<path d="M111745000 49000000
L113194667 49000000
" />
<path d="M110620000 41760000
L111470000 41760000
" />
<path d="M96230000 43285000
L96230000 41760000
" />
<path d="M117065000 43285000
L118240000 43285000
" />
<path d="M94205000 44035000
L95380000 44035000
" />
<path d="M109085000 50700000
L109085000 49175000
" />
<path d="M77970000 41760000
L80328892 53054772
" />
<path d="M89185000 50700000
L90035000 50700000
" />
<path d="M119090000 44035000
L120265000 44035000
" />
<path d="M86585000 44035000
L87760000 44035000
" />
<path d="M102700000 43860000
L104149667 43860000
" />
<path d="M100040000 43285000
L100040000 41760000
" />
<path d="M105025000 44035000
L105025000 43285000
" />
<path d="M114130000 43860000
L114130000 43460000
" />
<path d="M83950000 45560000
L83950000 44035000
" />
<path d="M119665000 50700000
L120515000 50700000
" />
<path d="M82820000 40360000
L81307500 40360000
" />
<path d="M119665000 50700000
L119665000 49175000
" />
<path d="M120265000 44035000
L120265000 43285000
" />
<path d="M120515000 48425000
L121690000 48425000
" />
<path d="M96230000 44035000
L97405000 44035000
" />
<path d="M105275000 50700000
L105275000 49175000
" />
<path d="M91570000 45560000
L91570000 44035000
" />
<path d="M110870000 49175000
L110870000 48425000
" />
<path d="M106510000 43860000
L107959667 43860000
" />
<path d="M110620000 45560000
L111470000 45560000
" />
<path d="M113194667 48600000
L111745000 48600000
" />
<path d="M93845000 50700000
L93845000 49175000
" />
<path d="M85075000 49000000
L85075000 48600000
" />
<path d="M87760000 43285000
L87760000 41760000
" />
<path d="M88885000 49000000
L90334667 49000000
" />
<path d="M99440000 48425000
L100615000 48425000
" />
<path d="M92995000 50700000
L92995000 49175000
" />
<path d="M99440000 49175000
L100615000 49175000
" />
<path d="M116705000 49175000
L117880000 49175000
" />
<path d="M114430000 45560000
L114430000 44035000
" />
<path d="M81565000 46900000
L82415000 46900000
" />
<path d="M82775000 44035000
L83950000 44035000
" />
<path d="M91570000 43285000
L91570000 41760000
" />
<path d="M115855000 50700000
L115855000 49175000
" />
<path d="M82820000 51660000
L82820000 50700000
" />
<path d="M113255000 43285000
L114430000 43285000
" />
<path d="M111470000 43285000
L112645000 43285000
" />
<path d="M87460000 43860000
L88909667 43860000
" />
<path d="M92420000 43285000
L92420000 41760000
" />
<path d="M111470000 44035000
L112645000 44035000
" />
<path d="M104425000 50700000
L105275000 50700000
" />
<path d="M90395000 44035000
L90395000 43285000
" />
<path d="M116455000 44035000
L116455000 43285000
" />
<path d="M84200000 49175000
L84200000 48425000
" />
<path d="M100615000 48425000
L100615000 46900000
" />
<path d="M102640000 49175000
L102640000 48425000
" />
<path d="M95630000 49175000
L96805000 49175000
" />
<path d="M96805000 48425000
L96805000 46900000
" />
<path d="M91270000 43860000
L92719667 43860000
" />
<path d="M117004667 48600000
L117004667 49000000
" />
<path d="M91570000 45560000
L92420000 45560000
" />
<path d="M90395000 44035000
L91570000 44035000
" />
<path d="M91570000 41760000
L92420000 41760000
" />
<path d="M115555000 49000000
L115555000 48600000
" />
<path d="M94205000 44035000
L94205000 43285000
" />
<path d="M95380000 45560000
L96230000 45560000
" />
<path d="M88610000 44035000
L89785000 44035000
" />
<path d="M68520000 39510000
L68520000 53010000
" />
<path d="M98015000 44035000
L98015000 43285000
" />
<path d="M100040000 43285000
L101215000 43285000
" />
<path d="M91820000 49175000
L92995000 49175000
" />
<path d="M103850000 44035000
L105025000 44035000
" />
<path d="M85375000 48425000
L85375000 46900000
" />
<path d="M99190000 45560000
L99190000 44035000
" />
<path d="M92695000 49000000
L92695000 48600000
" />
<path d="M116705000 48425000
L116705000 46900000
" />
<path d="M109384667 48600000
L107935000 48600000
" />
<path d="M109445000 43285000
L110620000 43285000
" />
<path d="M107570000 54510000
L124020000 54510000
" />
<path d="M96505000 49000000
L97954667 49000000
" />
<path d="M90395000 43285000
L91570000 43285000
" />
<path d="M107060000 48425000
L108235000 48425000
" />
<path d="M109445000 44035000
L110620000 44035000
" />
<path d="M80390000 48425000
L81565000 48425000
" />
<path d="M100315000 49000000
L101764667 49000000
" />
<path d="M114070000 49175000
L114070000 48425000
" />
<path d="M85375000 46900000
L86225000 46900000
" />
<path d="M100615000 50700000
L100615000 49175000
" />
<path d="M122820000 40860000
L122820000 51660000
" />
<path d="M95080000 43860000
L96529667 43860000
" />
<path d="M81265000 49000000
L81265000 48600000
" />
<path d="M106810000 45560000
L106810000 44035000
" />
<path d="M108835000 44035000
L108835000 43285000
" />
<path d="M96805000 46900000
L97655000 46900000
" />
<path d="M95630000 48425000
L96805000 48425000
" />
<path d="M110870000 49175000
L112045000 49175000
" />
<path d="M99190000 45560000
L100040000 45560000
" />
<path d="M106810000 43285000
L106810000 41760000
" />
<path d="M82820000 46900000
L82820000 46260000
" />
<path d="M110320000 43860000
L111769667 43860000
" />
<path d="M104425000 50700000
L104425000 49175000
" />
<path d="M119389667 43460000
L117940000 43460000
" />
<path d="M124020000 40260000
L124020000 52260000
" />
<path d="M85375000 50700000
L85375000 49175000
" />
<path d="M119665000 46900000
L120515000 46900000
" />
<path d="M110320000 43860000
L110320000 43460000
" />
<path d="M90035000 48425000
L90035000 46900000
" />
<path d="M82415000 48425000
L83590000 48425000
" />
<path d="M82820000 46260000
L80807500 40860000
" />
<path d="M92420000 43285000
L93595000 43285000
" />
<path d="M114430000 43285000
L114430000 41760000
" />
<path d="M95080000 43860000
L95080000 43460000
" />
<path d="M88610000 43285000
L89785000 43285000
" />
<path d="M91270000 43860000
L91270000 43460000
" />
<path d="M82714667 48600000
L82714667 49000000
" />
<path d="M106810000 41760000
L107660000 41760000
" />
<path d="M109085000 48425000
L109085000 46900000
" />
<path d="M120814667 48600000
L119365000 48600000
" />
<path d="M88610000 45560000
L88610000 44035000
" />
<path d="M97655000 49175000
L98830000 49175000
" />
<path d="M94205000 43285000
L95380000 43285000
" />
<path d="M103850000 45560000
L103850000 44035000
" />
<path d="M118240000 45560000
L119090000 45560000
" />
<path d="M114680000 49175000
L114680000 48425000
" />
<path d="M107660000 43285000
L108835000 43285000
" />
<path d="M92995000 48425000
L92995000 46900000
" />
<path d="M81170000 46900000
L82415000 46900000
" />
<path d="M88909667 43460000
L88909667 43860000
" />
<path d="M82820000 46900000
L82415000 46900000
" />
<path d="M112895000 48425000
L112895000 46900000
" />
<path d="M89185000 46900000
L90035000 46900000
" />
<path d="M95020000 49175000
L95020000 48425000
" />
<path d="M121690000 49175000
L121690000 48425000
" />
<path d="M81565000 50700000
L82415000 50700000
" />
<path d="M105574667 48600000
L104125000 48600000
" />
<path d="M83950000 41760000
L84800000 41760000
" />
<path d="M95630000 49175000
L95630000 48425000
" />
<path d="M110260000 49175000
L110260000 48425000
" />
<path d="M90035000 49175000
L91210000 49175000
" />
<path d="M89185000 50700000
L89185000 49175000
" />
<path d="M83650000 43860000
L83650000 43460000
" />
<path d="M79595000 38010000
L125170000 38010000
" />
<path d="M111470000 43285000
L111470000 41760000
" />
<path d="M85075000 49000000
L86524667 49000000
" />
<path d="M112045000 50700000
L112895000 50700000
" />
<path d="M87760000 45560000
L88610000 45560000
" />
<path d="M89185000 48425000
L89185000 46900000
" />
<path d="M96805000 50700000
L96805000 49175000
" />
<path d="M105574667 48600000
L105574667 49000000
" />
<path d="M113255000 44035000
L113255000 43285000
" />
<path d="M105275000 48425000
L106450000 48425000
" />
<path d="M112895000 49175000
L114070000 49175000
" />
<path d="M111769667 43460000
L110320000 43460000
" />
<path d="M98890000 43860000
L98890000 43460000
" />
<path d="M110620000 43285000
L110620000 41760000
" />
<path d="M115280000 45560000
L115280000 44035000
" />
<path d="M96529667 43460000
L96529667 43860000
" />
<path d="M82820000 40360000
L122320000 40360000
" />
<path d="M119365000 49000000
L120814667 49000000
" />
<path d="M87400000 49175000
L87400000 48425000
" />
<path d="M110870000 48425000
L112045000 48425000
" />
<path d="M86225000 48425000
L86225000 46900000
" />
<path d="M92995000 50700000
L93845000 50700000
" />
<path d="M100315000 49000000
L100315000 48600000
" />
<path d="M92420000 44035000
L93595000 44035000
" />
<path d="M120515000 50700000
L120515000 49175000
" />
<path d="M94144667 48600000
L94144667 49000000
" />
<path d="M119389667 43460000
L119389667 43860000
" />
<path d="M90035000 48425000
L91210000 48425000
" />
<path d="M115579667 43460000
L114130000 43460000
" />
<path d="M102700000 43860000
L102700000 43460000
" />
<path d="M85975000 44035000
L85975000 43285000
" />
<path d="M105275000 49175000
L106450000 49175000
" />
<path d="M118240000 45560000
L118240000 44035000
" />
<path d="M119665000 48425000
L119665000 46900000
" />
<path d="M81307500.000000 40360000.000001 A500001.000000 500001.000000 0.0 0 0 80807500.000001 40860000.000000" />
<path d="M123545000.000000 54510000.000000 A1625000.000000 1625000.000000 0.0 0 0 125170000.000000 52885000.000000" />
<path d="M79595000.000000 38010000.000001 A1624998.000000 1624998.000000 0.0 0 0 77970000.000001 39635000.000000" />
<path d="M68520000.000000 53010000.000000 A1500001.000000 1500001.000000 0.0 0 0 70020000.000000 54510000.000000" />
<path d="M124020000.000000 40260000.000000 A1100000.000000 1100000.000000 0.0 0 0 122920000.000000 39160000.000000" />
<path d="M80369999.867414 53210000.025577 A1604029.000000 1604029.000000 0.0 0 0 81919999.994982 54510000.322020" />
<path d="M133020000.000000 54510000.000000 A1500000.000000 1500000.000000 0.0 0 0 134520000.000000 53010000.000000" />
<path d="M122820000.000000 40860000.000000 A500000.000000 500000.000000 0.0 0 0 122320000.000000 40360000.000000" />
<path d="M81170000.000002 52260000.000000 A1100002.000000 1100002.000000 0.0 0 0 82270000.000000 53359999.999998" />
<path d="M134520000.000000 39510000.000000 A1500000.000000 1500000.000000 0.0 0 0 133020000.000000 38010000.000000" />
<path d="M82820000.000001 51660000.000000 A500001.000000 500001.000000 0.0 0 0 83320000.000000 52159999.999999" />
<path d="M122320000.000000 52160000.000000 A500000.000000 500000.000000 0.0 0 0 122820000.000000 51660000.000000" />
<path d="M122920000.000000 53360000.000000 A1100000.000000 1100000.000000 0.0 0 0 124020000.000000 52260000.000000" />
<path d="M70020000.000000 38010000.000000 A1500001.000000 1500001.000000 0.0 0 0 68520000.000000 39510000.000000" />
<path d="M125170000.000000 39635000.000000 A1625000.000000 1625000.000000 0.0 0 0 123545000.000000 38010000.000000" />
<path d="M80451250.000000 39160000.000002 A1100002.000000 1100002.000000 0.0 0 0 79351250.000002 40260000.000000" />
<circle cx="130770000.000000" cy="46260000.000000" r="3000000.000000" /> 
<circle cx="72270000.000000" cy="46260000.000000" r="3000000.000000" /> 
<g >
</g>
<g >
</g>
<g >
</g>
<g >
</g>
</g>
<g style="fill:#000000; fill-opacity:0.0; 
stroke:#000000; stroke-width:100000.000000; stroke-opacity:1; 
stroke-linecap:round; stroke-linejoin:round;">
<g >
</g>
<g >
</g>
<g >
</g>
<g >
</g>
</g> 
</svg>
